<svg width="219" height="218" viewBox="0 0 219 218" fill="none" xmlns="http://www.w3.org/2000/svg">
<circle opacity="0.1" cx="109.788" cy="109" r="109" fill="#4A3AFF"/>
<path d="M84.9369 140.556C79.2462 140.556 74.3475 139.207 70.2409 136.508C66.1342 133.809 62.9662 130.084 60.7369 125.332C58.5662 120.521 57.4809 114.977 57.4809 108.7C57.4809 102.423 58.5662 96.908 60.7369 92.156C62.9662 87.3453 66.1049 83.5907 70.1529 80.892C74.2595 78.1933 79.1875 76.844 84.9369 76.844C90.6275 76.844 95.4969 78.1933 99.5449 80.892C103.652 83.5907 106.79 87.3453 108.961 92.156C111.19 96.908 112.305 102.423 112.305 108.7C112.305 114.977 111.19 120.521 108.961 125.332C106.79 130.084 103.652 133.809 99.5449 136.508C95.4969 139.207 90.6275 140.556 84.9369 140.556ZM84.9369 129.908C87.9289 129.908 90.5689 129.057 92.8569 127.356C95.2035 125.596 96.9929 123.132 98.2249 119.964C99.5155 116.796 100.161 113.041 100.161 108.7C100.161 104.3 99.5155 100.545 98.2249 97.436C96.9929 94.268 95.2035 91.8333 92.8569 90.132C90.5689 88.4307 87.9289 87.58 84.9369 87.58C81.9449 87.58 79.2755 88.4307 76.9289 90.132C74.6409 91.8333 72.8515 94.268 71.5609 97.436C70.2702 100.545 69.6249 104.3 69.6249 108.7C69.6249 113.041 70.2702 116.796 71.5609 119.964C72.8515 123.132 74.6409 125.596 76.9289 127.356C79.2755 129.057 81.9449 129.908 84.9369 129.908ZM140.673 140.556C136.683 140.556 133.017 139.823 129.673 138.356C126.329 136.889 123.659 134.66 121.665 131.668C119.67 128.676 118.614 124.892 118.497 120.316H130.113C130.171 122.252 130.611 124.012 131.433 125.596C132.313 127.121 133.515 128.353 135.041 129.292C136.625 130.172 138.502 130.612 140.673 130.612C142.726 130.612 144.486 130.201 145.953 129.38C147.419 128.559 148.534 127.473 149.297 126.124C150.059 124.775 150.441 123.22 150.441 121.46C150.441 119.348 149.942 117.617 148.945 116.268C147.947 114.86 146.539 113.804 144.721 113.1C142.961 112.337 140.907 111.956 138.561 111.956H133.985V102.188H138.561C141.435 102.188 143.841 101.543 145.777 100.252C147.713 98.9027 148.681 96.8787 148.681 94.18C148.681 92.0093 147.947 90.2493 146.481 88.9C145.073 87.5507 143.107 86.876 140.585 86.876C137.827 86.876 135.657 87.6973 134.073 89.34C132.547 90.9827 131.697 93.0067 131.521 95.412H119.993C120.169 91.54 121.137 88.2253 122.897 85.468C124.657 82.652 127.033 80.5107 130.025 79.044C133.075 77.5773 136.625 76.844 140.673 76.844C144.897 76.844 148.475 77.6067 151.409 79.132C154.342 80.5987 156.571 82.5933 158.097 85.116C159.622 87.58 160.385 90.308 160.385 93.3C160.385 95.6467 159.915 97.7587 158.977 99.636C158.097 101.455 156.894 102.98 155.369 104.212C153.902 105.444 152.259 106.353 150.441 106.94C152.729 107.351 154.723 108.231 156.425 109.58C158.185 110.929 159.563 112.66 160.561 114.772C161.558 116.825 162.057 119.201 162.057 121.9C162.057 125.244 161.235 128.353 159.593 131.228C157.95 134.044 155.545 136.303 152.377 138.004C149.209 139.705 145.307 140.556 140.673 140.556Z" fill="#4A3AFF"/>
</svg>
