<svg width="219" height="218" viewBox="0 0 219 218" fill="none" xmlns="http://www.w3.org/2000/svg">
<circle opacity="0.1" cx="109.894" cy="109" r="109" fill="#4A3AFF"/>
<path d="M94.7276 140.556C89.0369 140.556 84.1676 139.236 80.1195 136.596C76.0715 133.897 72.9329 130.172 70.7035 125.42C68.5329 120.609 67.4475 115.036 67.4475 108.7C67.4475 102.423 68.5329 96.8787 70.7035 92.068C72.9329 87.2573 76.0715 83.532 80.1195 80.892C84.1676 78.1933 89.0369 76.844 94.7276 76.844C100.418 76.844 105.288 78.1933 109.336 80.892C113.384 83.532 116.493 87.2573 118.664 92.068C120.893 96.8787 122.008 102.423 122.008 108.7C122.008 115.036 120.893 120.609 118.664 125.42C116.493 130.172 113.384 133.897 109.336 136.596C105.288 139.236 100.418 140.556 94.7276 140.556ZM94.7276 130.436C99.3622 130.436 103.146 128.5 106.08 124.628C109.013 120.756 110.48 115.447 110.48 108.7C110.48 101.953 109.013 96.644 106.08 92.772C103.146 88.9 99.3622 86.964 94.7276 86.964C90.0342 86.964 86.2209 88.9 83.2875 92.772C80.4129 96.644 78.9756 101.953 78.9756 108.7C78.9756 115.447 80.4129 120.756 83.2875 124.628C86.2209 128.5 90.0342 130.436 94.7276 130.436ZM138.636 139.5V90.748L128.516 93.124V84.5L143.388 77.9H150.34V139.5H138.636Z" fill="#4A3AFF"/>
</svg>
