<svg width="219" height="218" viewBox="0 0 219 218" fill="none" xmlns="http://www.w3.org/2000/svg">
<circle opacity="0.1" cx="109.788" cy="109" r="109" fill="#4A3AFF"/>
<path d="M85.8548 140.556C80.1642 140.556 75.2655 139.207 71.1588 136.508C67.0522 133.809 63.8842 130.084 61.6548 125.332C59.4842 120.521 58.3988 114.977 58.3988 108.7C58.3988 102.423 59.4842 96.908 61.6548 92.156C63.8842 87.3453 67.0228 83.5907 71.0708 80.892C75.1775 78.1933 80.1055 76.844 85.8548 76.844C91.5455 76.844 96.4149 78.1933 100.463 80.892C104.57 83.5907 107.708 87.3453 109.879 92.156C112.108 96.908 113.223 102.423 113.223 108.7C113.223 114.977 112.108 120.521 109.879 125.332C107.708 130.084 104.57 133.809 100.463 136.508C96.4149 139.207 91.5455 140.556 85.8548 140.556ZM85.8548 129.908C88.8468 129.908 91.4868 129.057 93.7748 127.356C96.1215 125.596 97.9109 123.132 99.1428 119.964C100.434 116.796 101.079 113.041 101.079 108.7C101.079 104.3 100.434 100.545 99.1428 97.436C97.9109 94.268 96.1215 91.8333 93.7748 90.132C91.4868 88.4307 88.8468 87.58 85.8548 87.58C82.8628 87.58 80.1935 88.4307 77.8468 90.132C75.5588 91.8333 73.7695 94.268 72.4788 97.436C71.1882 100.545 70.5428 104.3 70.5428 108.7C70.5428 113.041 71.1882 116.796 72.4788 119.964C73.7695 123.132 75.5588 125.596 77.8468 127.356C80.1935 129.057 82.8628 129.908 85.8548 129.908ZM118.279 139.5V130.788C122.033 127.796 125.641 124.804 129.103 121.812C132.623 118.82 135.791 115.857 138.607 112.924C141.423 109.932 143.623 107.028 145.207 104.212C146.849 101.396 147.671 98.668 147.671 96.028C147.671 94.3853 147.377 92.8893 146.791 91.54C146.204 90.132 145.295 89.0173 144.063 88.196C142.831 87.316 141.188 86.876 139.135 86.876C137.14 86.876 135.439 87.3453 134.031 88.284C132.623 89.2227 131.567 90.484 130.863 92.068C130.159 93.5933 129.807 95.324 129.807 97.26H118.367C118.484 92.7427 119.481 88.9587 121.359 85.908C123.236 82.8573 125.759 80.5987 128.927 79.132C132.095 77.6067 135.615 76.844 139.487 76.844C143.828 76.844 147.465 77.6653 150.399 79.308C153.391 80.892 155.649 83.0627 157.175 85.82C158.759 88.5773 159.551 91.7453 159.551 95.324C159.551 98.0227 159.052 100.663 158.055 103.244C157.116 105.825 155.796 108.348 154.095 110.812C152.393 113.217 150.457 115.535 148.287 117.764C146.116 119.993 143.857 122.135 141.511 124.188C139.223 126.183 136.993 128.06 134.823 129.82H161.047V139.5H118.279Z" fill="#4A3AFF"/>
</svg>
