<svg width="98" height="25" viewBox="0 0 98 25" fill="none" xmlns="http://www.w3.org/2000/svg">
<path d="M0 25H15.3332V19.9135H5.54992V0.509534H0V25ZM23.0963 25V8.13148H17.5469V25H23.0963ZM20.3221 5.82878C22.2569 5.82878 23.4615 4.53338 23.4615 2.91365C23.4256 1.25865 22.2569 0 20.3589 0C18.4605 0 17.2191 1.25914 17.2191 2.91365C17.2191 4.53338 18.4236 5.82878 20.2857 5.82878H20.3221ZM25.6727 25H31.2221V15.5795C31.2221 15.0754 31.258 14.5712 31.405 14.2121C31.8055 13.2048 32.7186 12.1612 34.2519 12.1612C36.2605 12.1612 37.064 13.7084 37.064 15.9749V24.9995H42.6125V15.3277C42.6125 10.1461 39.8746 7.73512 36.2231 7.73512C33.2297 7.73512 31.9151 9.42589 31.1848 10.5777H31.2221V8.13148H25.6727C25.7459 9.71447 25.6727 25 25.6727 25ZM50.4415 0.509534H44.8921V25H50.4415V19.5308L51.8284 17.7666L56.1733 25H63L55.699 14.5286L62.0874 7.4049H55.4071C55.4071 7.4049 50.8435 13.778 50.4415 14.5345V0.509534Z" fill="black"/>
<path d="M78.0852 17.8325C78.1596 17.4148 78.2711 16.6135 78.2711 15.7073C78.2711 11.5022 76.0423 7.23293 70.1743 7.23293C63.8973 7.23293 61 11.9875 61 16.2998C61 21.6331 64.5287 24.9636 70.6937 24.9636C73.1455 24.9636 75.4104 24.6178 77.2682 23.8887L76.5253 20.3177C75.0019 20.8016 73.442 21.0439 71.5112 21.0439C68.8744 21.0439 66.5721 20.0069 66.3861 17.7975L78.0852 17.8316V17.8325ZM66.3491 14.1746C66.4976 12.7864 67.464 10.7382 69.8778 10.7382C72.4401 10.7382 73.035 12.9249 73.035 14.1746H66.3496H66.3491ZM92.2059 1.00047V9.17624H92.1315C91.314 8.03189 89.6057 7.26837 87.3413 7.26837C82.9952 7.26837 79.17 10.5993 79.2065 16.2899C79.2065 21.5646 82.6612 25 86.9689 25C89.3092 25 91.537 24.0276 92.6519 22.1538H92.7629L92.9864 24.6182H98C97.926 23.473 97.851 21.4952 97.851 19.5519V1H92.2055L92.2059 1.00047ZM92.2059 17.0884C92.2059 17.5041 92.169 17.9213 92.094 18.2672C91.761 19.7602 90.4236 20.8001 88.7892 20.8001C86.4499 20.8001 84.9265 18.9962 84.9265 16.151C84.9265 13.4796 86.2274 11.3279 88.8267 11.3279C90.5721 11.3279 91.7975 12.4727 92.132 13.8949C92.206 14.2081 92.2059 14.5554 92.2059 14.8672V17.0879V17.0884Z" fill="black"/>
</svg>
