<svg width="37" height="37" viewBox="0 0 37 37" fill="none" xmlns="http://www.w3.org/2000/svg">
<path d="M0 2.65048C0 1.18743 1.22473 0 2.73466 0H34.2653C35.7757 0 37 1.18743 37 2.65048V34.35C37 35.8135 35.7757 37 34.2653 37H2.73466C1.22473 37 0 35.8135 0 34.3505V2.65V2.65048Z" fill="#006699"/>
<path d="M10.9023 30.9995V14.1313H5.32875V30.9995H10.9028H10.9023ZM8.11649 11.8287C10.0597 11.8287 11.2695 10.5333 11.2695 8.91458C11.233 7.25911 10.0597 6 8.1535 6C6.24581 6 5 7.25911 5 8.91458C5 10.5333 6.20929 11.8287 8.07996 11.8287H8.116H8.11649ZM13.9871 30.9995H19.5602V21.5807C19.5602 21.077 19.5967 20.5724 19.7438 20.2128C20.1466 19.205 21.0637 18.162 22.6036 18.162C24.6199 18.162 25.4269 19.7087 25.4269 21.9765V30.9995H31V21.3279C31 16.1469 28.2507 13.7359 24.5839 13.7359C21.5775 13.7359 20.2571 15.4262 19.5237 16.5775H19.5607V14.1318H13.9876C14.0602 15.7143 13.9871 31 13.9871 31V30.9995Z" fill="white"/>
</svg>
