<svg width="132" height="45" viewBox="0 0 132 45" fill="none" xmlns="http://www.w3.org/2000/svg">
<path d="M17.4787 0H18.7408C23.1222 0.0927257 27.4321 1.80815 30.5277 4.84492C29.3847 5.9808 28.2179 7.07033 27.0988 8.20622C25.3605 6.67625 23.265 5.49399 20.9791 5.07673C17.5978 4.38129 13.9545 5.00719 11.1209 6.88488C8.02534 8.8553 5.92989 12.1934 5.47746 15.7634C4.97741 19.2869 6.00132 22.996 8.35871 25.7314C10.6209 28.3972 14.0736 30.0663 17.6454 30.1822C20.9791 30.3677 24.4556 29.3709 26.8845 27.0991C28.7894 25.4996 29.6705 23.0655 29.9562 20.701C26.0034 20.701 22.0506 20.7242 18.0978 20.701V15.9256H34.7424C35.5997 21.0487 34.3614 26.8209 30.361 30.4836C27.6941 33.0799 24.0032 34.6099 20.2409 34.9112C16.5977 35.2589 12.8354 34.5867 9.59694 32.8712C5.71558 30.8545 2.62002 27.4468 1.09605 23.4364C-0.332675 19.7506 -0.356487 15.5779 0.976986 11.8689C2.1914 8.4844 4.52498 5.49399 7.52529 3.40767C10.4065 1.34452 13.9069 0.208633 17.4787 0Z" fill="#B8BCC2"/>
<path d="M111 1H116V34.994C114.341 34.994 112.659 35.0179 111 34.9702C111.023 23.6627 111 12.3313 111 1Z" fill="#B8BCC2"/>
<path d="M46.2588 12.2099C49.3753 11.6183 52.7515 12.2809 55.3249 14.1505C57.6622 15.8071 59.2913 18.4104 59.7871 21.2503C60.4245 24.5399 59.6218 28.1371 57.497 30.7403C55.2068 33.6512 51.4529 35.2132 47.7935 34.9765C44.4409 34.7872 41.1828 33.1069 39.1996 30.3617C36.9567 27.3324 36.4137 23.1672 37.6414 19.6174C38.8691 15.8071 42.3397 12.8962 46.2588 12.2099ZM46.9671 16.7065C45.6922 17.0378 44.5117 17.7714 43.6618 18.8127C41.3717 21.558 41.5133 26.0308 44.0396 28.5867C45.4797 30.054 47.6518 30.7403 49.6586 30.338C51.5238 30.0067 53.1528 28.7524 54.05 27.0958C55.6082 24.2795 55.1596 20.3983 52.7751 18.1974C51.2405 16.7775 48.9975 16.1858 46.9671 16.7065Z" fill="#B8BCC2"/>
<path d="M71.2583 12.2118C74.826 11.5252 78.7245 12.5196 81.3943 15.0292C85.7417 18.9357 86.2143 26.2516 82.5048 30.75C80.2602 33.5912 76.6217 35.1538 73.0303 34.988C69.6044 34.8933 66.2258 33.1887 64.1938 30.3712C61.902 27.2697 61.4058 23.008 62.7053 19.3856C64.0048 15.6921 67.4071 12.8747 71.2583 12.2118ZM71.9671 16.7102C70.6913 17.0417 69.5099 17.7756 68.6593 18.7937C66.3911 21.4927 66.4856 25.8965 68.9192 28.4771C70.3605 30.0161 72.6051 30.7737 74.6842 30.3475C76.5272 29.9924 78.181 28.7613 79.0789 27.1039C80.6146 24.2628 80.1657 20.38 77.7558 18.1781C76.22 16.7575 73.9754 16.1893 71.9671 16.7102Z" fill="#B8BCC2"/>
<path d="M92.5364 13.5704C95.2528 11.8822 98.8667 11.4132 101.796 12.867C102.717 13.2656 103.473 13.9455 104.205 14.6255C104.229 13.9924 104.205 13.3359 104.229 12.6794C105.811 12.7028 107.394 12.6794 109 12.7028V33.3831C108.976 36.5015 108.173 39.8075 105.906 42.0819C103.426 44.5907 99.6226 45.3645 96.1976 44.8486C92.5364 44.3094 89.3476 41.6599 87.9304 38.3069C89.3476 37.627 90.8357 37.0877 92.3002 36.4546C93.1269 38.3773 94.804 40.0186 96.9062 40.3937C99.0085 40.7689 101.441 40.253 102.811 38.518C104.276 36.736 104.276 34.2975 104.205 32.1169C103.118 33.1721 101.867 34.1099 100.355 34.4616C97.0716 35.3761 93.4576 34.2506 90.9302 32.0466C88.3792 29.8426 86.8674 26.4428 87.0092 23.0664C87.08 19.2445 89.2531 15.5634 92.5364 13.5704ZM97.4259 16.5716C95.985 16.8061 94.6386 17.6033 93.7174 18.7053C91.4971 21.3313 91.4971 25.5283 93.741 28.1075C95.0166 29.6316 97.0716 30.4756 99.0557 30.2646C100.922 30.077 102.646 28.9047 103.567 27.2869C105.126 24.5436 104.866 20.8155 102.764 18.4239C101.465 16.9467 99.3864 16.2199 97.4259 16.5716Z" fill="#B8BCC2"/>
<path d="M114.551 14.8062C117.362 12.1562 121.695 11.257 125.302 12.653C128.721 13.9544 130.899 17.2433 132 20.6269C126.918 22.7564 121.859 24.8622 116.776 26.9917C117.479 28.3404 118.556 29.5708 120.008 30.0677C122.046 30.8012 124.482 30.5409 126.192 29.1685C126.871 28.648 127.409 27.9618 127.925 27.2993C129.213 28.1748 130.501 29.0266 131.789 29.902C129.962 32.6704 126.894 34.6106 123.592 34.9182C119.938 35.3678 116.05 33.9481 113.685 31.0614C109.797 26.5185 110.171 18.8996 114.551 14.8062ZM117.057 19.1835C116.261 20.3429 115.933 21.7626 115.956 23.1586C119.353 21.7389 122.749 20.3193 126.145 18.8759C125.583 17.5509 124.224 16.7464 122.842 16.5335C120.617 16.1312 118.299 17.3379 117.057 19.1835Z" fill="#B8BCC2"/>
</svg>
