<svg width="36" height="35" viewBox="0 0 36 35" fill="none" xmlns="http://www.w3.org/2000/svg">
<g filter="url(#filter0_dd_69_41)">
<path d="M30 18.6668H28.6666V9.3335C28.6666 8.27263 28.2452 7.25521 27.4951 6.50507C26.7449 5.75492 25.7275 5.3335 24.6666 5.3335H11.3333C10.2724 5.3335 9.25501 5.75492 8.50487 6.50507C7.75472 7.25521 7.33329 8.27263 7.33329 9.3335V18.6668H5.99996C5.64634 18.6668 5.3072 18.8073 5.05715 19.0574C4.8071 19.3074 4.66663 19.6465 4.66663 20.0002V22.6668C4.66663 23.7277 5.08805 24.7451 5.8382 25.4953C6.58834 26.2454 7.60576 26.6668 8.66663 26.6668H27.3333C28.3942 26.6668 29.4116 26.2454 30.1617 25.4953C30.9119 24.7451 31.3333 23.7277 31.3333 22.6668V20.0002C31.3333 19.6465 31.1928 19.3074 30.9428 19.0574C30.6927 18.8073 30.3536 18.6668 30 18.6668ZM9.99996 9.3335C9.99996 8.97987 10.1404 8.64074 10.3905 8.39069C10.6405 8.14064 10.9797 8.00016 11.3333 8.00016H24.6666C25.0202 8.00016 25.3594 8.14064 25.6094 8.39069C25.8595 8.64074 26 8.97987 26 9.3335V18.6668H9.99996V9.3335ZM28.6666 22.6668C28.6666 23.0205 28.5262 23.3596 28.2761 23.6096C28.0261 23.8597 27.6869 24.0002 27.3333 24.0002H8.66663C8.313 24.0002 7.97387 23.8597 7.72382 23.6096C7.47377 23.3596 7.33329 23.0205 7.33329 22.6668V21.3335H28.6666V22.6668Z" fill="#A53DFF"/>
</g>
<defs>
<filter id="filter0_dd_69_41" x="-2" y="0" width="40" height="40" filterUnits="userSpaceOnUse" color-interpolation-filters="sRGB">
<feFlood flood-opacity="0" result="BackgroundImageFix"/>
<feColorMatrix in="SourceAlpha" type="matrix" values="0 0 0 0 0 0 0 0 0 0 0 0 0 0 0 0 0 0 127 0" result="hardAlpha"/>
<feOffset dy="4"/>
<feGaussianBlur stdDeviation="2"/>
<feComposite in2="hardAlpha" operator="out"/>
<feColorMatrix type="matrix" values="0 0 0 0 0 0 0 0 0 0 0 0 0 0 0 0 0 0 0.25 0"/>
<feBlend mode="normal" in2="BackgroundImageFix" result="effect1_dropShadow_69_41"/>
<feColorMatrix in="SourceAlpha" type="matrix" values="0 0 0 0 0 0 0 0 0 0 0 0 0 0 0 0 0 0 127 0" result="hardAlpha"/>
<feOffset dy="4"/>
<feGaussianBlur stdDeviation="2"/>
<feComposite in2="hardAlpha" operator="out"/>
<feColorMatrix type="matrix" values="0 0 0 0 0 0 0 0 0 0 0 0 0 0 0 0 0 0 0.25 0"/>
<feBlend mode="normal" in2="effect1_dropShadow_69_41" result="effect2_dropShadow_69_41"/>
<feBlend mode="normal" in="SourceGraphic" in2="effect2_dropShadow_69_41" result="shape"/>
</filter>
</defs>
</svg>
