<?xml version="1.0" encoding="UTF-8"?>
<svg id="Ebene_1" data-name="Ebene 1" xmlns="http://www.w3.org/2000/svg" version="1.1" xmlns:xlink="http://www.w3.org/1999/xlink" viewBox="0 0 1190 80.9">
  <defs>
    <style>
      .cls-1 {
        fill: #9ed3e6;
      }

      .cls-1, .cls-2, .cls-3, .cls-4, .cls-5, .cls-6, .cls-7 {
        stroke-width: 0px;
      }

      .cls-2 {
        fill: #0f3d56;
      }

      .cls-3 {
        fill: #63adcc;
      }

      .cls-4, .cls-8 {
        fill: none;
      }

      .cls-9 {
        clip-path: url(#clippath);
      }

      .cls-5 {
        fill: #2e77a1;
      }

      .cls-6 {
        fill: #498499;
      }

      .cls-7 {
        fill: #135178;
      }

      .cls-8 {
        stroke: #283843;
        stroke-miterlimit: 10;
        stroke-width: 1.5px;
      }
    </style>
    <clipPath id="clippath">
      <rect class="cls-4" y="-26.8" width="1190" height="107.7"/>
    </clipPath>
  </defs>
  <g class="cls-9">
    <g>
      <path class="cls-7" d="M273.4,53.4s0-.2.1-.3c.4,0,.8.2,1.2.2h-1.3M293.6,55.9c-6.7-4.8-14.3-7.3-22.2-8.2.1-.6,0-1.2-.3-1.8-.5-.7-1.2-1.2-2.1-1.2-10.6.3-20.9,2.9-30.4,7.5-.4.3-.7.7-.9,1.1-3.9.7-7.7,1.6-11.4,2.6h-.2c-1.8.5-3.8.8-5.7,1.2-6.8-.2-13.6-.7-20.4-1.3-.3-.8-.8-1.4-1.6-1.6-6.9-2.5-13.9-4.6-21-6.2-.3,0-.5-.2-.8-.3h0c-1.4,0-2.7.8-2.9,2.2-.2,1.2.5,2.3,1.6,2.8.7.3,1.4.6,2.2.9-.4,1.3,0,2.9,1.6,3.4l7.8,2.3c.2.2.6.3.9.4.4,0,.9.2,1.3.3l4.9,1.4c5.6,2.4,11.1,4.9,17.3,5.1h.1c1.1.2,2.1.5,3.2.7,7.1,2.2,14.6,3.2,21.9,2.8.6.9,1.7,1.5,2.8,1.2,7.9-1.5,15.7-3.7,23.2-6.8h0c.7-.2,1.4-.4,2-.6,6,.4,12,.2,18-.4,2.5-.3,3.6-4.3.8-4.9.7,0,1.5,0,2.2.2.6,0,1.2,0,1.8-.4,1.1.5,2.1,1,3.1,1.5.3.2.6.4.9.6h0c2.8,1.3,4.9-2.7,2.4-4.5"/>
      <path class="cls-7" d="M124.1,48.3v.2s-.2-.2-.3-.3h.3M197,59v-.2c-.7-.2-1.4-.3-2.1-.5-4.3-1.2-8.7-2-13.2-2.4,1.2-1.2,1.1-3.6-1-4.1-.3,0-.6-.2-.9-.2.5-1.1.4-2.6-.8-3.4l-4.1-2.6-20.1-16.7c-.5-.4-1.2-.6-1.9-.6-.2-.2-.5-.3-.8-.4-.1,0-.3,0-.4-.1-.2-.1-.4-.2-.7-.3v-.2c-.3-1-1.3-1.8-2.4-1.8-6.5.1-7.2-1.8-13.3.8-5.5,2.3-15.1,9.6-21.1,10.4l-.6.2-.6.2c-2.8.5-1.9,3,.5,3.6.4.8,1.2,1.4,2.2,1.4h2.3v.2c-.7,0-1.2.4-1.8,1.1-2.6,3.1,2,6.7,4.6,8.8h0c-.2.9,0,1.8.6,2.4,3.4,3.2,7.3,5.9,11.4,8h.1c.3.4.8.6,1.2.7,1.4.7,2.9,1.3,4.4,1.8.1.2.2.4.4.6.4.4,1.1.7,1.7.7h1.1c.4,1,1.3,1.9,2.4,1.9,2.8,0,5.6-.2,8.4-.8l10.7-2.3c2.3-.4,4.6-.9,6.9-1.5l1.1-.2h.2c.6-.2,1-.5,1.3-.9,1.9-.3,3.7-.7,5.5-1.2l4.4.3h.4c4.3.5,8.6,1.2,12.8,2.3,1.3.3,2.7-.5,3-1.8.3-1.2-.4-2.4-1.5-2.9"/>
      <path class="cls-3" d="M360.4,35.1c-6-.3-12.1.2-18,1.3-5.7,1.5-11.2,3.5-16.5,6-1.2.7-1.6,2.2-.9,3.4s2.2,1.6,3.4.9c4.9-2.2,10-4.1,15.3-5.4,5.5-1,11.1-1.4,16.7-1.1,1.4,0,2.5-1.1,2.5-2.5s-1.1-2.5-2.5-2.5h0Z"/>
      <path class="cls-3" d="M391.9,42.7c-.6,0-1.2,0-1.9-.2-1.9-.5-3.5-1.5-4.9-2.9-.7-.7-1.5-.8-2.2-.7-.1,0-.2-.2-.4-.3-3.8-2.8-9.4-2.7-14-3-5.4-.3-10.8-.2-16.2.2-10.7.9-21.3,3.2-31.4,6.9-.5.2-1,.5-1.3,1-1.7.5-3.4,1-5,1.6-2.7-.2-5.4,0-8.1.3-.3-.3-.7-.6-1.3-.7l-5.8-1.2c-3.9-1-7.7-2.4-11.5-4-.1,0-.3-.3-.4-.4-3.3-2.5-6.8-4.5-10.4-6.2-.3-.2-.6-.3-.9-.5-.1-.6-.5-1.1-1-1.5-3.5-2.4-7.6-3.8-11.8-4.1h0c-.6-.2-1.1-.2-1.5,0-3.5,0-6.9.7-10.1,2.2-1.5.7-3.2,2-4.1,3.5-5.6,2.1-11,3.2-15.9,6.6-.1,0-.3,0-.4.2-.6.3-.9.4-1,.5-4.5,2.1-8.6,2.5-13.2,3.9-1.2.2-.8,0-2,.2l-1.3-.2c-.2-.7-1.9-.4-2.6-.7h0l-1.6-.4c-1-.3-2-.5-3-.7-.2-.2-.5-.3-.8-.4-3.8-.9-11.9-3.6-11.9-3.6-.3,0-12.6-2.4-13-2.3-1.1-1.3-4.5.7-5.4-.6-.9-1.4-3.1-1.5-4.1-.3-.4-.3-.8-.7-1.2-.9h0c-2.1,1-4.4,1.5-6.8,1.8.1.4.3.8.6,1.2,3.1,3.3,6.9,5.7,11.2,7.1h.1c.3,0,.6,0,.9.2h.8c2.4,2.3,5.3,4.6,9,5,.3,0,.7.6.9.5,2.5,1.2,4.9,2.3,7.7,2.8.2,0,1,.3,1.2.2,4.8,1.6,13.3,4.4,20.2,2.7.2,0,.9.3,1.1.3,2,0,3.8-.2,5.7-.5.2,0-.2-1.2,0-1.2.3,0,.7,0,1-.2,5-.7,9.9-2,14.6-3.9.2,0,.4-.2.6-.3,6.5-1,12.9-2.8,19-5.4.4.4,1,.8,1.6.8,4.7.3,9.4.5,14.1.4,4.1,1.7,8.2,3.5,12.3,5.4.2,0,.5.2.7.4h0c.6.3,1.1.3,1.6.2.1,0,.2.2.4.3,3.9,2.2,8,4.3,12.2,6.1l.4.2h0c.7.2,1.4.2,1.9,0,3.1,3.6,8,4.2,12.9,3.9,3,.5,6,.8,9.1.8h.5c5.4,0,10.7-.8,15.9-2.3v-.2h0c.9-.3,1.4-.9,1.6-1.7,4.4-1,8.7-2.3,13-3.7.6-.2,1.2-.3,1.8-.5h.4c.3,0,.5-.2.7-.4.6-.2,1.1-.4,1.7-.6.6-.2,1-.6,1.3-1.2,5.1-1.2,10.2-2.5,15.2-3.9h0c.8-.2,1.4-.7,1.6-1.3,4.2,0,8.4.2,12.6.7h0c3.2,0,3.1-4.8,0-5.1"/>
      <path class="cls-3" d="M312.2,55.5h0c-.2,0-.4,0-.6,0h.6Z"/>
      <path class="cls-3" d="M371.6,40.8h0"/>
      <path class="cls-7" d="M503.5,82.4v.6c.1,0,2-1.4,2-1.4-.4-.2-.8-.5-1.2-.7h-.1l-.3-.2-.5-.5-1.2,2,1.1.4c.2,0,.4,0,.6.2-.3,0,0,0,0,0h.3c.4.3.7.5,1,.7l.2.2.2.2s.3.3,0,0l1.4-1.8-6.1-.9c-.7-.2-1.4.2-1.5.9s.2,1.3.9,1.5l6.3,1.2c.5,0,1,0,1.3-.4s.4-.9.1-1.4c-.6-.8-1.4-1.5-2.3-2-.9-.4-1.8-.8-2.7-1-.7,0-1.3.3-1.5,1,0,.3,0,.7.2,1,.8.7,1.6,1.4,2.5,1.9.6.3,1.4,0,1.7-.5.1-.3.2-.6.1-.9v-.6c-.3-.7-1-1.1-1.7-.9-.6.2-1,.9-.9,1.5h.1Z"/>
      <path class="cls-3" d="M358.3,37.6c3-.2,6.1.2,8.9,1.2l.7-2.4c-7.5-1.6-15.5-3.2-23-.8-1.5.5-.9,2.9.7,2.4,7.1-2.3,14.5-.7,21.6.8.7.2,1.4-.2,1.5-.9s-.2-1.3-.9-1.5c-3.1-1-6.3-1.5-9.6-1.3-1.6,0-1.6,2.6,0,2.5"/>
      <path class="cls-7" d="M737.9,47.6c.7,0,1.2-.7,1.1-1.4,0-.6-.5-1-1.1-1.1-.7,0-1.2.7-1.1,1.4,0,.6.5,1,1.1,1.1"/>
      <path class="cls-7" d="M737.7,47.8l1,.7h.5c.3,0,.7,0,.9-.2,0,0,.2-.2.3-.3v-.3c.2-.2.2-.5,0-.7v-.3c-.2-.2-.4-.3-.6-.5l-1-.7h-1c-.2,0-.3,0-.4.2,0,0-.2.2-.3.3v.3c-.2.2-.2.5,0,.7v.3c.2.2.4.3.6.4h0Z"/>
      <path class="cls-7" d="M737.5,42.2h-5.9c-.2-.2-.5-.4-.9-.3l-4.3.4h-1.4l-4.2.4c-.7,0-1,.5-1.2,1-.2.3-.4.6-.3,1,0,.6.5,1,1.1,1.1,3.6.2,7.3,0,10.8-.5v.2c.2.3.4.5.7.6,1.3.2,2.6.3,3.9.2,1,0,1.4-1.1,1.1-1.8.3,0,.6-.2.9-.2,1.5-.3,1-2.3-.3-2.5"/>
      <path class="cls-7" d="M725.6,43.5c-8-.4-16-.4-23.9,0-.2-.3-.5-.6-1-.6h-4.5c-.2-.2-.5-.4-.8-.5-5.9-.7-11.8-.8-17.7-.5-1.6,0-1.6,2.6,0,2.5h2.8c0,.5.5.9,1.1,1h1.4c-.3.6,0,1.4.5,1.8-.9.2-1.9.5-2.8.8-.7.2-1,.9-.8,1.6,0,0,0,.2.2.3-1,.2-1.9.5-2.8.8-.7.2-1.5.3-2.2.5h0c-.5.2-.8.7-.8,1.2-.8.2-1.7.5-2.5.7-.7.2-1,1-.8,1.6s.8.9,1.4.8h0c2-.5,4-1.1,6-1.6l2.9-.8c3.7-.4,7.3-1.4,10.8-2.7,3.2-.8,6.4-1.5,9.6-2.1.5,0,.8-.5.8-.9h0c.2,0,.3-.2.5-.3,1.2,0,2.3,0,3.5-.2h.2c0,.7.5,1.1,1.1,1.2h1c5.5,0,11-.5,16.4-1.6h.5s.2,0,.3-.2c1.4-.3,1-2.4-.3-2.4"/>
      <path class="cls-7" d="M687.4,47.8c-.3-1.2-1.1-2.2-2.1-2.8-.5-1.6-1.7-2.9-3.4-3.4-.4,0-.8-.2-1.2-.3h0l-1-.2c-.8-.2-1.5-.3-2.3-.5-.4-1.1-1.1-2-2.1-2.7-4.7-2.7-10.5-2-15.6-1.7-1.5,0-3,.2-4.5.3-.2,0-.3,0-.5-.2-.4,0-.9,0-1.3-.2h-.3c-5.4-.9-10.7-.9-16-.2h-1c-.5,0-.9,0-1.3.2h-.5c-6.3.7-12.6,1.8-18.7,3.3-.5-.2-1.1-.2-1.7,0-7.1.8-14,2.8-20.4,5.9h-1.8l-10.9,3.6c-7.6,2.3-15.3,4.2-23.2,5.6-2.4.7-3.9,3-3.6,5.5.4,2.4,2.4,4.3,4.9,4.3,1.9.2,3.9.3,5.8.4.5,1.2,1.5,2.1,3.1,2.3l1.5.2v.2l4.3.4,38.7,5.4c1.8.4,3.6,0,4.9-1.4h2.1c2.3.2,4.6.3,6.9,0h1.7c.4,0,.8,0,1.2-.2,6.8-.5,13.5-1.4,20.1-2.8,6.7-1.4,14-3,19.1-7.8h0c4.3-1.4,8.4-3.2,12.2-5.8.8-.3,1.6-.6,2.4-.9.3,0,.6-.2.9-.2h0c2.6-.8,4.2-3.5,3.5-6.1"/>
      <path class="cls-3" d="M407.4,44.3l-1.6-.3-.7,4.9h2.2-.7c1,0,2,.3,2.9.7l-.6-.2.6-4.6c-.4.2-.8.3-1.2.3h.7-1.4.7c-.5,0-.9-.2-1.3-.4l.6.3c-.3,0-.6-.3-.9-.5l-1.3,4.7h1.2c.7,0,1.3-.3,1.8-.7.5-.5.7-1.1.7-1.8s-.3-1.3-.7-1.8c-.5-.4-1.1-.7-1.8-.7h-1.2c-.5,0-1.1.2-1.5.5s-.8.8-.9,1.3c-.1.4-.1.9,0,1.3.2.6.6,1.2,1.2,1.5,1.1.7,2.3,1.1,3.6,1.2h1.3c.6,0,1.3-.2,1.9-.4.4,0,.8-.2,1.2-.4.4-.4.6-.9.7-1.4,0-.4,0-.9-.2-1.3-.2-.5-.6-.9-1-1.2-1-.5-2.1-.8-3.1-1-1.1-.2-2.2-.3-3.3-.2-.7,0-1.3.3-1.8.7-.4.4-.6.9-.7,1.4,0,.6,0,1.1.3,1.6.3.6.9,1,1.5,1.1l1.6.3c.7.2,1.4,0,2-.2.5-.3,1-.9,1.1-1.5.2-.7.1-1.4-.3-2-.3-.6-.9-1-1.5-1.2h-.1Z"/>
      <path class="cls-7" d="M2,28.2c-1.6-.4-31.4-.2-69.1,4.8-18.8,2.5-34.8.3-39.2,0l-.5-1.9c-.9.3-1.8.5-2.8.7,0,0-1.6.2-.6,0h-1.4c-1.2.2-2.3.2-3.4.2-.6-.5-1.3-1-2.1-1.2h0l-1.2-.3-2.6-.6c-2.2-.8-4.6-1.4-7-1.6h-1.3l-2.8-.5h-.2c-1-.3-2.1-.2-3,.1-11.4-4.8-23.9-6.8-36.2-5.7-.4,0-.8,0-1.1.1h-.5c-5.6.5-11.1,1.9-16.2,4h-.6c-.5.1-1,.2-1.5.3-8.8,2-17.9,2.8-26.9,2.4-.4-.7-1.1-1.3-2.2-1.5-7.2-1.4-14.4-2.6-21.6-3.6-1.4-.4-2.7-.7-4.1-1-.5-.7-1.1-1.2-2-1.4-5.2-1.7-10.5-2.8-15.9-3.1-.4-.8-1.1-1.5-2.3-1.7-24.1-4.6-48.7-1-72.2,5.2h0c-.6.4-1.1.7-1.5,1.2-3.7-.4-7.5-.5-11.2-.1-2.2.2-4.4.4-6.6.6-.6-.7-1.5-1.2-2.8-1.3h0c-1,0-1.9,0-2.8-.1-.5-.3-1.2-.5-2.1-.5h-1.8c-.2.1-.5,0-.7-.1-.2,0-.3-.1-.5-.2h-.5c-2.6-.8-5.3-1.4-8-1.9-7.6-3.5-15.6-6-23.9-7.3h-.2c-9.5-5.2-20.6-4.8-31-2.5-.7-.3-1.4-.4-2.3-.3h0c-11.2,1.5-21.8,5.5-32.3,9.7-2.2-.2-4.5-.3-6.8-.5-4.8-.3-4.8,7.2,0,7.5h.6c.8,1.5,2.5,2.2,4.2,1.8,1.2-.5,2.5-.9,3.8-1.2,3.7.3,7.4.6,11.1,1,.3.1.6.3.9.3,2.2.5,4.4.9,6.7,1.3,7.5,2.8,15.1,5.5,22.7,7.8.4.3.8.6,1.4.7,1.6.4,3.1.8,4.7,1.1,4.5,1.3,8.9,2.6,13.4,3.7h.4c2.1.5,3.6-.5,4.2-1.9,11.2.7,22.4-3.2,33-7.3.8-.3,1.4-.8,1.9-1.4.4-.2.8-.4,1-.8,3.7-.3,7.4-.7,11.2-1,4.7-.5,9.4-.4,14,.3,3.2.6,6.3,1.5,9.5,2,.2.2.4.4.6.5,7.5,5,16,8.1,24.9,9.2,4.3.5,8.7.5,13,0,2.6-.3,6.2-.6,8.6-2.2,1.7-.3,3.3-.7,5-1.1,6.8-1.2,13.5-3.2,19.9-5.5h.5c.2,0,.3-.2.5-.3l7.1-.6c.9,0,1.6-.4,2.2-.9h.6c.4.3.9.5,1.5.7.3,0,.7,0,1,.2h.3c5,1,10,1.5,15.1,1.5s.7,0,1-.2c.3,0,.6,0,1,.2.1,2.6,2.3,4.7,5,4.7s1.6,0,2.5,0h0c5.5,5.6,13.4,5.8,20.6,4.3,7.6-1.6,15.1-3.7,22.7-5.7.4,0,.8-.2,1.1-.2h.2c1.2-.3,2-.9,2.6-1.6,7.2,0,14.3,1.1,21.2,3.2,1.2.4,2.2.2,3.1,0,2.1,1.2,4.2,2.3,6.3,3.4,7.2,3.5,15.4,5.8,23.2,2.9,1.3-.4,2.3-1.3,3-2.4,3.6-.3,7.1-1.1,10.6-2.2h0c1.2-.3,63.1,15.7,86.6,13.3,29-3,98.2-6.5,22.2-24.9"/>
      <path class="cls-3" d="M765,26.3c0-.2-.3-.4-.4-.6-1.3-.3-2.2-.4-3.8.2-.8.3-2.4-.4-3.1.2-.2.2-.4.4-.6.6-.2,0-.4-.1-.6-.1h-4c-1.5-.4-3.1-.5-4.6-.3h-.2c-.6-1.4-1.9-2.3-3.4-2.4-2.8-.4-5.7-.6-8.5-.7-.3-.1-.5-.2-.9-.3h-1.1c-2-.3-4-.5-6-.6-1.2-.1-2.3-.2-3.4-.1-6,0-12,.9-17.7,2.7-.2,0-.5,0-.8.1h-.3c-.5.2-1,.3-1.4.5l-4.5,1.2c-4,.2-8,.9-11.9,2.1-.3,0-.6.2-.8.4h-15.3c-.5,0-.9.2-1.3.3-4,0-7.9-.2-11.8-.5-.4-.4-.8-.7-1.3-.9v-.2c-.3,0-.7-.1-1.1-.2-3.9-1.2-7.9-1.8-12-1.7h-.4c-.5-.6-1.1-1.2-1.9-1.4-6.5-1.7-13.3-3.2-20-3-.7-.3-1.5-.4-2.3-.2l-1.6.2c-.2,0-.3-.1-.5-.2-19.6-3.8-38.4,3.8-56,11.4h-.2c-.2.2-.4.2-.6.3-.5.3-.9.7-1.2,1.2l-12.1,3.6h0c-.6-.4-1.3-.7-2-.7l-10.7-.4c-.8,0-1.4.2-2,.6-8.9-2.8-18-4.8-27.3-6.2-.4-.9-1.1-1.7-2.4-2-1.7-.5-3.5-.8-5.2-.9-4.4-.6-8.8-.9-13.2-.9-4.7-.3-9.4,0-14.1,1.3s-2.7,8,2,7.2h0c4-.7,7.5.2,11.5,0,1.3,0,2.9.4,4.2.6,4.9,2.2,10.2,3.1,15.4,4.1l.4-.6h0l.3.7c1,.2,1.8.9,2.5.4,6.9,2.2,13.7,2.4,20.8,3.7.5,0,1.2,1,1.7.9,1.9.6,3.4,1.1,5.3,1.3,1.4.5,2.4.7,3.8,1.2.6.2,1,.6,1.5.5.2,1.4,2,1.4,3.4,1.8,2.2.5,4.4.8,6.6,1h.8c.3,0,.6,0,.8.2,1.9.5,3.8,1,5.7,1.3,1.6.4,3.2-.2,4.1-1.5,4.3-.4,8.6-1.1,12.8-2,2.6-.6,5.6-.7,7.2-2.7.9-.2,2-.6,2.9-.8.4,0,.5,0,.9-.2h1.2c5.8-1.5,11-2.7,16.6-4.8.4-.2,1.2-.4,1.5-.7.4,0,.5-.2,1-.2h.4s.2,0,.2-.2l.2-.2,25.9-5.1c.9,0,1.6-.2,2.4-.2s1.4,0,1.8-.2c.3.2.8,0,1.2.2,11.6,2,22.9,3.2,34.6,3.3,7.5,2.5,15.1,4.1,23.1,4h1.9c3.5.6,5.9.8,9.4.7h1.3c2.9.4,5.4-.4,8.3,0,6,.7,13.3,2.6,18.2-1.6,2.4-.4,4.2-1.2,6.5-1.9,2.5-.4,4.9-1.3,7.4-2.1,5.5-1.7,10.7-4.7,15.8-7.3,1.2-.7,1.6-2.2.9-3.4"/>
      <path class="cls-3" d="M1174.4,31.4c6.4,0,6.4-10,0-10s-6.5,10,0,10"/>
      <path class="cls-7" d="M384.3,54h-.1.2M529.6,108.5v-.2c-1-.4-2-.8-3-1.4-2.5-1.6-4.6-3.6-6.2-6.1-.6-2.3-1.5-4.5-2.8-6.5-.6-.9-1.3-1.5-2.1-1.9-.9-1.9-2-3.8-3.2-5.6-1.3-2.1-4-3-6.2-2h-.1c-.7-.4-1.5-.8-2.2-1.2.5-.3.8-.8,1-1.3.3-1.1-.1-2.3-1.1-2.9-9.8-5.3-20.7-8.6-31.8-9.5h-1.1c-11.6-2.3-23.2-4.1-34.9-5.6-.3-.4-.7-.8-1.3-1h-.3l-.9-.4c-5.1-2-10.2-3.9-15.4-5.6-.2-.2-.4-.4-.7-.5-15.7-8-33.8-9.6-50.7-4.6h-.7c-1,.3-1.7,1.3-1.7,2.3-3.5,1.1-7,2.4-10.5,3.8-11.8,2.4-24,7-36.1,6.6-3.4-.7-6.8-1.4-10.2-1.9.1-1.2-.5-2.3-1.7-2.7-11.3-3.2-22.6-6.6-33.8-10.1-3.1-1-4.4,3.9-1.3,4.8,1.6.5,3.2,1,4.7,1.5,0,1.1.5,2.3,1.7,2.7.2,0,.4,0,.6.2h.4c7.9,2.9,15.8,5.5,23.9,7.8,4.1,1.2,8.2,2.3,12.4,3.4,3.8.9,7.5,2.1,11.3,1.1,8.4,3.2,17.2,5.2,26.2,5.6.3.2.6.3.9.4,8.2,3.2,17,3.5,25.6,4.7,7.9,1.4,15.5,3.7,22.9,6.8,2.8,1.9,5.5,4.1,8,6.6,4.6,4.6,8.9,9.7,14.9,12.5,5.8,2.7,12.3,3.5,18.6,2.4,7.5,2.7,15.1,4.8,23.2,5.5,8.7.7,17.6.6,26.4.7l24.9.5,2.5.2v-.2h0c.9,0,1.7-.3,2.4-.7.4,0,.8,0,1.1-.2,1.2.6,2.3,1.1,3.6,1.5,2.7.7,5.4-.8,6.1-3.5.7-2.6-.8-5.3-3.5-6.1"/>
      <path class="cls-7" d="M902.2,33l-1,.3v-.2h1ZM1212.3,41.2c-1.1-.5-2.4-.6-3.7,0h-1.9v1c-.5.3-1.1.6-1.6.9l-3,1.1c-.3,0-.7.2-1,.4-2.2.7-4.5,1.1-6.8,1.2-.9,0-1.8.3-2.5.8-9.2-1.3-18.4-2.9-27.6-4.9-.3-.2-.5-.3-.8-.5-.3-.4-.8-.8-1.2-1-11.6-7.5-24.6-12.3-38-14.2-2.7-1.1-5.6-1.8-8.6-2.1-2.3-.3-4.6,0-6.7.7-.3.2-.6.3-.9.5-4.7.2-9.4.7-14.2,1.6-.2,0-.3,0-.5.1-.8-.2-1.7-.3-2.6,0l-20.8,5.8c-.7.2-1.3.6-1.8,1-3.2-.5-6.4-.7-9.7-.6-.8-.6-1.8-.9-2.9-.9l-4.3-.2h-1.1c-.4-.6-.9-1.1-1.7-1.5-8.4-4.5-17.5-7-26.8-8.5-.6-.7-1.4-1.2-2.4-1.4-12.7-2.9-26-1.5-37.9,3.8-4.2.4-8.3,1.8-12,4-.5.3-1.1.6-1.7.9-.7-.1-1.5-.1-2.2,0-3.1.6-6.5,1.1-9.8,1-.4-.3-.8-.5-1.3-.6l-11.2-4.6c-.4-.8-1.1-1.5-1.8-1.9-.5-.3-.9-.5-1.4-.8,0,0,0-.1-.2-.2-1.9-1.6-4.1-2.8-6.3-3.8-.2-.3-.5-.6-.8-.9-2.9-2.3-6.4-2.4-10.1-2.6-2.6-.2-5.2-.3-7.8-.3-5.7.2-11.3,1.2-16.7,2.8-1.7.5-2.7,1.5-3.2,2.8-.6,0-1.3,0-2,.1-5,2.8-9.1,5.7-14.6,6.9-3.3.6-7,.3-10.3,1-.8-.6-1.8-1-3.1-1-2.9,0-5.8-.1-8.7-.5-.6-.6-1.3-1-2.2-1.3-7.3-2.7-14.7-5.2-22.2-7.6h0c-.2-.1-.4-.2-.6-.3-.3-.2-.6-.3-.9-.5-1.2-.6-2.5-1.2-3.8-1.5h-.2c-3.7-1.3-7.5-2.3-11.4-2.7-15.9-4.2-30.2,4-42.7,12.9-2.3.7-4.4,1.7-6.3,3.1-5.6,2.7-11,5.7-16.4,8.7-3.4.5-6.7,1.4-9.8,2.7-2.6.8-4.1,3.5-3.5,6.2.8,2.7,3.5,4.2,6.2,3.5,1.2-.5,2.4-.9,3.7-1.3,1.2.6,2.7.6,4.1,0,.9,1.5,2.5,2.5,4.2,2.5,3.8.5,7.6,1.2,11.3,2h.2l7.1,1.9c1.3.4,2.6.2,3.7-.4,3.6.7,7.3,1.2,11,1.7,6.8,1.7,13.9,2.2,20.9,1.7,10.8,1,21.6-1.1,32.3-3.5,1.8-.4,2.9-1.7,3.3-3.3,5.7-1,11.2-3.3,15.9-6.7.3-.2.7-.5.9-.8l5.6-1.7h.6c1.3-.4,2.3-1.3,2.9-2.3,1,0,1.9-.3,2.8-.4h.5c1.7,0,3.5-.2,4.4-1.5.7,0,1.1-.7,1.9-.8l9.4-2.1c1.1.6,2.5.8,3.8.5l3.6-.5c.3,0,.6-.2.9-.3h3.5c.2,0,.4,0,.6-.2.7,0,1.3-.3,2-.7h.2c.3.2.6.3.9.4.5,0,.9.2,1.3.3h0c8.5,1.7,16.7,4.3,24.5,8,1.1.6,2.2,1.2,3.2,1.7.4.9,1,1.7,1.9,2.3v.2c.5.3,1.1.5,1.8.8,3,1.5,6,2.9,9.1,4.2.4.6.9,1.1,1.5,1.6,1.8,1.1,3.8,1.8,5.8,2.2,5.7,2.2,11.5,3.9,17.7,3.9s1.3,0,1.9-.3c3.7,1.5,7.9.8,10.9-1.8,3.6-1,7.2-1.9,10.7-2.8,1.2-.3,2.1-1.1,2.7-2,2.8-.5,5.5-.8,8.4-.9,5.8.7,11.6.9,17.4.6.3,0,.5.3.8.4,5.7,1.8,11.1-.3,16.3-2.6.6-.4,1.1-.8,1.5-1.4,5.5-1.8,11.1-3.2,16.8-4.2.8,0,1.5-.5,2-1,3.6,0,7.2.4,10.7,1.5.5.4,1.1.7,1.8.9l3,.8h.4c.4.5.9,1,1.6,1.3l16.8,8.6c5.4,3.1,11,5.7,16.8,7.7,5.8,1.7,11.9,1.2,17.8.7,5.9-.3,11.7-1.7,17.1-4.1l8.5-1.4c2.9-.4,5.8-.8,8.8-1.4,1.1-.3,1.9-.9,2.6-1.8,3.7,0,7.5.5,11.2.4.6,0,1.1.3,1.6.2,6.3,2.2,12.3,3.9,18,7.4,2.7,1.7,5.3.5,6.5-1.6,1.7-.3,2.8-1.5,3.2-3v6.9h10.4v-24.8h-4.8l-.4-.2h0Z"/>
      <path class="cls-3" d="M532.2,65.6v.4c-.3,0-.5-.2-.8-.2,0-.8,0-1.5-.7-2l2,.7c-.2.3-.3.7-.4,1.1M527.3,62.9v-.3l1.6.6-1.7-.3h.1ZM510.1,57.5c-.3-.7-.8-1.3-1.6-1.5-1-.2-1.9-.5-2.9-.7-.3-.2-.6-.3-1-.4-1-.2-2.1-.2-3.1-.4-5.5-.9-11-1.2-16.5-.9-2.5,0-5.1,0-7.6.3.1,0,.2-.2.3-.4,5.5-.6,10.9-.9,16.4-1.2,1,0,2.2.6,3,0,4,1.5,7.6,2,11.5,3.4l7.3,2.7c-1.9-.3-3.9-.6-5.8-.9M454.2,62.3c1.8,0,3.6-.2,5.4-.5-.3.3-.4.6-.5,1-1.6-.2-3.2-.3-4.9-.5M419.8,51.6l6,1.3c.4,1.1,1.7,1.2,2.7,1.8l-8.7-3.1h0ZM474,56.7c0,.3.1.6.2.8l-3.3.8c1-.5,2.1-1,3.1-1.6M1204.1,66v4.7c-1.3-.4-2.7,0-3,1.5v-3.2c0-1.1-.5-1.7-1.2-2.1,0-.7-.4-1.3-1.1-1.9-10-8.4-23.1-8.4-35.3-6.2-12.8,2.4-25.4,5.4-38.1,8.3l-4.4-.9c-5.8-1.4-11.6-3-17.3-4.7-.2,0-.4-.2-.7-.3-1.6-.8-3.2-1.7-4.9-2.5-9.3-7.7-19.8-14.1-32.2-14.1s-19.6,3.7-28.6,8.3c-3.9.2-7.9.2-11.8.2-7.1,0-14.1-1.2-21.2-1.2s-13,3.4-19.7,5c-5.6,1.2-11.3,2-17.1,2.5-.4-.2-.8-.4-1.3-.6-4.9-1.2-9.7-2.6-14.4-4.2,0,0-.3-.2-.5-.3l-13.2-7.7c-.8-.4-1.5-.6-2.2-.6-9.3-5-19.5-8.2-29.9-9.5-8.8-1.1-19-1.3-27.5,1.9-.7,0-1.4.2-2.1.6,0,0-.2,0-.3.2l-2.4,1.1c-3.5.9-7,2.3-10.2,4-.6,0-1.2,0-1.8.2-8,3-15.7,6.6-23.1,10.8-3.1.8-6.1,1.7-9.1,2.7-1.2.3-2.4.6-3.6.8l-29.9.9c-.3-.2-.6-.3-1-.4h0l-.9-.2c-2.9-.5-5.8-1-8.7-1.2-.5-.4-1.1-.7-1.8-.9-6.4-1.6-12.9-3-19.5-4.1-3.1-.7-6.3-1.3-9.5-1.7-.3-.2-.7-.3-1.2-.3s-.9,0-1.4-.2h-.7c-2.6-.3-5.2-.6-7.8-.9-13.7-1.9-27.5-5.1-41.2-1.1-.2,0-.4,0-.5.2-6.5.5-12.7,2.6-18.2,6-.6.4-1.1.8-1.5,1.4-5.3,2.4-10.6,5.1-15.8,8l-17.7,6.1c-.4,0-.8.2-1.2.4-1-.7-2.4-1.1-3.9-.8-3.3.6-6.6,1.1-9.9,1.5-1.1-.7-2.5-.9-3.9-.5h0l-13.2,2.2c-.3,0-.5,0-.8.2-2,.2-4,.2-6,.4-5.3-.8-10.6-1.3-16-1.7-.6-.5-1.2-.9-2-1.1-7.4-2-14.9-3.2-22.5-3.7-.2,0-.3,0-.5-.2l-59.6-21.7c-11.6-4.2-23.7-9-36.1-10.5-.3,0-.7-.2-1-.3-.4,0-.9,0-1.3-.2h-.5c-10.3-1.4-20.8-.5-30.6,2.8h-.5c-1-.5-2.2-.7-3.4-.4l-8.1,1.6h-1.7l-4.2,1c-1,.3-1.9.9-2.5,1.7-.3,0-.6,0-1,.2h-.1l-4.6-.3c-2.8,0-7.3,3.6-7.4,6.3,0,2.7,4.6,3.6,7.4,3.7l-2.2.2c-1.5.9,4,4,6.3,4.8l1.7.6c.1.7.5,1.3,1.1,1.7,12.5,5.8,26,8.2,39.6,9.5.3,0,.6.2,1,.3l6.7.3c3.9.3,7.8.5,11.7.7.8,0,1.4-.2,1.8-.7,9.6,2.8,19,6.5,27.9,11.1h0c.8.4,1.5.4,2.1,0l4.8,2.2c-.7,0-1.3.3-2,.4-2,.6-3.1,2.7-2.5,4.7.5,1.6,1.9,2.6,3.5,2.7h.6v.2c-5.1,4.5-1.8,12.5,4,15,4.3,1.8,9.2,1.5,13.8,1.6h.9v18.5h682.7v-58.9h-13.1.2Z"/>
      <path class="cls-3" d="M1217.2,19.7h-9c-.3-.4-.6-.7-1-1-11.1-6.2-23.1-2-33.4,3.7-.3,0-.7,0-1,.1h-10c-2.1,0-4.1-.4-6.1-.9-6-3.1-12.9-4.6-19.4-6.1h0c-.4-.4-.8-.7-1.4-.9h0c-.3-.1-.6-.2-.9-.3-12.4-4.4-25.9-8.4-38.7-5-.2,0-.4-.1-.7-.1-8.2.1-16.3,2-23.7,5.4h-1.4c-9.2,2-18,5.3-26.2,9.9-1.8,1.1-2.3,3.4-1.2,5.2.7,1.1,1.8,1.8,3.1,1.8h1.3c1.3,0,2.2-.4,2.8-1.2,5.1,2,10.6,2.5,15.9,1.7,7.1-.9,14.2-2.1,21.2-3.8.8-.2,1.3-.5,1.8-1,11.3-1.7,22.5-3.9,34-3.5.8,0,1.5-.2,2.1-.6,8,2.4,15.9,5.3,23.6,8.8.3.3.6.5,1,.7l.8.4h0c1,.5,2.1.9,3.1,1.4l1.1.5c2.1.9,4.1,2,6.1,3,.3.2.7.4,1,.6,1,.6,2,1.1,3,1.7h0c.7.4,1.5.4,2.2.3,5.7,2.9,12,4.3,18.5,4.5,5.3,0,10.6-.5,15.8-1.5,2.6-.4,5-1.1,7.2-2.2h8.7v-21.5h-.2Z"/>
      <path class="cls-3" d="M58.5,88.4h0v.3c-.5.8-.9,1.6-1.1,2.7v1.8c-.8-2.2-1.2-4.6-.9-7h0v-.4c.5,0,1,0,1.5.2v.4c0,.3.2.5.3.7,0,0,0,.2.2.3v1M-68.9,55.5c-1.9-.9-3.8-1.7-5.7-2.4,0,0,.2-.3.3-.4,1.9.8,3.8,1.6,5.8,2.4,0,.2-.3.3-.4.5M-101.3,46.6c.8-.2,1.6-.4,2.4-.6h0c0,.2,0,0,0,0-.8,0-1.7.3-2.5.4M-157.9,45.2c0-.2-.2-.3-.3-.5.4,0,.8.3,1.2.4h-.9M-163,59.3h.5-.5M457.3,116.3v-1h-.9c-.5-.4-1.1-.8-1.9-1-13.1-3.6-26.2-7.5-39.2-11.6-.3-1.1-1-2.1-2.2-2.7l-1.5-.8c-5.9-5.2-12.8-9.1-20.2-11.5-6.2-2.4-12.7-3.8-19.3-4.1-.6-.4-1.3-.7-2.1-.7l-8.3-1.1c-1.9-.4-3.8-.7-5.7-.8-.2,0-.5-.2-.8-.3-.2-.2-.5-.4-.8-.6-1.9-1-4-1.2-6.1-.8-9.1-2.7-18.2-5.3-27.4-7.7-9.5-2.5-19.1-5.2-28.9-7.1-9.9-1.7-19.9-1.7-29.8,0-9.7,1.3-19.3,3.4-28.7,6.3-.9.3-1.6.7-2.1,1.3-.5-.4-1.1-.8-1.9-1-2.6-.5-5.2-.9-7.8-1.1-5.4-.9-10.9-1.9-16.2-3.2-7.6-1.8-15.3-4.9-23.2-4.9s-14.9,3.1-22.4,3.8c-7.5.7-15.2.5-22.5,2.8-1.7-.9-3.4-1.8-5-2.7-.4-.6-.9-1.1-1.6-1.5-2.2-1.7-4.4-3.2-6.6-4.8-5-6.7-12.6-10.5-20.5-13.2-.5-.4-1.2-.8-1.9-1-5.2-2-10.5-3.6-15.9-4.8-7.4-2.4-15-4.1-22.9-4.8-1.9-.2-3.2.7-4,1.9h-4.5c-7.9.4-15.8,1.7-23.4,4-3.9,1.2-7.6,2.8-11.5,4s-7.9,2.1-12,2.6c-9.9,1.3-19.6,2.7-29.4,4.7-.5,0-1,.3-1.4.6h-3.8c-.9-.9-2.1-1.5-3.5-1.5-5.8,0-11.6,0-17.3.2-.5-.5-1.2-.8-1.9-1.1-5-2-10.1-3.8-15.1-5.7-4.8-1.8-9.5-4-13.9-6.6-1.7-1-3.8-.8-5.3.3h-2.3c-.4-.3-.8-.5-1.3-.5h-3.4c-6-.7-12.2.2-17.8,2.7-4.6,2-9,5.1-13.8,6.8h-.8c-2.3,0-4.7.2-7,.5l-.2-.2c-5.8-4-12.2-6.9-19-8.7-.3-.6-.8-1-1.4-1.2-11.9-4.8-25.3-3.1-35.7,4.3-7.5,2.4-15.3,3.5-23.2,3.2-2.9-1.8-6-3.4-9.2-4.8-2.3-2.2-5-4-7.9-5.1-.3-.6-.8-1-1.5-1.2-.2,0-.4,0-.7-.2h0c-10.6-2.8-21.8-1.9-31.8,2.4-12,1.2-23.5,5.4-35.2,8.1-.3-.2-.6-.3-1-.4h-.5v-.2h-1c-4.9-.7-9.7-1.6-14.4-2.7-6.6-3.7-13.7-6.5-21.1-8.1h-.4c-.3-.3-.6-.5-1.1-.6h0c-.4-.2-.7-.2-1-.2-4.5-1.1-9.2-1.6-13.8-1.4-1.5,0-3,.4-4.4,1-5.5.7-10.8,2-15.9,4.1-6.2,1.7-12.1,4.1-17.9,6.9-2.2,0-4.5-.2-6.7-.3-.7,0-1.3.3-1.8.8-.4,0-.8-.2-1.2-.3-1.4-.3-2.7.6-2.9,2-.2,1.2.5,2.4,1.6,2.8h0c.7.2,1.3.4,2,.5,3.1.8,6.2,1.3,9.4,1.6h.9c.1,0,.3.2.4.2,29.4,7.6,61.2,11.1,90.3.6.8-.3,1.4-.9,1.6-1.7,10.5-2.5,20.8-6.1,31.4-7.5.6.4,1.3.6,2.1.4l3.4-1c.6-.2,1-.6,1.3-1,.2,0,.5.2.8.2h0c6.6,0,13.2,1.1,19.5,2.8l15.1,5.7c.5.2.9.2,1.4,0,6.3,3.1,12.5,6.3,18.6,9.9.8.5,1.6.5,2.2.2l18.9,7.7c7.6,3.1,15.3,6.6,23.7,6,.6,0,1-.3,1.4-.6,8.7,1.8,17.6,2,26.4-1.6h0c.2,0,.4-.2.5-.2.3,0,.6-.3.8-.5.9-.2,1.9-.4,2.8-.5h.2c.6,0,1-.4,1.3-.7,4.2-1,8.3-2.2,12.4-3.7,1-.3,1.5-1.2,1.7-2.1,4.3-1.3,8.5-2.7,12.7-4.2,4.1-.3,8.2-.4,12.3-.6h.5c5.7,2.2,11.2,5,16.3,8.3,4.5,2.9,10.5,6.3,15.3,2.7.6.8,1.5,1.4,2.5,1.7.5,0,.9,0,1.3.2h0c2.1.4,4.2.7,6.2,1,2-.9,4.1-1.5,6.2-1.9,3.7-.7,7.5-.8,11.3-.7,4.8,0,9.4,1.2,14,2.9,4.3,1.6,8.6,3.4,12.6,5.5,1.2.7,2.4,1.4,3.6,2.2,6.2.7,12.5,1.3,18.7,1.9.9,0,1.7.2,2.6.3,8.1.9,16.2,1.9,24.4,2.8,0,.2-.2.5-.2.8v1.4l-.3,4.9c2.4,0,4.9.5,7.2,1.1,2.8.7,5.8,1.5,8.3,3,4.6,2.9,8.1,7.1,11,11.6.6-.2,1.2-.5,1.8-.8.8-.5,1.2-1.4,1.2-2.3h.2c.4,0,.8,0,1.3.2.8.2,1.6.4,2.3.5.6,0,1.1,0,1.6-.2h5.4c.2.6.4,1.2.7,1.7.7,1.3,1.7,2.3,2.9,3,1,.5,2,.9,3.1,1.3.8.3,1.5.6,2.3.8,2.3.7,4.7.8,7,.4.8-.2,1.6-.7,2.2-1.2v13.4h347.8v-3.1c1-1.7,1-3.9,0-5.5"/>
      <path class="cls-7" d="M-230.6,57.8c-.8-.3-1.6-.7-2.4-1.1.9.2,1.8.4,2.7.6-.1.2-.2.3-.3.5M147.2,122.3c-7-2.8-14.4-4.5-22-4.8h-.8c-.2-.3-.4-.6-.7-.7-1.1-.2-2.1-.3-3.2-.2-.4,0-.7.2-.9.4-2.1-.3-4.3-.4-6.5-.4l-3.6-.7h-13.7c-.6-.7-1.4-1.3-2.4-1.6-2.2-.7-4.4-1.3-6.6-1.9-4.1-2.4-7.5-6.6-10.6-9.7s-1.6-1.5-2.4-2.2c0,0-.2-.2-.3-.2-1.8-3-4.3-5.4-7.2-7-3.7-2.7-8-4.5-12.5-5.3-1.9-.5-3.8.2-5.1,1.6h-.2c-.9,0-1.7.2-2.3.5h-.4c-5.7-.8-11.2-2.1-16.7-3.9l-.6-.3c-.5-.2-1-.4-1.5-.4-1.9-.6-3.7-1.3-5.6-2l-9.6-4.2-.5-.4h-.2c-.2,0-.4-.2-.6-.3-.1,0-.2-.2-.4-.3-.3-.5-.6-.9-1.1-1.3-6.3-4.1-13.2-7-20.5-8.6-.4-.3-.8-.6-1.4-.7-9.2-2.1-18.8-1.7-27.8,1.1-.3,0-.5.2-.8.4-3.5.6-6.9,1.3-10.3,2.2h-8.9s-.3-.3-.4-.4c-3.7-2.1-7.6-3.7-11.6-5-.2-.2-.4-.4-.7-.5-.2-1.2-.9-2.2-2.4-2.7h-.3c-16.2-4.9-32.4,1.6-47.2,7.9-.3,0-.6.3-.8.5l-9,2.5c-.7-.4-1.7-.7-2.7-.5-12.4,1.9-25.1,1.5-37.4-1.3h0l-7.5-2.6-11.1-4.1-.7-.3h0l-.9-.3c-.5-.2-1-.2-1.5-.2-6.5-4.3-13.5-7.8-20.7-10.5-.1,0-.3-.2-.5-.3-.3,0-.5-.2-.8-.4h0c-.1,0-.2,0-.4-.2-4.7-2.3-9.6-4-14.6-5.1-.2-1.2-1-2.2-2.6-2.6h0v-.2c-7.6-1.4-15.3-1.7-22.9-1-.6-.4-1.3-.7-2.2-.6-11.4.9-22.5,3.8-33,8.3l-12.6,3.5h0c-.5,0-1.1-.2-1.8,0l-26.3,4.2h-9.6c-8.8-1.1-17.6-2-26.4-2.8-.3-1.1-1.1-2-2.5-2.3-11.3-2.4-22.7-4.1-34.1-5-.7,0-1.3,0-1.8.4-.3-.2-.6-.4-1-.5-.3,0-.6-.2-.8-.3h-.2c-.3-.2-.6-.3-.9-.4v-.3l-4.2-.7c-.4,0-.7,0-1.1-.2-.4,0-.9-.2-1.3-.2h-.6c-.5-.6-1.1-1-1.8-1.2-.3,0-.6-.2-.9-.2v-.2h-.7c-6.3-1.7-12.7-2.6-19.2-2.6-.4-.2-.8-.3-1.3-.3h0c-.8-.2-1.7-.3-2.5-.3l-2.6-.3h-.7l-1.1-.2c-.4-.7-1.1-1.2-2-1.4-.3,0-.7,0-1-.2h-.1c-12.3-2.8-25-2.8-37.2.2h0c-.2,0-.4,0-.6.2-.4,0-.7-.2-1.1-.2-.8,0-1.6,0-2.4.2-.8-.5-1.7-.7-2.8-.5h0v-.2l-1.5.4c-13.1,2.2-25.9,5.8-38.1,10.9-4.2.7-8.3,1.9-12.3,3.5-.7-.3-1.6-.4-2.5,0-22.3,8-46,11.4-69.1,15.6-.4,0-.7.3-1,.5l-20.8,2.1h-.4l-16.7.9-5.3-.3c-.7,0-1.3,0-1.8.4h-13.2c-3.4-.2-6.9-.2-10.3-.2-1.7-.9-3.5-1.4-5.5-1.3-2,.3-4,1-5.8,2-.3,0-.5.2-.8.2-2.6.3-5.1.7-7.7,1.2h0c-3.6,0-7.1.8-10.5,2-2.1.7-3.6,2.6-3.7,4.8,0,2.2,1.5,4.2,3.7,4.8,8.5,2.2,17.2,2.6,25.8,2.3,2.9.2,5.8,0,8.7-.3,2,0,3.6-1.2,4.5-2.8,3,0,6,0,9-.2,15.5.3,31.1.3,46.7-.2h2.4c1.8-.2,3.2-1.6,3.5-3.3,2.3-.2,4.6-.5,6.8-.7,5.4.4,10.8.7,16.2.6h.2c5.9.9,11.9.6,17.7-.8.6.6,1.5,1,2.5.9,10.6-1.1,21.3-2.4,31-6.7,8.9-1,17.6-3.8,25.5-8.2.9-.5,1.4-1.2,1.7-1.9,5.2-2,10.3-4.2,15.2-6.7h.3c.2-.2.4-.3.6-.4h25.9c.9,0,1.7-.3,2.2-.7l8.8,2.3c5.5,3.7,11.5,6.5,17.8,8.5.5.5,1.1.9,1.8,1.1l5.5.8c3.1.6,6.2,1.1,9.4,1.3l1.7.2h1c1.2,0,2.2-.5,2.8-1.4,6.8.6,13.6-.8,19.7-3.8,2.8-.4,5.6-.9,8.4-1.5.8-.2,1.4-.6,1.8-1.1l7.9-1.2,8.3,1.8,2.7.6c.4,1.3,1.6,2.4,3.4,2.3h5.7c.5.6,1.1,1.2,1.9,1.4h.4c8.7,3,17.7,5.2,26.7,6.4.5,1.4,1.7,2.4,3.3,2.5h.4c10,1,20.2.2,30-2.4,10.4-1,20.6-4.6,29.5-10.5.4-.3.7-.6,1-1l3.4-1.2h.1c1.2-.5,2-1.4,2.4-2.6l12.6-2.1c1,.2,2.1.3,3.1.6.4,1.1,1.3,2.1,2.5,2.4,4.1,1.5,8.3,2.7,12.6,3.7l2.4,1.2c.2.3.5.5.9.7h0c6,3.2,11.9,6.5,17.8,9.8.1,1.1.8,2.1,1.8,2.7,4.1,2.6,8.3,5,12.6,7.3-1,2-.4,4.9,2.2,5.4.3,0,.7,0,1,.2h.4c1.2.2,2.5.4,3.7.6,5.8,4.2,13,7,19.5,9,.4,0,.8.2,1.1.3v.2c5.2.4,10.3,1.8,15.4,2.7,5.6,1,11.4,1.5,17.1,2,9.4.8,18.9,1,28.3-.4v-.2c.3-.6.4-1.3.4-1.9.6,0,1.2-.2,1.7-.3h.3c5.9-.2,11.8-.3,17.7-.6,10.6-.5,21.4-1.3,32-.4,10.4.9,20.3,3.4,30.2,6.6,10,3.2,20.4,5.3,30.6,7.9.5,0,1,.3,1.6.4,3.4,0,6.9.3,10.3.4l20.4,4.4h1.9l4.9,1.1h2v.7h63.6c13.3.2,26.7.2,40.2-.2h1.9c1.5.2,1.5-2,.3-2.4"/>
      <path class="cls-6" d="M370.6,44.8l-8.3,2,.5,2c4.7-1.6,9.8-2.1,14.7-1.5,3.8.5,7.7,1.4,11.4,0,1-.4,1-2-.3-2-16.2.2-32.3,2.6-47.8,7.1-.5,0-.9.6-.9,1.1s.6.9,1.1.9l8.5-.2c.5,0,1-.4,1-1s-.5-1-1-1l-8.5.2.3,2c15.4-4.5,31.3-7,47.3-7.2l-.3-2c-4.2,1.8-8.7,0-13.1-.2s-8.8.3-13,1.8c-.5,0-.9.7-.7,1.3s.7.9,1.3.7l8.3-2c1.2-.3.7-2.2-.5-2h0Z"/>
      <path class="cls-2" d="M123,52.2c.6,0,1-.4,1-1s-.4-1-1-1-1,.4-1,1,.4,1,1,1"/>
      <path class="cls-2" d="M205.1,63.3c-.5-.2-1.1-.3-1.6-.5.2-.4,0-.9-.4-1.1-2.5-1.1-5.2-1.9-7.9-2.3-2-.5-4.1-.6-6.1-.2h-2c-1.1,0-1.4,1.7-.3,2,.1.2.3.4.6.5,1.1.2,2.1.4,3.2.6h.3c4.5.8,8.9,1.8,13.3,3h.3c1.3.3,1.7-1.5.5-2"/>
      <path class="cls-2" d="M144.3,27.1l1.8-.2c.6,0,1-.5,1-1s-.4-1-1-1c-1.9-.2-3.9,0-5.7.5-.6.2-.9.7-.7,1.3.1.5.7.9,1.3.7h.8c0-.1.6-.1.6-.1h1.6c.6-.1,1-.6,1-1.1s-.4-1-1-1h-2.2c-.6.1-1,.6-1,1.1s.4,1,1,1h2.2v-2.1c-1.2,0-2.4.2-3.5.4l.5,2c.4-.1.9-.2,1.3-.3h3.9v-2l-1.8-.2c-.6,0-1,.5-1,1s.4,1,1,1"/>
      <path class="cls-2" d="M110,39.9h-3.6l.3,2,4.5-1.5c.6,0,.9-.7.7-1.3s-.7-.9-1.3-.7c-4.4.9-8.8,1.1-13.2.7-.6-.2-1.1.2-1.3.7-.2.6.2,1.1.7,1.3,4.8.4,9.6.2,14.3-.8l-.5-2-4.5,1.5c-.6,0-.9.6-.9,1.1s.6.9,1.1.9h3.6c.6,0,1-.4,1-1s-.4-1-1-1h.1Z"/>
      <path class="cls-2" d="M100.3,42.7l2.9,1.3.8-1.8c-2.5-.6-4.9-1.4-7.2-2.4-.5,0-1.1.2-1.2.7s.2,1.1.7,1.2c2.3,1,4.7,1.8,7.2,2.4.5,0,1.1-.2,1.2-.7,0-.4,0-.9-.4-1.1l-2.9-1.3c-.5-.3-1.1,0-1.4.4s0,1.1.4,1.4"/>
      <path class="cls-6" d="M32.4,38.3h0"/>
      <path class="cls-6" d="M193.7,47.4l-4.1-1-.5,2,7.8,1.4.3-2c-2.8-.2-5.7-.7-8.4-1.4-.6-.2-1.1.2-1.3.7-.1.6.2,1.1.7,1.3l4.4,1.7,2.1.8c.7.2,1.3.5,1.8,1l1.1-1.5c-6.6-1.2-12.8-3.8-18.3-7.6-.8-.6-1.6.4-1.5,1.1.2.8.7,1.4,1.4,1.7.9.6,1.9,1,2.8,1.5l6,3,.8-1.8c-3.6-1.1-6.9-2.7-10-4.8-1.1-.7-2,1-1,1.7,3.2,2.2,6.7,3.8,10.4,5,1.1.3,1.8-1.3.8-1.8-1.7-.8-3.3-1.6-5-2.5l-2.3-1.2c-.5-.3-1.9-.7-2-1.3l-1.5,1.1c5.6,4,12,6.6,18.8,7.8.8,0,1.7-.7,1.1-1.5-1.1-1.1-2.5-1.9-4-2.3l-5.5-2-.5,2c2.9.7,5.9,1.2,9,1.4.6,0,1.1-.3,1.1-.9s-.3-1.1-.9-1.1l-7.8-1.4c-1.2-.2-1.8,1.6-.5,2l4,1c1.3.3,1.8-1.6.5-2h.2,0Z"/>
      <path class="cls-6" d="M225.3,54.1h1l-.3-2.1c-2.1.6-4.3.9-6.5.9l.3,2c2.1-.4,4.1-1,6-1.8,1.8-.9,3.6-1.6,5.5-2.2,1.1-.2.8-2-.3-2-3.6,0-7.1,0-10.7.6l.5,2c2.1-.5,4.3-.8,6.5-.9,1.3,0,1.3-2.1,0-2-2.4.2-4.7.5-7.1,1-.6.2-.9.7-.7,1.3.1.6.7.9,1.3.7,3.4-.4,6.8-.6,10.1-.5l-.3-2c-1.9.6-3.7,1.3-5.5,2.2-1.9.8-3.9,1.4-5.9,1.8-1.1.2-.8,2,.3,2,2.4,0,4.7-.3,7-.9,1-.3.9-2-.3-2h-1c-.6,0-1,.5-1,1.1s.4,1,1,1h0v-.2h0Z"/>
      <path class="cls-6" d="M370.4,45.4v-.2h.8c-.3,0-.6,0-.9.2M351.1,53.1s-.1-.3-.3-.4h.2c0,.2.2.3.3.4h-.2ZM347.4,51.9c-.2,0-.3.3-.4.4h-.4v-.2c-.5.2-.9.3-1.3.4h-.2c.8-.3,1.6-.6,2.5-.9h0l-.2.2M191.7,47.1c1.4.3,2.8.6,4.3.8h-.2l-4.1-1h0v.2ZM391,45.5h0c-1.6-.4-3.2-.8-4.9-1.2-.2-.2-.7,0-1,0-.6,0-1-.3-1.6-.4-4.9-.8-9.8-1-14.7-.4-7.7.9-14.7,3.9-22,6.6-12.5,4.7-26.1,6.3-39.1,3.5l-4.5-1.1c-.9-.3-1.9-.6-2.8-.9-6.7-2.3-13.1-5.2-20-7.2-1.7-.6-2.2-.5-3.9-1-.4,0-1.6-.3-2.6-.7-5.8-1.1-11.2-1.3-17.2-1-7.8.6-14.9,3.3-22.4,5-8,1.6-16.3,1.9-24.4,1-16.3-1.3-30.9-3.6-44.4-13.3-.5-.4-2.2-.4-2.4,0h-.7c-1.1-.7-2.6,0-1.4.8,4.7,2.9,7.4,5.3,12.4,7.7,0,0,.9.7,1,.8.1,0,.5.3.6.3l.6.7,1.8.8c2.4,1.1,5.2.8,7.7,1.7,1,.4,2.1.8,3.1,1.2v.2l-.4,1.7c7,3,16.2,4.6,23.8,5.1,4.2,1,8.7,1,13,0,.1.8-.3,0-.3,0l.3-1c0,.8.6.8.7.7.6,0,1-1,1.2-.5.4,1.3.6.3.5,0l1.3-.3c1.4,0,1-.3,2.4-.5.1,0,.6-.3.7-.3h.7c0-.2.5-.2.6-.3,5.1-.6,8.8-2.5,13.8-3.9h1.1v-.3h.3c.5-.2,1-.2.9-.7-.1-.4,1.2-.4.8-.4s1.8-.3,1.4-.3c1.3-.3.5-.2,1.8-.5l4.9-1.1c.2,0,.9-.4,1-.5,1.3-.2,1.9,0,3.2,0s1.3-.3,2-.3c.1.4.2-.3.6-.2h0c.4,0,.8.2,1.2.2,2.4.3,4.9.7,7.3,1.2.4,0,.8,0,1-.3.5,0,1.1.2,1.6.3.6,0,.7.9.8.4.3,0,.6.7.9.7.8.4,1.8,0,2.7.5,0,.3.3,0,.7.3,5.6,2.5,10.8,6.3,16.6,8.4,1.9,1.2,4.2,1.8,6.2,2.6,0,.4.7.3,1.1.4v.2l.2.5h.6c4.2,1.3,8.3,2.4,12.6,2.8l.8.6h.6c.2,0,1.4-.3,1.6-.3,5.5.8,10.5-.4,16-1.6.5,0,1.1,0,1.1-.5l1.2-.3c.7-.2.8,0,1.5-.4,1.9-.5,3.2-.8,5-1.4l.5-.2h0l.5-.5c.1,0,1.8-.3,1.9-.3,2.8-.7,4.7-2.2,7.4-3.1,6.4-1.6,11.8-3.9,18-5.6l6-1h.8c.2.3,1.2-.4,1.6-.5.5,0,0-1.2.2-1.7,0-.2.1-.3,0-.5h2.7c1.7.3,3.4.7,5,1.2,1.2.4,1.8-1.5.5-2"/>
      <path class="cls-6" d="M298.6,54.5c-1.5-.7-2.9-1.5-4.2-2.4l-.8,1.8c2.6.6,4.8,2.5,7.6,3,.5,0,1.1-.2,1.2-.8.1-.4,0-.8-.4-1.1-2-1.5-4.2-2.7-6.5-3.7l-.8,1.8c1.6.7,3.1,1.4,4.6,2.2,1.1.6,2.1-1.1,1-1.7-1.7-.9-3.4-1.7-5.1-2.4-.5-.2-1.1,0-1.2.7-.1.5,0,.9.5,1.2,2.3,1,4.5,2.2,6.5,3.7l.8-1.8c-2.7-.6-4.9-2.4-7.6-3-.5,0-1,0-1.2.6s0,1,.4,1.2c1.3.9,2.7,1.8,4.2,2.4s1.1,0,1.4-.4c.3-.5.1-1.1-.4-1.4"/>
      <path class="cls-6" d="M392.2,44.9l-3.1.2c-.5,0-1,.4-1,1s.5,1,1,1c1.5,0,3,0,4.5.3l.3-2h-12.5c-.5,0-1,.4-1,1s.5,1,1,1l21.4,1.7c1.1,0-7.6-3.5-8.7-3.7-1.7-.2-3.3-.4-5-.4v2l3.1-.2c1.3,0,1.3-2,0-2h0Z"/>
      <path class="cls-6" d="M351.6,52.6c-2.2.3-4.4.8-6.5,1.5-.5.2-.9.7-.7,1.3s.7.9,1.3.7c1.2-.3,2.5-.6,3.7-.8l1.8-.3,1-.2h.4q.1,0,0,0l.2-1.6c-2.8,2-6.5,1.9-9.5,3.5l1,1.7c1.3-.8,2.8-1.2,4.3-1.3l-.5-1.9c-1.1.8-2.4,1.4-3.6,2s-1.2.5-1.8.7c-.3,0-.7.2-1,.3h-.5c-.2,0-.1-.3,0,.2l-.4,1.4c3.3-1.6,6.9-2.7,10.6-3.1,1.1-.2.9-2.1-.3-2-2.9.4-5.8,1-8.6,1.8-.5,0-.9.7-.7,1.3s.7.9,1.3.7c2.7-.8,5.4-1.3,8.1-1.7l-.3-2c-3.9.4-7.6,1.5-11,3.3-.5.3-.6.9-.4,1.4.9,1.6,3.4.4,4.6,0,1.7-.7,3.4-1.5,4.9-2.5.8-.5.6-2-.5-1.9-1.9,0-3.7.6-5.3,1.6-.5.3-.5.9-.2,1.4.3.4.8.5,1.2.3,3-1.6,6.7-1.5,9.5-3.5.5-.3.6-.9.4-1.4v-.2c-.6-.5-1.3-.6-2-.5l-2.3.4c-1.6.3-3.1.6-4.7,1l.5,2c1.9-.7,4-1.2,6-1.5.5,0,1-.4,1-1s-.5-1-1-1v-.2h.1-.1Z"/>
      <path class="cls-6" d="M499.4,70.2l-3.1-.5c-.5,0-1.1.2-1.3.7-.1.6.2,1.1.7,1.3,2,.6,3.9,1.4,5.7,2.4l.8-1.8-8-3-.5,2c8.1,2.6,15.9,6.3,23.1,10.8l.8-1.8c-1.5-.6-3-1.4-4.2-2.5l-1,1.7c1.9.8,3.6,1.8,5.3,3.1l1-1.7-5-2.3c-.8-.4-2,.5-1.4,1.4l1.8,2.6,1.4-1.4c-1.5-1.1-2.9-2.3-4.3-3.5-.8-.7-2.3.2-1.6,1.2l2.4,3.2,1.4-1.4c-1.5-.8-3-1.8-4.3-2.9-.8-.7-2.3.2-1.6,1.2l2.7,4,1.6-1.2-6.5-6.9c-.9-.9-2.3.5-1.4,1.4l6.5,6.9c.8.8,2.2-.3,1.6-1.2l-2.7-4-1.6,1.2c1.5,1.2,3.1,2.3,4.7,3.2.8.4,2-.5,1.4-1.4l-2.4-3.1-1.6,1.2c1.5,1.3,3.1,2.6,4.7,3.8.8.6,2-.6,1.4-1.4l-1.8-2.6-1.4,1.4,5,2.3c.5.3,1.1,0,1.4-.4.3-.5,0-1.1-.3-1.3-1.7-1.2-3.4-2.2-5.3-3.1-.5-.2-1.1,0-1.3.5-.2.4,0,.9.3,1.2,1.4,1.2,3,2.1,4.7,2.7.5,0,1.1-.2,1.2-.7,0-.4,0-.9-.5-1.1-7.4-4.7-15.4-8.5-23.7-11.2-1.2-.4-1.7,1.5-.5,2l8,3c1.1.4,1.8-1.3.8-1.8-2-1-4.1-1.9-6.2-2.6l-.5,2,3.1.5c1.3.2,1.8-1.7.5-2h.1-.1Z"/>
      <path class="cls-6" d="M431.1,55.6l-4.3-1.5-.5,2c3.5.7,7.3,1.4,9.8,4.2l1.2-1.6c-5.8-3.6-19-6.8-25.8-7.3-1.3,0,5.2,3.1,6.5,3.1,6.5.5,12.8,2.6,18.3,6,1,.6,3.2-.7,2.4-1.6-2.7-3.1-8.1-5.1-11.9-5.8-.5-.2-5.9-.7-6,0s5,3.1,5.5,3.2l4.3,1.5c1.2.4,2.3-2.6,1.1-3.1l-.5.9s-.1,0-.1,0Z"/>
      <path class="cls-2" d="M466,112.6l-1.7-.4c-3.7-1.3-7.3-2.6-11-4h0c.7,0,1.3.4,2,.6,4.4,1.5,8.7,2.8,13.2,4-.8,0-1.7-.2-2.5-.2M437.2,107.1c-.5-.2-1-.4-1.6-.6h0c.5.2,1,.3,1.5.5h0M423.2,99.4l-7.6-5.2,3,1.4c0,.3.2.6.5.8h0l.9.5c1.5,1,3,1.9,4.6,2.8-.4,0-.9-.2-1.3-.4M411.3,89.4c-2.3-1.1-4.6-2.3-6.9-3.5h.7c2.2,1.1,4.3,2.2,6.4,3.4h-.2M274.6,60.9h.4-.4M195.9,60.4c-1.6-.2-3.2-.3-4.9-.4-1.3,0-2.6-.3-3.9-.4,3,0,5.9.2,8.9.4v.4M177.1,59.8h-1.4,1.3M120.2,40.8l-.2-.4h.2v.3M535.3,122.3h0c-25.9-3.3-52-6.8-76.8-15-12.2-4.3-24-9.6-35.3-16-10.7-5.9-21.4-11.8-33.1-15.5-13.2-4.1-27.1-4.5-40.7-4.6-9-1.2-18-2.5-27-4.1-9.6-1.6-19.1-3.5-28.7-5.5-9-1.9-18.3-3.8-27.5-2.8-9.3,1-17.7,4.6-26.9,4.9-9.2.4-18.7-1.7-27.9-3.6-9.1-1.9-18.3-2.9-27.5-2.8-9.5.2-19,1.1-28.5.7-5.7-.2-11.4-1.1-16.8-2.7h0c-2.1-1.2-4.1-2.4-6-3.9-1.9-1.3-3.6-3-5.1-4.8-1.7-2.3-2.4-5.2-2.2-8,3.2-3.2,6.8-6,10.7-8.4,6.8-2.5,14.3-2.7,21,.5,1.1.6,2.2-1.2,1-1.7-5.1-2.4-10.7-3.1-16-2.3.3-.7-.1-1.6-1.1-1.5h0c-.3,0-.5.2-.8.3-3.9,1.2-7.4,3.1-10.6,5.6-.1,0-.2.2-.4.2-.3-.3-.7-.5-1.1-.4-3.1,1.6-5.5,3.4-8.9,4.4l-9,2.6-.2,1h-2.2c-.2,0-.3-.2-.5-.2h-.7c-.7,0-1.1-.2-1.6.2-.6,0-1.4.3-2,.2-1.8-.7-3.2.4-5.1,0-1.2-.3-2.3-.3-3.1-.5h-.4c-.6-.2-9.9-1-10-.5s7.2,2.5,7.7,2.7l.8.4c.2,0,.5.2.7.2.2.5,1.3.3,1.9.6s.4.2.7.3h.4c1,.4,2,.7,3,1,6.1,2.2,11.5,5.8,16.8,9.4-.5.4-.7,1.3,0,1.7,2.1.9,4.3,1.8,6.5,2.6,2.8,2,4.9,5,8.1,6.4,0,.3.9.5,1.3.7.3.2.5.3.8.4,0,.2,1.3.4,1.4.5,5,3.4,10.1,3.6,16.1,3.1.6,0,1.5.6,1.6,0,2.9,0,5.4-.6,8.1-1.5,2.2-.4,4.2-1.2,6.3-1.9l.4-.2h.7c.4,0,1.9,0,2-.3l7.2-2h2.7v-.2c.2,0,.5-.2.6-.4,3,0,6.1,0,9.1.2l11,1.2c.8,0,1.5.2,2.2.3h-.7c-1.1,0-1.4,1.8-.3,2h.4c3.1.6,6,1.7,9.1,2,.1.3.5-.2.8,0h.5c1.4.3,3,1.3,4.5,1.5.2.2.5.8.8.8,1,0,1.6-.2,2.6,0,1.7.2,2.9.6,4.6.7-.1.6,1.3.9,2,1.1l-.9-.3,1.9.3c9.5.8,19-.5,27.9-3.8l.7-.2.8-.3c1.1-.2,1.5-.1,2.6-.4.4,0,1.3-.2,1.7-.4.2,0,.5,0,.6-.2l.4-.2c.3,0,.5.2.6-.1l.6-.4,7.9-1.6.3-.2c1.7-.2,3.4-.7,5.2-.8h2.1c.5,0,.9,0,.9-.6s1.4.5,1.2.3c2.6.3,3.8-.2,6.4.4,2.9.6,5.5.8,8.3,1.4-.1.5.3.8.9,1l2.5.6,43.7,10.8c.5,0,1.2.6,1.3,0,.4,1.3.6.7.6.7l2.5.4s1,1.7.6,0c0,.6.2.2.7.3,1.5,0,2.9.6,4.4.7.2.3.9.2,1.3.3l11.5,2c.2.5.5.2,1.1.2l12.1.7h.3c7,1.8,13.9,3.8,20.6,6.1,4.7,3.7,9.5,7.3,14.6,10.4,0,.4.1.7.4,1,1.5,4.1,6.7,5.4,10.5,6.8,5,1.9,10.2,3.5,15.4,4.8.6.2,1.3.4,1.9.6h0c.7.2,1.4-.2,1.5-.9v-.5l15.4,4c.1,0,.3.2.5.3l3,.6,9.4,2.4h0c.4,0,.8,0,1-.2l11.4,2.4c.1.2.3.3.5.4h.4c8.4,1.9,17,2.8,25.6,2.4.6,0,1-.4,1.2-.9,7.3,1.1,14.7,2,22,3,1.6.2,1.6-2.3,0-2.5"/>
      <path class="cls-2" d="M843,46.9h.8l-.8.2M826.5,52.6h0c1-.4,2.1-.7,3.2-.9h0c-1.1.3-2.1.6-3.2.9M793,51.6h.2-.2M759.6,48.6h.8-.8M880.8,36.4l-9.7,1.7c-8.5,2.7-18.8,5.2-27.7,6-9.1,1.2-18.2,2.4-27.2,3.4-9.1,1.2-18.3,1.6-27.5,1.4-9.1-.3-18-2-27-2.8-10.7-.8-21.4-.5-32.1-.2-1.6,0-1.6,2.6,0,2.5,4.6,0,9.1-.2,13.7-.3.2.3.5.6,1,.6,9.7,1.1,19.3,2.9,28.8,5.2.2.2.3.3.6.3h.7c3.6.5,7.3,2,10.9,2.3,5.5,1.5,10.9,2.1,16.7,2.4l.8-.3-.8.3h1.6c.5,0,.7.4.9,0h1.3c7.3,0,13.3,0,20.3-1.7.7,0,1.6.3,1.5-.4h1c6.6-1,11.5-3,17.8-5.5.3,0,1.3-.2,1.4-.6l4.7-2.3c1,0,1.9-.3,2.8-.4h.2c1.6-.3,2.2-2.1.6-1.8,0,0-.5.5-.6.6.5-.2.8-.5,1.3-.7h.4l.5-.3c.3,0,.7-.4.9-.6,4.6-.8,7.4-2.5,11.8-4.1,1.5-.5,11.5-4.4,10-3.9"/>
      <path class="cls-2" d="M603.2,67.2h-.2.2M693.5,48.1h0c-21.8,5.4-42.2,15.2-64.9,16.9-22.3,1.7-44.4-2.4-66.2-7.3-.5-1.8-2.3-2.4-4-2.8,0-.2.2-.5.2-.8,0-.6-.5-1-1.1-1.1l-7.1-.5c0-.2-.3-.3-.5-.4-3.8-1.3-7.7-2.1-11.7-2.4-.2,0-.5-.2-.7-.2l-5.8-1.9h-.4c-5.1-1.6-10.2-3.3-15.3-5.1-1.5-.5-2.2,1.9-.7,2.4l7,2.6c-.2.5-.2,1.1.5,1.4,6.9,3.2,11.3,5.3,18.7,7.1.8.3,1.3.5,2.1.8l3,.8c0,.4,1.1.9,1.5,1.1,0,0,.3.4.4.4h0l1.3.5c1.2.4,2.6.7,3.9.9l1.2.4c.3,0,.8.2,1.1,0,.4,0,1,.8,1.4.8,0,.5,1.2.3,1.6.5,5.2,1.8,10,3,15.3,4.3h1.2l1.4.4c3.5.8,6.7,1.6,10.2,2.2,11.3,2.3,22.7,2.7,34.2,3.1.6,0,1.7.4,1.9,0,2,0,3.2,0,5.2-.2.3.3,2.2.5,2.6.4,1.1-.3,1.4-.6,2.5-.9,5.8-.7,11-1.5,16.6-3.2l1.5.3c.2,0,1.4-.6,1.6-.7.6-.2,1.4-.4,2-.6,1.2-.3.3,0,1.6-.5.2,0,1.2-.3,1.4-.5,4.2-1.4,7.1-2.8,11.1-4.6.3,0,1-.3,1.1-.5l1.9-.9s.5-.3.7-.3,1.1-.5,1.2-.6l4.2-2.3.9-.2h.3l.4-.3c.7-.3.6,0,.4-.6,4.9-1.6,15.1-6.5,20.1-7.8,1.6-.4-5.1-.7-6.6-.3"/>
      <path class="cls-2" d="M1218.4,59.2c-11.1.3-27.6-3.8-39-3.5-1.6-.3,3.8,2.7,5.4,3.2,3.2.6,6.5,1.1,9.7,1.6v.2c.3,3.6,4.8,5.1,7.7,5.3,1.8,0,3.1.2,4.9.2s1.1.3,1.4.2c2.7.4,4.5-.6,7.2-.6s1.3-.6,1.3-1.3,0-.2,0-.3l-.6-1.8c0-.2-.2-.5-.5-.6h2.6c.7,0,1.2-.7,1.1-1.4,0-.6-.5-1-1.1-1.1"/>
      <path class="cls-2" d="M1122,60.1h.7-.7ZM1039.1,47.5c-.6.2-1.2.3-1.8.4h0c.5,0,1,0,1.5-.3h.5M991.7,50.1l-1.4.3c.6-.2,1.2-.4,1.9-.5-.2,0-.3.2-.4.2M1177.2,55.6l-1.3-.6c-10.3-2.9-20.7,0-31,1.4-4.1.5-8.3.8-12.4.9-8-1.1-16-3.4-23.5-5.9-16.3-5.5-33.7-12.7-51.6-10.8-8.6,1-16.9,5.6-25.7,4.8-4.5-.4-8.9-2-13.3-2.6-4-.6-8-.5-12,.3-8.7,1.8-16.8,5.6-25.7,6.9-9.2,1.4-18.5.2-27-3.4-8.6-3.8-16.5-8.7-25.7-11.2-2.7-.7-5.5-1.3-8.3-1.7h-1c-6.4-.9-17.3-2.3-23.1,1-1.6.2,2.2,1.7,3.8,1.5,6.5-.9,13,.6,19.4,1.6,1.8.8,3.8,1.3,5.6,2.1l11.1,5.8c4.2,2.2,6.4,3.9,10.5,6.4l2.1.5c9,5.2,19.8,9.2,30,5.4.2,0,1.2-.2,1.3-.4,5-.4,9.1-2.2,14-3.8.3,0,.5,0,.6-.2,0,0,.8-.6.9-.6l10.9-1.9c1.3,0,2.3-.2,3.6,0,3.3,1.1,6.9.8,10.4,1,.3,0,.6,0,.8-.3,0,0,.4.9.5.9,5.1.4,10.3.4,14.9-1.7,2.8-.4,5.4-1.7,8.1-2.8,1.1-.4,3-.5,2.2-.9,2.1-.6,3.2-1.1,5.4-1.7,7.5-1.9,13.3-1.9,20.8-.8,0,.5,1.4.6,2,.8l1.2.7c4.8,2.1,8.9,3.9,13.6,6.1,0,.3.9.4,1.2.6,0,0,.2,0,.3.2h0c3.2,2,6.3,4.4,9.8,5.9,4.7,2.6,10.1,5,15.3,5.8,8.8,1.8,17.8.8,26.2-2.3,0,0,.9-.2,1.1-.3l.2.3s.5,0,.6-.2c.3,0,1.9-.5,2-.8,5.9-1.3,9.2-1.5,14.8-3.9.2,0,.4-.4.5-.5,4.8-.5,9.4-1,14.1.3.7.2,1.3-.2,1.5-.9s1.5-.4.8-.6"/>
      <path class="cls-2" d="M-11,108.9c-2-.9-4-1.7-6.1-2.5,2.8,1,5.5,2,8.2,3.1-.7-.2-1.4-.4-2.1-.6M-58.2,98.7c-1.8-.2-3.7-.4-5.5-.6v-.3c1.8.2,3.7.5,5.5.8v.2M-145.1,96.2c-1.6,0-3.1.2-4.7.3-.1-.2-.3-.3-.5-.4,3.8,0,7.6-.3,11.4-.6-2.1.2-4.1.4-6.2.6M-180,93.8c3.2.9,6.4,1.5,9.7,1.8h-4.8c-1.6-.7-3.2-1.3-4.9-1.8M36.2,122h0c-19.5-4.8-38-12.6-56.8-19.4s-38.3-12-58.6-12.7c-21.6-.7-43.1,2.5-64.7,3.6-10.6.6-21.7,1.1-32.2-1.2-8.3-2.1-16.3-5.4-23.5-10-15.7-9.2-30.6-21.1-49.3-22.9-1.6-.2-1.6,2.3,0,2.5,16.9,1.6,30.8,12.1,44.8,20.6,1.9,1.2,3.9,2.4,6,3.5-.8.3-1.3,1.3-.5,2,3,2.5,6.2,4.8,9.5,6.8,0,.4.3.8.8,1,.3,0,.6.2.9.3,10.8,7,23.6,10.2,36.4,9,14.6,1.7,29.7.2,44.4-1.5,6.5,0,13.1-.3,19.6-.6.5,0,.8-.4,1-.8,11.7.2,23.3.7,34.9,1.7,6.7,1.7,13.3,3.4,20,5.3,7.1,4.3,14.4,7.9,23,6.9h.5l12.4,2.9c.6,0,1.2-.3,1.4-.9l12.1,2.9h.5c.8.2,1.5-.5,1.6-1.2,5,1.6,10.1,3.1,15.2,4.4,1.6.4,2.2-2,.7-2.4"/>
      <path class="cls-6" d="M145.2,119.6c-4.9-4.1-10.6-7.4-16.6-9.7-6.5-2.5-13.3-3-20.1-4.2-6.9-1.4-13.2-5-18-10.2-4.3-4.6-9.1-8.7-14.2-12.4-10.8-7.2-23.5-11.1-36.5-11.4-3.5,0-7.1-.2-10.6-.5-3.9-.6-7.8-1.7-11.4-3.2-6.6-2.6-12.9-5.4-20-6.4-16.5-2.3-32.8,3-49,4.7-1.6.2-1.6,2.7,0,2.5,14.4-1.5,28.7-5.8,43.3-5.2,7.3.5,14.4,2.2,21.1,5.2,6,2.7,12.4,4.5,19,5.1,7.3.5,14.4.3,21.6,2,6.3,1.5,12.3,3.9,17.9,7.2,5.7,3.5,10.9,7.7,15.5,12.5,4,4.1,8.3,8.3,13.7,10.6,7,2.9,14.8,2.6,22.1,4.6,7.6,2,14.6,5.7,20.6,10.7,1.2,1,3-.7,1.8-1.8h-.2Z"/>
      <path class="cls-6" d="M115.2,112v-.5h-.6.9c0,.3.4.6.8.7h.2-1.4M137.3,116s-.1-.3-.2-.4c-.4-.3-.8-.6-1.3-.8h-.3c-1.6-.7-3.4-1-5.1-1.2-.1-.4-.4-.7-.8-.8h-.4v-.7c-4.1-.4-8.1-1.4-12.1-2.2h-2.3c-.2-.2-.3-.3-.6-.4h-.7v-.4c-.4,0-.8,0-1.3.2-1.5-.3-3-.5-4.5-.6-.8-.2-1.7-.4-2.6-.6-2.8-2.3-6.1-4.1-9.4-5.7-4.6-4.7-9.7-8.9-15.1-12.6-2.1-3.5-5.6-5.6-9.5-7.2-.8-.4-1.5-.7-2.2-1s0-.8-.8-1c0-.4-1.4-.7-2-.9-5.6-2.7-11.3-4.8-17.4-5.4-2.5-.5-4.6-.5-7.1-.7-.3,0-1.1-.3-1.3,0-1.4-.2-3,.4-4.4.3-.4,0-.8-.9-1-.5-2.8-.2-2.9-.4-5.7-.7,1.6-.8-2.2,0-2.4-.3-5.3-2.2-10.6-3.4-16.1-4.8-1.5-.5-3.6-1.6-5.2-1.9-4.2-2.2-9.4-1.5-14.2-1.9-1.9-.4-3.9-.6-5.9-.6-.8-.2-1.6-.4-2.5-.5-.7,0-1.3.3-1.5,1-.1.6.2,1.2.8,1.4.3.2.7.2,1,.3h.2c.1,0,.3.3.5.3h.4c1.2.3,2.4.6,3.6.8,2.9,1,5.7,2.1,8.7,3,.3,0-.5.7-.2.6.5.2,1.3.4,1.8.7,0,0,.6.4.7.5,3.3,1.8,6.8,2.8,10.1,4.5,4.2,2.9,8.8,5.1,13.6,6.9,5.3,2.9,10.9,5,17.2,5.1,1.1.2,2.2.4,3.2.5h.4v.6h4c2.8.3,5.7.4,8.5.2,4.3,2,8.8,3.6,13.2,5.2,1,1.1,2.3,2.2,3.6,3.2.7.6,1.3,1.2,2.1,1.8,0,.2,0,.4.2.6,3.9,5.2,8.8,9.5,14.3,12.8,4.7,2.8,10.8,5.3,16.2,3.3,1.4,0,2.8,0,4.1-.6h4.2c1.8,0,3.5.3,5.3.4,1.4.2,2.8.3,4.1.6,4.3.9,8.7,2.4,13.2,1.7.7-.2,1-.9.8-1.6"/>
      <path class="cls-6" d="M28.9,77.8c-1.8-.3-3.5-1-5.2-1.8l-.6,2.3c2.6.3,5.2.9,7.7,1.9,1.3.5,2.3-1.7,1-2.3-2.2-.9-4.4-1.7-6.7-2.4-.7-.2-1.4.2-1.5.9-.2.7.2,1.3.9,1.5,2.8,1.1,5.6,2.3,8.2,3.8,1.4.8,2.7-1.4,1.3-2.2-2.8-1.5-5.8-2.9-8.8-4l-.7,2.4c2,.6,4,1.3,6,2.1l1-2.3c-2.7-1.1-5.5-1.7-8.4-2-1.3,0-1.7,1.8-.6,2.3,1.8.9,3.8,1.6,5.8,2,.7.2,1.4-.2,1.5-.9s-.2-1.3-.9-1.5h0s0,.2,0,.2Z"/>
      <path class="cls-6" d="M569.6,100c-10.7,3.6-24,2.9-33-4.5-4-3.4-6.8-8-10.5-11.7-4-3.8-8.3-7.4-12.8-10.6-1.3-1-2.5,1.2-1.3,2.2,5.1,3.6,9.8,7.7,14.2,12.2,3.8,4.2,6.7,8.8,11.5,12,9.5,6,22.1,6.6,32.6,3.1s.9-2.9-.7-2.4h0s0-.3,0-.3Z"/>
      <path class="cls-6" d="M546,103.1s-.2-.2-.3-.3c-2.5-1.8-5.3-3.2-8.2-3.9h-.2c.5-.5.7-1.3.2-1.9l-.2-.2h0c-.2-.3-.5-.5-.7-.7-.7-.7-1.3-1.3-2-2,4.2,3.9,8.7,7.3,14.2,9.3l-2.8-.2h0ZM532.9,103h0M534.8,97.9c-.2,0-.4,0-.7-.2-.5-.6-1.1-1.1-1.7-1.6.8.6,1.5,1.2,2.3,1.8M530.2,94.4s-.3-.2-.4-.3v-.2c.2.2.5.5.8.7,0,0-.2-.2-.4-.2M522.4,82.1v-.3c2.2,2.1,4.4,4.4,6.6,6.6-2.2-2.2-4.4-4.3-6.7-6.4M497.8,72.1c-.6-.3-1.2-.6-1.8-.9l1.9.5v.4M457,66h.3-.3M556.4,103.7h-3.3s-.3-.2-.5-.2c0,0,.2-.3.2-.5,0-.6-.2-1.2-.8-1.4h0c-14-3.5-21.8-16.6-32.6-25.4-8.8-8-19.7-13.3-31.5-15-6.1-.9-12.3-.8-18.4.2-3.7.6-7.2.8-10.9,1.4-4.2.6-7.1.6-11.1-1-8.8-3.1-19-5.9-27.8-9.1l-.4-.2h0c-1.2-.3-2.7,2.1-1.7,2.7l.6.4h0l4.5,1.8.9.4,2.4,1.2c14.7,7.4,31.2,10.2,47.6,10.7h.5c.8,0,2.3.7,2.1,0h2.5c1.1.3,2.1,0,3.2.2,5.7,1.3,11.2,2.2,16.5,4.6.5.2,1.5,1.8,1.7,1.4,3.8,3.2,7.3,4.5,11.6,7.2h.4c1.6,2.6,3.3,5.1,5.2,7.5v.2c1.8,5.2,4.8,9.8,8.8,13.6.2.3.6.4.9.4,0,.4.4.8.8,1,7.3,3.1,15.5,3.5,23.2,1.2.5,0,.7-.5.8-.9h4.5v-.2h0c1.6,0,1.6-2.5,0-2.5"/>
      <path class="cls-6" d="M967.9,116.9c-1.6-.7-3.2-1.4-4.8-2.1h0c2,.8,3.9,1.6,5.9,2.4-.4,0-.7-.2-1.1-.2M903,88.6c.4,0,.8.3,1.2.4-.4,0-.7-.2-1.1-.3h0M902.3,97c-.3,0-.6-.2-.9-.4.3,0,.6.2.9.3h0M742.8,90.3h-.3c1.4-.4,2.8-.8,4.2-1.2h0c-1.3.4-2.6.8-3.9,1.3M700.1,100.8h.7-.6M668,104.9c-1.3,0-2.5-.2-3.8-.3h4.5s-.2.2-.2.3h-.5M1003.8,123h0c-30-1.9-55.7-19.1-82.6-30.3-27.9-11.9-57.7-18.7-88-20-14.9-.5-29.8.6-44.5,3.3-14.9,2.7-29.5,6.8-44.1,10.9-28.6,8-57.8,16.7-88,15.1-16.2-.9-32-4.8-48-7.5-13.5-2.3-27.8-3-40.4-8.9-3-1.4-5.8-3.1-8.5-5.1-1.3-1-2.5,1.2-1.3,2.2,1.7,1.2,3.4,2.3,5.2,3.4-1.2,0-1.5,2-.2,2.5l4.6,1.6c0,.2.2.3.4.4h.4c8.2,4.7,17.6,6.9,27.1,6.5.3,0,.6-.2.8-.4.7,0,1.3.2,2,.4l38.5,10.8h.3c.8.2,1.3-.4,1.5-1,1,.2,1.9.5,2.8.7l7.7,2.1c.5,0,.9,0,1.2-.4.7,0,1.4.2,2.1.4.2.2.5.4.8.4,13.7,1.5,27.6,1.3,41.2-.6h.2c8.9-.7,17.6-3.1,25.7-7.1.2,0,.3-.2.4-.4,8.4-2.3,16.8-5,24.9-8.1,7.3-1,14.6-2.4,21.7-4.2.5,0,.7-.5.8-.9,3.8-.5,7.7-.9,11.5-1.2,11.2.3,22.5.3,33.7,0,.7,0,1.2-.7,1.1-1.4,0-.3-.2-.5-.3-.7l20.2.5c11.1,1.3,22.1,3.2,32.9,5.8l26.9,7.8h.2c.5.2,1.1.5,1.6.7l17,7.8c.7.3,1.3,0,1.7-.5,2.3,1,4.7,1.9,7.1,2.7,3,1.1,6,2.2,9,3.3l.9.4h0c.4,0,.8,0,1-.3l1.2.4c10.1,4.2,20.5,7.5,31.2,9.9.2,0,.4,0,.6.2h0c.6,0,1.1,0,1.4-.6,1.2.3,2.3.6,3.5.8,4.9,1.4,9.9,2,15.2,1,.2,0,.3,0,.4-.2,2.8.3,5.7.5,8.6.6h.5c.6,0,1-.5,1-.9,2.2.3,4.4.5,6.6.6,1.6,0,1.6-2.4,0-2.5"/>
      <path class="cls-6" d="M1218.1,35.1c.7-.7.3-1.5-.4-1.8,0-.3,0-.7-.3-1-.4-.4-1-.5-1.5-.2-2.3,1.2-4.5,2.4-6.8,3.6-18.6,7.9-39.6-1.5-57.3-8.2-10.5-4.2-21.5-6.8-32.7-7.8-11.6-.7-22.9,1.1-34.3,3.2-13.4,2.7-27.1,3.9-40.7,2.9-1.6-.1-3.7,1.9-2.1,2.1.5,0,2.2.5,2.3.5,0,.2.7.4.9.5l.4.4c1.1.3,1.3.5,2.4.7.4.1,1,.5,1.4.6.2.2.7.3,1,.3l1,.2h.4c0,.1-.5,0-.4,0l1.6.4c.7.1,1.3.1,2,.3,0,.5.5,0,1.2,0h0c1.5,0,3.5,1,5,1s1.5-.4,2.4-.3c.4,0,1.3.4,1.5,0,3.6-.2,6.8-.8,10.3-1.3,3.2-.3,5.9-1.9,9.1-2.6.4,0,.8-.1,1.2-.2h0c.6-.2,1.8.3,1.8-.2,5.7-.7,10.5-2.6,16.1-3.9h.3c.9-.2,2.2.2,1.8-.5,3.3-.3,4.9-.5,8.3-.5,0,.6,1.1.1,1.9.2,6.6.5,13.2,1.7,19.5,3.7l7.4,2.7h.4l11.8,5.3c0,.4.2.8.6,1,5.8,3.2,12.1,5.5,18.5,7,.8.2,1.7.9,2.5,1.1,1.9.4,2.5.5,4.4.8,0,.6.7.5.7.5,0,.6,1,0,1.6.2,1.5,0,2.9.5,4.4.3v-.6l.7.8c4.2-.3,7.7-1.7,11.8-2.6h.7c.4,0,.7-.5.8-.9,3.1-.7,6.1-1.8,8.9-3.4.3.4.8.6,1.2.4l3.5-1.1c.4,0,.7-.2,1.1-.3l1.9-.6h0c0-.2.2-.2.2-.2,1.1-.5.6-2.2-.5-2.3"/>
      <path class="cls-1" d="M349.4,34.2l-8.5,2.3-.3.9c4.2-.6,8.5-.5,12.7.2l.3-2c-6.1-.3-12.2.5-18,2.2-.5.2-.9.7-.7,1.3.1.6.7.9,1.3.7l19.2-2.9c1.1-.2.8-2-.3-2-12.3,1-24.4,3.6-36.1,7.6-.5,0-.9.7-.7,1.3s.7.9,1.3.7l20.4-4-.5-2-20,5.8.8,1.8c3.2-1.3,6.5-2.4,9.9-3.3l-.8-1.8c-5.7,2.8-12,4.2-18.4,3.8l.3,2,35.7-9-.8-1.8c-6.4,3.2-13.7,4-20.6,5.4-7.4,1.4-15.5,4-23,2.6-1.2-.2-1.8,1.7-.5,2,7.7,1.4,15.6-.9,23.1-2.4s15.3-2.3,22.1-5.8c1-.5.3-2.1-.8-1.8l-35.7,9c-.5,0-.9.6-.9,1.1s.6.9,1.1.9c6.7.4,13.4-1,19.4-4s.3-2-.8-1.8c-3.5.9-7,2.1-10.4,3.5-1,.4-.3,2.1.8,1.8l20-5.8c.5-.2.9-.7.7-1.3-.1-.6-.7-.9-1.3-.7l-20.4,4,.5,2c11.5-3.9,23.5-6.4,35.6-7.5l-.3-2-19.2,2.9.5,2c5.7-1.7,11.6-2.3,17.5-2,1.1,0,1.4-1.8.3-2-4.5-.8-9.1,0-13.7.6-1.1,0-1,1.2.2,1.2l9-1.1c1.3-.2,1.3-2.2,0-2v.3-.9h0Z"/>
      <path class="cls-1" d="M394.2,44.2c-.4-.4-1-.7-1.5-.9h-.6c-.1,0,0-.4-.1-.5h-.4l.2.8c-.3-.2-.6-.3-.9-.6h-.4c-1.8-1.3-3.6-2.4-5.6-3.3-3.6-1.8-7.5-3.1-11.4-3.7-7.8-1.7-15.9-1.7-23.8-.2-4.2.8-8.4,1.8-12.5,3-4,1.5-8,3-12.1,4.2-4.3,1.4-8.7,2.3-13.2,2.5-4.4-.2-8.8-.9-13-2.1-4.2-1-7.4-3.3-11.3-5.3,0-.3-.6-.6-.9-.8-1.5-1-2.5-1.8-4.2-2.5-.6-1-2.1-1.9-3.2-2.3-1.1-.5-1.4-.8-2.6-1.1,0-.1-.8-.2-.8-.3,0-.5-.7-.5-1.2-.7-6.9-1.9-14.4-3.7-21.4-1-.3.1-.5.4-.6.7-.9.1-1.7.3-2.6.6-.5.1-.8.6-.8,1.1h-.3c-1.3.3-2.6.7-3.9,1.3-.4.2-1,0-1,.4-5.4,1.3-9.3,5.4-14.5,7.5-.5.3-1,.2-.8.7.3.5.7,0,1.2,0,9.4-5.7,20.6-7.8,31.6-6.9,11.5,1,22,6.2,32.7,9.9,10.3,3.6,21.1,5.6,31.8,2.3,5.1-1.6,10-3.7,15.1-5.2s10.3-2.4,15.5-2.9c11.5-1.3,23.2,1.1,33.3,6.8.6.5,1.3,1,1.9,1.5.4.4,2,1.3,2.3.9.8,0,3.1-1.3,2.3-2"/>
      <path class="cls-1" d="M579.7,95.9h-.7l-5.5-1c0-.2-.2-.5-.5-.6l-.4-.2v-.2c-.4,0-.8-.3-1.2-.5l-4.2-2.1h-.3c-.2-.2-.5-.3-.7-.2l-1.2-.9c0-.2,1.4-1.3,1.2-1.5-4.7-6.1-9.5-11.1-15.5-15.9l-1.2-.5h-.7c-3.1-2.5-6.4-3.9-9.7-6-.4-.3-.3-1.2-.7-.9-.8-.4-1.1-.3-1.9-.7l-.5-.5-2.4-1.2c-.8-.4-1.4-.7-2.3-1-6.1-3-12.8-4.3-19.2-6.4l-1.3-.5h-.1c-.5-.2-.9,0-1.1.5-8.2-2.3-16.6-3.4-25.1-2-4,0-7.9.3-11.4,2.4-.5.3-1.3,0-1,.5l-1.1.9c-5,2-8.2,5-13.6,5s-1,.4-1,1,.5,1,1,1c7.9,0,14.4-4.9,22-6.5,8.2-1.4,16.6-1.2,24.8.6,11.2,1.9,21.6,6.4,30.6,13.1,3.2,3,6.2,6.1,9,9.5,3.4,3.8,7.3,6.8,11.5,9.3,6.8,5.5,14.7,9.1,24,8.2,1.3,0,1.8-2.2.3-2.5"/>
      <path class="cls-1" d="M603.8,24.8h.6-.6M763.2,25.9h-.3c-.6.2-1.2.3-1.8.5h-3c0-.1-.2-.4-.2-.4,0-.6-1-.3-1.6-.4h-.2c-2.4,0-4.8-.2-7.2-.3-9.4-1.2-18.4-5-28-4.9-.7,0-1.1,0-1.2.6-.8,0-1.1,0-1.9.2h-.6s-.6,0-.7.4c-1.1.2-2,0-3.1.3-3.2.6-6.2,1.5-9.4,2.4v.7c-6.6.8-13.1,2.2-19.5,4.2h-.3c-.7.2-1.3-.3-1.1.4h-1.1c-1.8.3-1.5.2-3.3.3,0-.5-1,.3-1.6.2l-1.2-.2c-15.1-.6-28.6-4-43.2-7.9h-.6c-.9-.1-1.2-.1-2.1,0-4,.2-7.2-.9-11.2-.7-6.2-.4-12.4-.2-18.6.6-.3-.3-.7-.5-1.2-.4h-.5c-3.6.9-7.1,2-10.6,3.2-4.6,1-9.1,2.4-13.4,4.2h-.3s-.2.1-.3.2l-21.6,6s0,1.9-.4.5h-.6c-.6,0-.9-.4-.9.2l-6.5,1.6h-.7c-4.5.3-8.5-.8-13-1.4-.5,0-1.3,0-1.5.3-1.5-.3-2.5-.7-4.1-1.1-9.3-2.7-20.5-6.6-30-8.1-9.9-1.2-18.5.2-27.9,3.9-1.6.2-3.7,3-2.1,2.8,8.8-1.1,19-2.5,27.8-1.6,8.9,1.1,17.7,2.9,26.3,5.4,7.9,2.4,16.1,3.9,24.4,4.4,8.3,0,16.5-1.7,24.1-4.8,7.9-3.2,16-5.8,24.3-7.8,8.6-1.9,17.3-2.8,26.1-2.7,8.7,0,17.3,1.1,25.7,2.9,8.3,2.1,16.7,3.6,25.1,4.6,9.3.7,18.1-1.2,27-3.6,3-.8,5.9-1.6,8.9-2.2h.6c.2,0,.3-.1.5-.2.5-.1,1.1-.2,1.6-.3,5.2-.5,10.5-.8,15.7-.8s.6-.1.8-.3h1.6c10.6.8,21.4,3.9,32.1,2.8,2.3,0,4.5-.5,6.6-1.3h0l5.2-2.4c1.3-.6-4.4-.3-5.9,0"/>
      <path class="cls-1" d="M503.4,29.9l-9.2-2.8-.7,2.4c5.2.9,10.4,2.1,15.4,3.7l.7-2.4c-9.5-1.3-18.9-6.1-28.5-3.2-.7.2-1,.9-.8,1.6.2.5.6.8,1.1.9,3.9.3,7.7.4,11.6.2.7,0,1.2-.7,1.1-1.4,0-.6-.5-1-1.1-1.1h-20.4c-.7,0-1.2.7-1.1,1.4,0,.6.5,1,1.1,1.1h20.4v-2.5c-3.9.2-7.8,0-11.6-.2l.3,2.5c9.2-2.8,18.2,2,27.2,3.2.7,0,1.4-.3,1.5-1,.1-.6-.2-1.2-.8-1.4-5.1-1.6-10.2-2.8-15.5-3.6-.7-.2-1.4.2-1.5.9s.2,1.3.9,1.5l9.1,2.7c.7.2,1.4-.2,1.5-.9s-.2-1.3-.9-1.5h.2,0Z"/>
      <path class="cls-1" d="M1217.8,23.9c0-.1,0-.3-.2-.4v-.6c0-.5-.4-1-.9-1.2h-.3c-.2-.1-.4-.2-.6-.2-.2-.2-.4-.2-.6-.3v-.2h-3.9c-.8-.4-1.6-.7-2.3-1.1.2-.5,0-1.2-.5-1.5-7.2-3.5-13.9-5.4-21.6-3.6-.6.2-3.1.6-3.1,1-2.1.3-3.5,1.8-5.5,2.6-.6.2-1.9,0-1.8.6-1.8.5-2.6,1.7-4.4,2.2-3.1.6-6.2.9-9.3.7-6.4-.4-12.8-3-19-4.9-3.5-1-6.8-2.7-10.4-3.5-5.4-2.3-11-4.1-16.8-5-3.4-.7-6.5-1-10-1.2,0,.2-1-.2-1.8-.3-9.8.6-18.2,1.4-27.4,4.6-8.6,1.8-18.2,5.9-26.1,9.8-.3.2-.5.4-.6.7-2.6.5-4.3,2.5-6.9,2.9-1.4.2-2.1,1.1-.7.9,23.1-3.1,45.4-13.2,68.9-12,23.2,1.2,44.7,17.2,68.4,11.3,3.2-.8,6.4-2,9.7-2.5,3.4-.6,7-.4,10.3.6,5.4,1.4,10.8,3.6,16.4,2,.7-.2,1-.9.8-1.6"/>
      <path class="cls-1" d="M1149,64h0c.8-.3,1.5-.5,2.3-.8-.8.2-1.5.5-2.3.8M1128.2,69.3h1.3-1.2M1095.3,64h-.2M866,56.6c-.2,0-.5.2-.7.2h0c.2,0,.5-.2.7-.2M891.9,42.8h.2-.2M1217.1,72.6v-.3h0c.3-1.3.4-2.5,0-3.6-.2-.7-.9-1.1-1.6-.9-.2,0-.3,0-.4.2-.2-.2-.5-.4-.8-.4v-.2c-4.8,0-9.7,0-14.5-.2-.6-.4-1.1-.7-1.7-1.1-6.8-6.9-16.3-10.6-26.1-10-.8,0-2-.6-2,0-2.7-.2-4.7,1-7.4.9-.6,0-1,.4-1.1.8-2.6.2-4.6,1.1-7.2,1.5-.8,0-1.6,0-1.4.6-2.7.7-5.4,1.6-8,2.7-6.9,1.6-13.8,2.6-20.8,3.2-1.7,0-3.3-.3-5-.4-3.1-.3-5.2-1.1-8.3-1.6-.8-.2-1.3-.6-2.1-.8,0-.4-1.4-.4-1.9-.6-5.4-2.5-9.5-6-14.9-8.4,0,0-1.1-.6-1.1-.7-5.6-3.1-10.2-6.7-16.7-7.8,0-.2-.7-.9-1-.5,0-.4-.5,0-.9,0-9.8-2.2-20-1.2-28.8,3.6h-.4v.3s-.2-.2-.4-.2h0c-.3,0-.8.2-.9.4l-5.8,1.8c-1.6.3-3.7,1.5-2.1,1.3h0c-1.1.2-.8,0-1.9,0l-2,.7c0-.7-.2,0-1.1,0l-.2-.4-.2.5c-1.5.2-2.5-.8-4-.5h-2.7c0-.3-.9-.3-1.3-.4,0,0-.7.3-.8.2h0l-.8-.4c-7.5-1.8-14.9-1.2-22.2,1.1h-.4.4-.4c-1,.5-2.1.6-3.1.9-.5,0-.9.4-1.4.5v.5h0c-7.8,1.8-15.6,3.2-23.6,3.5-1.4-.2-2.8-.3-4.2-.3l-10.9-3.8c-5.9-3.1-11.4-4.9-17.5-9l-.3-.3-.4-.2c-.3,0,.3,0,0,0,0-.2-.4-.4-.7-.6,0,0-.5,0-.6-.2l-.3-.3-.6-.5c-3-1.5-4.8-2.3-7.9-3.2,0-.3-.3-.3-.6-.4l-.3-.4h-.7c-.7-.3-.2.4-.9.2.7-.6-1.6-.8-2.6-1.2-5.2-1.5-9.9-3-15.2-2.8-8-.6-16.1-1.2-23.6,1.5-4.9.8-8.7,2.4-13.1,4.6-.4-.5-1.9.9-2.4,1.3l-.3.2h0l-26.9,12s-1.5,0-1.6.2l-1.2.4c-1,.3-2.6.8-3.6,1.1l-10.9,2c-.8.2,1,2.1,1.3,2.7h-.2c-1.5.5-.9,3,.7,2.5l4.4-1.4c.2.4.5.7,1,.7h5.5c-21,2.3-42.2,1.1-62.8-3.6-11.3-2.6-22.4-6-34-7.5-10.5-1.5-21.2-.8-31.4,2-9.9,3.1-19.6,6.9-29,11.3-10.1,4.5-20.6,7.9-31.4,10.2-21.5,4.1-43.7,2.6-64.5-4.2-5.2-1.7-10.3-3.8-15.2-6.2-1.4-.7-3.2,1.9-1.7,2.6,19.1,9.2,40.6,13.2,61.8,12.5,10.6-.3,21-2,31.2-4.9,10.1-3.2,19.9-7.1,29.5-11.5,10.6-4.5,21.5-8.8,33-9.9,12-1.1,24,1.4,35.6,4.2,10.9,2.9,21.9,5.3,33.1,7,23,3.1,46.4,2,69-3.3,11.3-2.7,22.2-6.8,33.3-10.2s23.1-6.3,34.8-4.1c10.4,2,18.7,8.2,27.8,13.1,9.3,5.1,20,7,30.4,5.4,11.9-1.5,23.7-4.2,35.4-6.5,2.7-.5,5.4-1.1,8.1-1.6h0c9.5-2,19.2-4.1,28.7-4.6,12-.7,22,4.3,32.5,9.5,9.3,5,19.5,8,30,9,11.2.8,21.8-1.6,32.3-5.3,11.2-4,22.4-7.5,33.4-1,8,4.6,14.7,11.5,24.3,12.2,3.8.3,7.6-.8,10.6-3.2.9-.7.2-1.8-.6-2"/>
      <path class="cls-1" d="M700.6,53h0M832.7,63.2c0-.6-.5-1-1.1-1.1h-2c0-.7-.5-1.3-1.2-1.3h-3v-.5c0-.6-.5-1-1.1-1.1h.2l-16.3.4h-1.1l-21.8-2.7-13.4-2.8c-4.4-.9-8.9-2.4-13.7-2.6,0-.2-.7.2-.9,0h-.3l-4.6-.7h-.9c-5.2-1.2-10-2.7-15.3-3.1l-1.9-.3c0-.2-.6,0-.9,0,0,0-.2-.2-.3-.3h0l-.7.3c-9-1.1-16.5-1.8-25.3.2.3-.8-2-.3-3-.2-11.4,1.8-21.4,7.6-31.6,12.9l-13.2,6c-.2,0-.9.7-1.2.7-9.3,1.5-18.5,3.6-27.6,6.2v-1l.5.2h-.9c-5.6-.4-11,.5-16.6.9l-2.9-.7h-1c-.3,0-.5-.2-.8,0h-2.4c-.3,0-.6-.5-.9-.5l-16.1-2c-9.6-1.7-24.2-5-33.3-8.7-1.5-.6,2.8,3.7,4.3,4.3,8.5,3.4,17.3,6,26.3,7.7,0,0,.2.2.4.2h.6c4.6,1.1,8.7,2.5,13.4,3,7.1,2.2,15.1,2.4,22.5,1.6h.3c.5,0,1.2.7,1.3.3.4,0,1-.2,1.4-.2,9.1,0,16-.7,24.8-3.2h1.2c.4-.1,1.3,0,1.4-.4l.6-.6c.3,0,1.3,0,1.6-.1l1.2-.7c5.8-1.2,9.8-1.6,15-4.6h.7c0,.1,0-.9,0-1.1.2,0,1.1,0,1.2-.2,1-.3,1-.5,2.1-.9.3.2,1.6-.4.7-1.4,6.3-1.3,13.1-3,18.3-6.8l11.6-3.7c1.3-.3,2.3-1.3,3.6-1.6h.2l5.6-.7,32.5,2.9c.5,0,1,.2,1.5.2h.4c.3,0,.7,1.2.9,1,4.3,1.2,11.8,2.8,11.9,2.8l1.3.2.6-.2s.3.2.4.2l15.3,2.3,3.3.8h0c.3,0,.5-.2.7-.3l1.5.3,2.8.7h0c.2,0,.4,0,.6-.2h.5l2.2.2c5.5.6,11.1,1,16.6,1.3l3.2.2v-.2c.2,0,.3,0,.5-.2h18.2v-.2c.6-.2,1-.7.9-1.3"/>
      <path class="cls-1" d="M564.5,65.9c-20-8.5-40-17-60.7-23.7-10-3.5-20.6-5.1-31.2-5.8-10.4-.4-20.9.4-31.1,2.4-6,1.1-11.9,2.5-17.8,4-2.9.8-5.9,1.6-8.8,2.5-1.6.5-7.1,3-8.3,1l-.5,1.7c4-1.9,8.2-3.4,12.5-4.4,1.6-.4.9-2.7-.7-2.4-4.9.8-9.7,2.2-14.3,4.1-1.2.5-.5,2.4.6,2.3,4.4,0,8.8-1,12.9-2.7.7-.2,1-.9.9-1.5s-.9-1.1-1.5-.9l-16.6,3.3c-1.6.4,1.8,2.6,3.3,2.3,8.9-1.6,17.6-3.7,26.2-6.2.6-.2,1-1,.7-1.6-.2-.6-.8-.9-1.4-.8l-14.3,3.5c-1.3.3-1.1,2.6.3,2.5,8.4-.7,16.6-2.7,24.4-5.7,1.2-.5,1.2-2.6-.3-2.5-7.4.8-14.7,2.2-21.9,4.3-.7.2-1,.9-.9,1.5.2.7.9,1.1,1.5.9l31.6-5.9c1.6-.3.9-2.6-.7-2.4l-15.2,2c-1.4.2-1.1,2.6.3,2.5,9.6-1.1,19.2-1.8,28.8-2.2.7,0,1.2-.7,1.1-1.4,0-.6-.5-1-1.1-1.1l-11-1,.3,2.5c6.7-.9,13.6-.9,20.3,0l.3-2.5c-9.2-1.1-18.5-2.1-27.5.6-1.3.4-1.1,2.6.3,2.5,15.1-1.8,30.5-.5,45.1,3.7.7,0,1.3-.3,1.5-1,.1-.6-.2-1.2-.8-1.4-14.8-4.2-30.4-5.4-45.7-3.6l.3,2.4c8.8-2.6,17.9-1.6,26.8-.5,1.4.2,1.7-2.3.3-2.5-7.2-1-14.5-1-21.6,0-1.5.2-1,2.3.3,2.5l11,1v-2.5c-9.6.4-19.2,1.1-28.8,2.2l.3,2.4,15.2-2-.7-2.4-31.6,5.9.7,2.4c6.9-2,14-3.4,21.2-4.2l-.3-2.5c-7.6,3-15.6,4.9-23.8,5.7l.3,2.5,14.3-3.5-.7-2.4c-8.6,2.5-17.4,4.6-26.3,6.2l.7,2.4,14-3.2-.7-2.4c-3.9,1.6-8,2.5-12.2,2.6l-.7,3.9c4.4-1.8,10.3-4.7,15-5.5l-.7-2.6c-4.5,1.1-8.9,2.6-13.1,4.7-.6.4-.8,1.1-.4,1.7,1.9,3.2,6,1.7,8.8.8,5.4-1.6,10.8-3.1,16.2-4.5,10.8-2.8,22-4.6,33.1-5.1,11.1-.4,22.3.9,33,4,10.8,3.1,21.4,7,32,10.9,12,4.5,23.9,9.2,35.7,14.3,1.5.6,2.7-1.5,1.3-2.2h-.2.7Z"/>
      <path class="cls-1" d="M430.1,113.7c-.5,0-1-.3-1.5-.4l1.5.3v.2M422.7,110.9c-.8-.4-1.5-.8-2.3-1.3.8.4,1.6.7,2.4,1,0,0-.1.2-.1.3M365.1,85.1h.5l4.4.8c-1.6-.2-3.2-.5-4.9-.7M191.1,69h.6-.8.2M167.2,71.5h-.5c.2,0,.3,0,.5-.2M-71,49.3h0M-89.1,44.6v-.2c.6.2,1.1.3,1.7.5-.6,0-1.2-.2-1.8-.3M-134,49.7c-2.5-.3-5-.9-7.5-1.7,5.1,1.3,10.3,1.7,15.6,1.3-2.7.4-5.4.5-8.1.4M-153.2,43.3c.7.2,1.3.4,2,.6.2,0,.3.2.5.3-.8-.3-1.6-.6-2.4-.9M-160.7,41.2c-.6,0-1.2,0-1.8-.2h1.2c1.1.3,2.1.6,3.2.9-.9-.2-1.8-.5-2.7-.7M-183.2,44.9l.7-.3c.3,0,.5-.2.8-.3h0c-.5.2-1,.4-1.6.5M510.7,122.2h0l-41.5-3.4c0-.4-.3-.8-.9-1h0c-1.9-.5-3.7-1-5.6-1.5h-.7c-.2,0-.5,0-.7-.2-3.2-.7-6.4-1.4-9.6-1.9-.2,0-.4-.3-.7-.3-1.3,0-2.6-.3-4-.4-7.3-.9-14.6-2.1-21.5-4.5h0c-1-.7-2.1-1.4-3.2-2-4.8-3-9.5-6.4-13.9-10,0,0,0-.2-.1-.2-4.2-6.5-12-8.6-19-10.3l-31.1-6.7c-.7-.2-1-.7-1.2,0-.1.4-1.3-.5-1.1-.2l-1.3-.2c0-.3-.5.5-.9.4l-21.1-4.8c-.9-.4-1.8-.6-2-.7-5.5-2.2-9.8-2.4-15.7-3.6-.5,0-1.1-.6-1.3-.3-.2,0-.6-.3-.7-.3.2,0-.9,0-.8-.2.1-.5-.2-.4-.7-.6h0c-9.6-3.1-18.5-5.8-28.5-6.1-.2-.4-1.6-.2-2.1-.2h-5.1c-2.8,0-6.1,1-8.9,1.7-1.4,0-3.1,1.4-4.5,1.4s-1.6-.3-1.4.3h-.5.5-.5c-.4,0-1.1,0-1.2.4-4.5,1.3-7.5,2.3-12.1,3.3-3.2.9-6.7.7-9.9,1.6-6.6,0-12-.5-18.5-1.9-.4,0-1-.5-1.2-.2-.1,0-1.1,0-1.2-.2-3.2-.8-4.6-1.6-7.8-2.2,0-.3-1.4-.3-1.7-.5-.5-.3-1-.5-1.6-.7,0-.2-1.1-.3-1.2-.3-10.5-3-21.2-4.2-32.6-1.7-1.5.4-3.4,1.1-4.8,1.6-6.6,1.1-12.9,2.3-19.5,3-.1,0-.6.3-.7.3l-.8-.5c-6.3-1.2-11-3-16.4-6.3l-4.2-4.3c-.2-.2-.9-.7-1.1-.9l-1.1-.3-.8-.7c-.2-.2-.5-.9-.7-.8-.7-.5-1.8-1-2.4-1.5-10.6-8.3-23.2-12.9-36.5-15,0,0-.7-.3-.8-.3-8-2.1-16-2.6-24.3-1.7-.2-.2-1,.4-1.3.4-8.2.8-16.6,1.9-24.3,4.9-2,.5-3.9.9-5.9,1.5h-.2l-.5.3.5-.3c-.2,0-1.9,0-1.1.6-1.2.4-2.1.3-3.3.7-.2,0-1.1-.2-1.2,0l-10.5,3.1c-6.1,1-10.9,2.8-17.1,2-1.3-.2-2.6,1.2-1.3,1.3h2.9c-2.6.5-5.2.9-7.8,1.3-5.1.3-10.2.2-15.2-.8-.7,0-1.1.3-1.2.9-11.5-.7-22.9-2.2-34.1-4.5,0-.5-.2-1.1-.8-1.3h0c-.7-.3-1.4-.5-2.1-.7-1.5-.5-3-1-4.6-1.5-2.3-1.1-4.7-2.2-7-3-.5-.3-1-.5-1.5-.7v-.4c0-.5-.4-1-.9-1.1h-.4c-3.8-1.1-7.8-1.2-11.7-.3h-.5c-.4,0-.7.4-.8.7-7,.5-13.8,2.3-20.1,5.4h0c-5.7,1.3-11.6,2.1-17.4,1.7-.1,0-.3-.3-.5-.3-2.4-.8-4.9-1.6-7.3-2.4-8.6-3.7-17.1-9.4-26.3-7.5-.3-.3-.7-.5-1.2-.3h0l-.5.2-31.2,10c-5,0-10.1-.6-15-1.8h-.1c-1-.4-2.1-.8-3.1-1.3.7-.5,1-1.7,0-2.1-.1,0-.2,0-.3-.2h0c-.1,0-.3,0-.4-.2-1-.5-2-1-3.1-1.5,0-.5-.2-1.1-.8-1.3h-.2c0-.4-.4-.9-.8-1h-.4c-6-2.3-12.5-3.4-18.9-3.2h-1.1c-.4.2-.7.5-.9.8-6,0-12,.9-17.6,3.1-.7.2-1.4.5-2.1.7h0c-.1,0-.2.2-.3.2-.3,0-.5.4-.5.6-9.5,1.7-18.9,4-28.3,4.9-1.6.2-1.6,2.7,0,2.5,20.1-2,40.8-10.6,61.1-5.7,9.2,2.2,17.4,7.5,26.8,9.4s17.5-.9,26.1-3.8c4.3-1.6,8.8-2.6,13.4-3,4.7,0,9.3,1,13.5,2.9,4.3,1.9,8.6,3.6,13.1,5,4.4,1.1,8.9,1.4,13.3.7,10-1.4,19.3-5.8,29.6-5.6s20.2,4.1,30.2,6.8c20.3,5.5,41.4,4.1,61.9.3,4.6-.6,9.1-1.4,13.7-2.1,13.6-1.9,27.4-2.7,41.2-2.3,13.7.2,27.3,1.9,40.6,4.9,12.3,3,23.4,8.5,34.9,13.9,10.3,4.8,21,9.1,32.6,8.7,12.5-.4,24.3-5.1,36.8-5.9,13.1-.8,25.4,5,38.4,5.7,6.4.3,12.8-.2,19-1.5,6.7-1.4,13.2-3.7,20-4.5,20.4-2.5,39.4,6.8,59.1,10.3,8.2,2.3,16.5,4.2,24.9,5.7,12,2,24.6,2.9,36,7.5,6,2.6,11.5,6.1,16.4,10.3,4.4,3.9,9.2,7.1,14.4,9.8,5.8,2.4,11.8,3.9,18,4.6,6.9.9,13.8,1.5,20.7,2.1l48.7,4.1c1.6,0,1.6-2.4,0-2.5"/>
      <path class="cls-1" d="M-104.5,110.7h.2c.2,0,.4,0,.6-.2,3.7,0,7.4.2,11.2.2h-11.9M-79.3,110.4c3.3.2,6.5.5,9.8.8-3.6,0-7.2-.2-10.8-.3h.2c.3,0,.7-.2.8-.5M-285,73.7c1.1-.5,2.2-1.1,3.3-1.6,1-.3,1.9-.7,2.9-1.1.1,0,.3.2.5.2-1.4.4-2.8.9-4.2,1.5-.9.3-1.7.7-2.6,1M-320.4,84.2c.8,0,1.6-.3,2.4-.4h.8c2.6-.2,5.2-.4,7.8-.9-2.3.6-4.6,1-6.9,1.3-1.4.2-2.8.2-4.1.3M-372,74.7c.2-.2.4-.4.4-.7l5,1.7c.7.2,1.1,0,1.4-.6l2.9.7c0,.2.1.4.3.5v.7c-3.3-.8-6.6-1.6-9.9-2.3M-446.9,76.8v.2c-1.4-.5-2.8-1-4.2-1.6h.2c1.3.6,2.6,1.1,4,1.6M-381.2,70.5l3.5.8s.1.3.2.4c-1.7-.3-3.3-.7-5-1.1.4,0,.8,0,1.2-.2M-251.7,67.7c.2,0,.5,0,.7.2h.1-.9v-.2M-611.5,89.9h0l2,.2h-2M31.1,125.7h0c-18.1-4.4-36.3-7.8-54.8-10.4-1-.5-2-.9-2.9-1.4,0-.5-.2-.9-.9-1.1h0c-.5-.2-1-.2-1.5-.3l-2.8-.6c-6.3-2.3-12.7-3.9-19.3-4.8-.2-.2-.5-.4-.8-.4h0c0-.3-.4-.5-.8-.6-5.1-.7-10.3-1.1-15.4-1.4-8.7-2.2-17.4-.5-26.2.9-1.3,0-2.6.3-3.9.5h-4.6c-.3,0-.5.2-.7.3h-.6c-7-.7-14-.5-21,.4-.2-.3-.5-.6-1-.6-5.9.5-11.7.7-17.6.8-11.4-1-22.8-2.7-34-5.2-.5,0-1,0-1.3.4-3.6-1.4-7.1-3-10.6-4.7.7-.4,1-1.4.2-2h-.1l-2.2-1.3c-9-6.5-18.5-12.1-28.5-16.8,0-.3-.2-.7-.6-.9-2.9-2-6-3.8-9.1-5.4-4.6-3.4-9.7-5.9-15.1-7.4v-.2c0-.6-.5-1-1.1-1.1h-1.2c-6.4-3.2-13.9-3-20.2.5-.3-.6-1.1-1.1-1.8-.7-2.1,1.2-4.2,2.3-6.3,3.5-3.4,1.2-6.6,2.8-9.7,4.7-.2,0-.3.3-.4.5-4.2,2.1-8.5,4-12.9,5.5-.3,0-.6-.2-.9,0-7.3,1.5-14.8,2.3-22.2,2.5h-.2c-7.9-.5-15.8-1.3-23.7-2.2l-5.4-.9c-1.6-.3-3.1-.6-4.7-.9l-.6-.2c-2.2-1.1-4.5-2.1-6.8-2.9-.1,0-.3-.2-.5-.3v-.2c-2.5-.9-5.1-1.6-7.7-2.2h0c-.5-.2-1.1-.3-1.6-.4-.1,0-.2-.2-.4-.3h-.3v-.2c-.4-.2-.8-.3-1.3-.4-6.3-2.8-13.4-3.6-20.2-2.1h-.5v.2h-.4c-.3,0-.5.2-.6.4-.4,0-.7,0-1.1.2v-.2c-.3-.4-.8-.7-1.3-.5-6.4,1.6-12.7,3.6-18.9,6.1-5.2.8-10.5,1.5-15.8,1.8-4.8-1-9.6-2.2-14.4-3.4-3.8-1.9-7.8-3.7-11.8-5.2.4-.5.3-1.3-.4-1.6h-.3c-8.2-4-17.2-6.1-26.3-6v-.2c-.2-.6-.8-.9-1.4-.8h-.2c-6,1.3-11.8,3.1-17.4,5.5-1.3.4-2.6.9-3.8,1.3l-.5.2h0c-.4.2-.6.5-.7.8-2.8,1.3-5.5,2.8-8.1,4.4-.4.3-.6.8-.5,1.3-1.5.7-3,1.4-4.4,2.2-.2-.4-.7-.7-1.3-.5h0l-.7.3c-9.4,3.6-19,6.7-28.6,9.5h-.2c-17.6,3-35.5,4.1-53.3,3.4-1-.2-2.1-.3-3.1-.5-4.2-1.3-8.5-2-12.8-2.2-.2,0-.4-.2-.6-.2-10-.8-20.1,0-29.8,2.5-4.4-.4-8.8,0-13,1-5.6,1-11.3,1.8-17,2.5-10.8,1.2-21.7,1.8-32.5,1.8s-.5.2-.7.3c-3.8-.4-7.6-1-11.4-1.6-1.6-.2-2.3,2.2-.7,2.4,14.6,2.5,29.4,3.4,44.1,2.7,4.2-.3,8.4-.8,12.5-1.3.2.2.6.2.9.2,24.8-4.4,50,0,74.8,1,11.6.6,23.3-.2,34.7-2.5,11-2.4,21.1-7.3,31.1-12.3,10-5.1,19.8-10.4,30.6-13.2,11.2-2.8,23.2-1.4,33.4,4.2,9.5,4.8,18.6,10.9,29.4,12.2,11.8,1.4,23.5-2.4,35-4.7,12.3-2.2,24.9-1.7,36.9,1.4,11.2,2.6,22.2,6.1,33.7,7.6,10.9,1.6,22,.4,32.4-3.4,10.9-4,21.3-9.7,32.9-11.5,21.6-3.4,41.3,8.6,59.1,19,8.9,5.5,18.1,10.3,27.6,14.5,11,4.4,22.6,7,34.3,7.8,12.7.8,25.5,1,38.3.5,13.2-.2,26.5,0,39.7.5,14.4.7,28.8,2.1,43.1,4,.8.2,1.5.5,2.3.7.4,0,.8,0,1-.3,11.2,1.6,22.3,3.5,33.4,5.8,6.4,1.3,12.8,2.8,19.2,4.4,1.6.4,2.2-2,.7-2.4"/>
      <path class="cls-5" d="M1217,41.4h0c0-.2,0-.4-.3-.5-.4-.6-1.2-.8-1.7-.4-.2,0-.3.2-.4.4-.3,0-.6,0-.9.3v.2l-2.8.9h-.8l-5,1.9c-.4.2-.6.4-.7.7l-5,1.3c-.2,0-.5-.2-.7,0-.8,0-1.6.2-2.3.2s-.4-.2-.7-.2c-5,.3-10,.2-14.9-.3h-.2c-5.7-1.4-10.8-3.8-16.3-5.7-1.3-.6-3-.7-4.3-1.2-4.5-1.8-7.3-4.2-12-5.7.4-.6-1.4-.6-2.2-1,0,0-.3,0-.4-.2h-.2c-2.4-1.1-4-2.2-6.5-2.9,0-.6-1.2-.9-1.8-1.1h0c-.8-.3-1.6-.5-2.4-.8-1.1-.3-2.1-1.4-3.2-1.6-9.5-2.4-19.3-4.2-28.8-1.2-1.1,0-2.4.8-3.5.8s-1.6,0-1.6.6l-.7.3c-2.2.2-3.3.9-5.5,1.2-.4,0-.7.3-.8.6-2.9,0-4.8,1.4-7.6,1.6-1.6,0-2.6,1.1-1,1.1,2.6,0-5.7.2-3.1.2-1.7.3-.9,0-2.6.3-6.9,1.2-5.4,1.1-12.4,1.4-3.5,0-5.6-.2-9.1-.5,0-.5-1.5-.4-2.2-.6h0v.4l-4.1-1.4-5.3-1.7c0-.1-1.4-.6-1.7-.6h-.8l-.7-.6c0-.2-1.3-.5-1.6-.6-1.3-.5-2.4-.7-3.7-1.2,0-.4-1.1-.7-1.5-.8-3.6-1.5-6.6-3-10.4-3.8,0-.1-.9-.2-1.1-.3l-.6-.2c-9.8-2.4-20.2-4.5-29.8-.2-.2,0-1.5,0-1.7.1-4.8.5-8.2,2.6-12.7,4.3-.2,0-.3,0-.5.1-.2,0-.4.2-.5.3-1.3.5-2.6,1-3.9,1.6-.5.2-1,.2-1,.6-3.6.8-6.9,2.1-10.6,2.7-2,.3-3-.3-5-.4,0-.5-1.1-.3-1.8-.4-.9-.2-1.8-.5-2.7-.8h0l-.4-.2h0c-2.3-1.4-4.6-2.7-6.9-3.9h0c-2.9-2.2-5.2-4.9-8.6-6.3-7.1-4.1-16.7-5.9-24.6-3.8-5.4.4-10.4,3.4-15.2,6l-9,3.5c-.7.2-1.8.4-1.6,1,0,.2-.2.3,0,.4-4.9,1.3-9.8,2.2-14.9,2.8-3.8.3-6.9-.7-10.7-1.2,0-.5-1-.2-1.5-.4-5.5-1.5-10.2-3.9-15.6-5.6,0-.2-.5-.4-.6-.6h-.3v.9s-.4-1.2-.4-1.3c-8.5-4.1-18.2-8.3-28.3-8.2.2-.4.7-.3.5-.6s-1.1-.1-1.5-.1c-9.1-1-18.2.5-25.3,5.8-2,.8-3.9,1.8-5.7,3-.5.3-1.3-.1-1.1.4-.4.3-1.1.8-1.5,1.1-2,1-3,1.6-4.9,2.7-2,1.2-4.4,2.3-6.4,3.7-.2.1-1.1,1.2-1.3,1.3-2.5,1.7-3.6,2.5-6.4,3.8-.4-.3-1.4.8-1.9,1.1-.8.5-1.5,1-2.3,1.5-2.7.9-5.4,1.6-8.1,2.2h-.7l-1.3.5c-.5,0-1,.2-1.6.3-.3,0-.5.2-.7.5l-10.3,2.6c-.8,0-1.4.5-2.1.5s-1.2-.2-1.4,0l-16.1,2c-1.6,0-1.6,2.6,0,2.5h12.3c0,.8,1,.8,1.9.4,1.6-.6,2.4,0,4.1-.3,0,.7,1.1.5,2,.6,12.9,1.2,23.8-6.9,34.4-13,11.3-6.6,23.5-12.3,36.5-14.2,13.7-2,26.2,2.2,39,6.3,5.8,2,11.7,3.4,17.8,4.2,6,.6,12,.2,17.8-1.1,12.3-2.5,24.3-7.9,37-7.9,6.3.2,12.6,1.8,18.2,4.7,5.2,2.5,10.5,5.5,16.2,6.5,6.6,1.2,13.1-.3,19.5-1.7,7.2-1.7,14.6-2.9,22-3.6,14.3-1.2,27.8,1.6,41.7,4.7,7.3,1.8,14.7,3,22.1,3.8,7.7.5,15.4,0,23-1.1,9.1-1.2,18.3-3,27.5-3.8,12.1.8,24.1,2.7,35.9,5.5,8.3,2,16.3,4.7,24.3,7.3,5.2,2.4,10.5,5,16.1,6.4,7.6,2,25.2-.7,30.1-2.2,1.6-.5,3.5-1.3,4.7-2.5.3,0,.5-.2.7-.5.8-1.1.8-2.6.3-3.8"/>
      <path class="cls-5" d="M717.6,43.8c-.2-.6-.8-.9-1.4-.8h0c-1.9.5-2.4,0-4.3.2,0-.6-1.7-.4-2.6-.5-5.3-.4-10.3-1.5-15.6-1-2.5-.6-4.9-.4-7.5-.8-.2-.2-.7.2-1,.2-3.5-.6-6.5-1.7-10-2.2-7.7-2.4-16.1-3.1-24.1-3.2h-.5c-14.5-2.5-28.9,0-42.9,4.2-5,.9-9.9,3-14.9,4.4h-.4s-.2,0-.2.2c-1.4.4-2.8.8-4.1,1.2-.4,0-1.1-.2-1.2,0-2.4.8-4.3,1.3-6.7,2.2l-11.9,3.4c-.3,0-1,0-1.2.2-.5,0-.6.2-1.1.3-.3-.2-.8.5-1.2.5l-7.8.2h-3.5c0-.6-1.4-.2-2.1-.4-5.9-1.3-11.7-2.8-17.5-4.7,0-.3-.4-.6-.8-.7-5.1-1.3-9.8-1.7-14.7-3.2-1.2-.4-14.4-3.3-13.8-2.4-.2,0,1.4.9.8.7-1.5-.6,8.5,4.3,10,4.8,12.5,4.5,25.2,10.5,38.6,11.1,13.4.5,26.2-3.3,38.7-7,13.2-4,26.3-7.2,40.2-7.6,13.9-.2,27.7.8,41.5,2.9,14,1.8,28.9,4.9,42.5-.5.7-.2,1-1,.7-1.6"/>
      <path class="cls-5" d="M614,105.4h.7c1.4.4,2.8.8,4.2,1.2-1.6-.5-3.3-.9-4.9-1.4M588.5,100.6h2.1-2.1M553,111.9h.2-.2M539.6,113.5c-.8,0-1.6-.2-2.4-.3h.2l3.5.3h-1.4M517.5,102.1s-.2.2-.3.4c-.5-.6-1.1-1.2-1.6-1.9-.9-1.2-1.8-2.5-2.5-3.9,1.4,1.8,2.9,3.5,4.4,5.2h0M672.1,112c-12.9,1.4-25.9.8-38.6-1.6,0-.4-.3-.8-.8-1,.5-.6.5-1.4-.3-1.7-1.4-.6-2.9-1.3-4.4-1.8l-3.2-1.3h-.6c-9-3.2-18.3-5.4-27.8-6.4-.4,0-.7,0-.9.4-8.2-1-16.7.3-24.2,3.9-.7.3-.7,1-.4,1.6l-1,.2c-2,.4-4.1.9-6.1,1.5l-5.4,1.4v.3h0c-2.7.7-5.4,1.4-8.1,2h-.5c-1.4.2-4.7,0-6.9,1h-2.7c-6.5-1.4-12.8-4.8-18.6-8.2.2-.3.2-.7,0-1.1l-.3-.3h0c-.2-.3-.4-.4-.6-.6l-3.1-4c-1.6-3.1-3.6-5.9-5.9-8.5.5-.9.5-1.9-.4-2.9h0c-19.8-20.5-50.7-13.1-75.2-21.3-12.5-4.2-23.7-12.4-36.8-14.9-12.5-2.5-25.5,2-37.5,5.8s-24,8.5-36.5,9.1c-13.1.7-24.2-5-35.8-10.4-5.4-2.7-11.1-4.8-17-6.2-6.5-1.3-13.3-1.1-19.8.4-6.7,1.5-13,4-19.6,5.8-20.5,6-42.6,2.3-60.1-10-2.6-1.8-5.3-4-8.1-6.1-.1-.3-1-.9-1.6-1.5-2.1-2.4-4-4.9-7.1-6-.3-.2.3-.5-.1-.5v.2c1.3-.1-.2-.7-.3-.7-1.2-.3-2.4-1.8-3.7-2-5.4-2.3-11.2-2.9-17.4-.4-.8.3-3.2,1.4-3.4,2.1-1.8.6-2.7,2.3-4.4,3.1-.4.2-1,.4-1.3.8-8.5,3.2-16.9,8.9-26.2,6.8-3.1-.7-4.5,4.1-1.3,4.8,9.9,2.2,18.6-2.4,27.6-6,8.1-3.2,16.9-4.6,25.6-4,6.9,3.4,13.1,9.4,18.9,13.5,10.4,7.3,22.4,11.8,34.9,13.2,6.2.7,12.4.7,18.6-.2,6.5-1.1,13-2.7,19.2-4.9,6.4-2.4,13.2-3.8,20-4.3,6.2,0,12.3,1.3,18,3.8,11.4,4.5,22,11.4,34.3,13.2s24-1.3,35.5-4.9,23.5-8.2,36-8.5c13.2-.4,25,5.4,36.9,10.4,6.8,3.1,13.9,5.4,21.2,6.9,8,1.2,16,2.1,24,2.5,11.5.9,23.8,2.7,33.4,9.3,4.7,5.2,6.9,12.6,11,18.2,5.1,6.8,12.6,11.6,20.9,13.4,10,2.1,19.5-1,29-3.9,7-2.3,14.1-4,21.3-5.4l14.2-1.6c9.3,1.3,18.6,4.8,27.7,7,15,3.6,30.4,4.6,45.7,3,1.6-.2,1.6-2.7,0-2.5"/>
      <path class="cls-5" d="M117.3,119.5h.3c.2,0,.4,0,.6-.2h1.1l.2.2h-2.2ZM115.6,119.4l-12.8-.7v-.2c4.5.4,9,.7,13.6.9h-1.1.3ZM36.8,92.1h0c.6,0,1.3.2,1.9.2-.7,0-1.3,0-2-.2M-81.8,65.3c-1.6-.2-3.2-.3-4.7-.4,1.6,0,3.2,0,4.8.3h0M-103.6,71.1c.4,0,.9-.3,1.3-.4l.9-.2,1.4-.2c-1.2.3-2.4.6-3.6.9h0M-131.7,77.2h.3c-.8,0-1.6.2-2.4.2.7,0,1.4-.2,2.1-.3M-267.8,51h-.3.3M-250.3,46.7c-1.1,0-2.1-.2-3.2-.4,1.1,0,2.2,0,3.3.2,0,0-.1,0-.2.2M-318.9,60.9c-.8,0-1.5.2-2.3.3.8,0,1.5-.2,2.3-.3M144.3,121.1h0l-2.9-.2h0c-8.8-2.8-17.9-4.3-27.2-4.4-5.3-.8-10.7-1.1-16.1-.9h-.3c-1.3,0-2.6-.2-3.9-.4h0c0-.3-.4-.6-.7-.7-.6-.2-1.1-.4-1.7-.5-4.1-2.2-8-4.7-11.8-7.5-2.1-3.3-4.7-6.2-7.8-8.6,0,0-.2-.2-.3-.2.8-.4,1.1-1.7,0-2.2-4.9-2.6-8.7-5.3-14-6.5-4.5-1.3-10.5-1.1-15.2-.8h-1.2c-1.4-.2-2.8-.4-4.2-.5-1.8-.3-3.6-.6-5.5-.8l-3.2-1c-3.6-1.2-5.9-3-9.4-4.4,0,0-.6-.5-.7-.5l-.5-.2-1.4-.9c-4.2-2.3-7.7-3.9-12.2-5.6,0-.2-.8-.9-1-1,0,0-1-.5-1.3-.7l-.5-.2c-.3,0-.6,0-.9-.2-1-.4-.6-.2-1.6-.6-7.3-4.6-15.6-5.4-24.3-5.3-.4,0-.8.2-1,.6h-1.6c-.8,0-1.5,0-2.3.2-.2,0-.3,0-.5.2l-22.5,2.5c-1.8,0-3.6,0-5.3.3-1.4-.2-2.8-.3-4.2-.5-3.7-2.3-7.7-4.1-11.9-5.3-2.7-1.1-5.5-1.9-8.4-2.2v-.3c0-.4-.4-.7-.9-.9-9.8-1.6-19.9.5-28.2,6-.4.3-.6.8-.5,1.3l-23.4,7.3h-.3c-.2-.3-.4-.5-.8-.6h-.5l-15.6-.2h0l-1.4-.2c-9.1-1.2-18.1-2.9-26.9-5.2-1.4-.5-2.8-1-4.2-1.5.3-.6.1-1.4-.6-1.8h0l-.8-.3c-8.1-3.3-16.3-6.2-24.6-9-1.1-.4-2.2-.8-3.3-1.2-3.6-1.9-7.3-3.5-11.1-4.8-11.8-5.5-24.8-7.7-37.7-6.4-.1-.4-.5-.8-1.1-.7h-.3c-10.2,1.2-20.2,4.1-29.4,8.8-2.7.7-5.3,1.3-8,2-.4,0-.7.4-.8.8-3.7.8-7.4,1.6-11.1,2.6-.2,0-.4.2-.5.3-1.9.2-3.7.5-5.6.7-.2-.2-.5-.4-.9-.3l-9.5,1.2c-4,.4-8.1.6-12.1.6-1.7-.4-3.5-.9-5.1-1.6-1.5-.6-2.2,1.8-.7,2.4s2,.7,3,1c.2.4.5.7,1,.7h1.6c13.7,3.3,27.9.7,41.6-2.5,16.4-3.8,32.5-8.2,49.4-6.5,33,3.2,62.1,22.2,95,26,9,1,18.1,1,27,0,8.8-1.2,17.5-3.1,26-5.7,9.3-2.6,18-4,27.4-1.2,4,1.4,8,2.5,12.2,3.3,4.1.6,8.2.7,12.3.4,8.7-.5,17.3-2.2,26-2,8.3.3,16.4,2.4,23.9,6,6.9,3.1,13.5,6.7,20.5,9.6,7.1,2.8,14.7,4.5,22.4,4.9,8,.5,16.5.7,23.2,5.7,5.8,4.4,9.4,11,15.3,15.2,6.6,4.7,15,4.8,22.8,5.3l28.2,1.6,10.8.6h0l3.6.2c1.6,0,1.6-2.4,0-2.5"/>
      <path class="cls-5" d="M-319.1,21.3h-.1M-375.1,23.6c-.8-.2-1.6-.4-2.5-.6h.1c1.2.3,2.5.7,3.7,1-.5,0-.9-.2-1.4-.3M-410.9,13.8h.7c-.2.1-.5.1-.7,0M-474.2,23.1h0c1-.3,1.9-.5,2.9-.8.4,0,.7-.1,1.1-.2-1.3.4-2.6.7-4,1M1.9,27.5c-8-1-49.7,4.9-77.3,6.5-14.8.9-24.9-2.1-25.1-2.1,0,0-1.6,1.2-1.7,1.2l-20.8-2.6c-2.2-.7-4.4-1.3-6.6-1.9-5.6-1.8-11.4-3.3-17.2-4.4-1.9-.4-3.8-.8-5.7-1.2h-.9c-4.8-.8-9.6-1.3-14.4-1.4-.4,0-.6.1-.8.3-2.7,0-5.4.3-8.1.7-4.1.5-8.1,1.3-12.1,2.4-.4.1-.7.4-.8.8-3.1.5-6.1.9-9.2,1.4-8.2,1.4-16.6,1.9-25,1.4-5.3-.6-10.6-1.5-15.8-2.6-7.6-2.9-15.4-5.2-23.3-7-3.1-1-6.3-1.8-9.6-2-5.2-.9-10.5-1.6-15.8-2.1-.2,0-.3-.1-.5-.2h-1.3c-1.5-.1-3.1-.2-4.6-.3-.4,0-.7.2-.9.4-13.2.5-26.3,2.7-38.9,6.5-.9.1-1.7.2-2.6.4h0c-.4,0-.8,0-1.1.1l-7.4.8c-.1,0-.3-.1-.5-.2-8.3,0-16.6-.5-24.8-1.7-.1,0-.2-.2-.4-.2-4.7-1.5-9.5-3-14.2-4.3-.3-.1-.6-.2-.9-.3h0c.1-.7-.2-1.3-.8-1.5-12.8-4.5-26.3-6.4-39.8-5.6h0c-.2,0-.3-.2-.5-.2-.7,0-1.3.1-2,.2h-.5c-.3-.1-.6,0-.8.1-10.8,1.5-21.1,5.6-31.6,8.5-.3-.2-.6-.2-1-.1-2.3.7-4.6,1.3-7,2-.3,0-.7.1-1,.2-1.7.3-3.4.6-5.1.7h0c-.6.2-.9.5-1.1,1-3.3.8-6.5,1.6-9.8,2.3l-6.9.9c-.8.1-1.2.8-1.2,1.5-7.3.3-14.6.2-22,.2-2.9-.4-5.8-.8-8.6-1.1-.2,0-.3-.2-.6-.2h-2c-8.3-.7-16.7-.4-24.6,2.5-.4,0-.6.3-.8.7-1.3.4-2.7.9-4,1.5-.8.3-.8,1.1-.4,1.6-7.1,2.2-14,5-20.6,8.5,0,0-.2-.3-.3-.4-.2-.2-.5-.3-.9-.4-4,.4-7.5,2.4-9.9,5.4h-.4l-9.9,2.4c-.7.2-1,1-.7,1.6.2.5.7.8,1.2.8,0,.7.8,1.4,1.6,1.3,1.9-.4,3.8-.9,5.6-1.6,0,.6.4,1.1.9,1.2h.9c12.4-9.1,26.5-15.4,41.6-18.7,10.3-2.2,20.8-2.5,31.3-2.6.7,0,1.4.1,2,.2.3,0,.6,0,.9-.2,5.5,0,11,0,16.5-.1,8.2-.1,16.3-1.1,24.3-3,7.7-1.9,15.1-4.6,22.7-6.9,7.6-2.6,15.5-4.1,23.5-4.5,7.8,0,15.5,1.1,23,3.3,14.8,3.9,29.3,9.7,44.8,10.5,17.2.8,34.2-4,51.2-5.7,17.2-2,34.6-1.4,51.6,1.9,5.1,1,10.2,2.3,15.2,3.5l1.6.5c.2,0,.4.1.6.2h.7c2.1.5,4.2.9,6.3,1.3,7.9,1.4,15.9,1.8,23.8,1.1,16.2-1.4,32.9-8.1,48.8-3.8,57.9,15.4,67.9,7.6,94.6,9.8,15.7,1.3,32.8,7.8,48.5,7.9,28.2.2,50-6.2,51.1-6.6.4,0-30.1-10.5-32-10.7"/>
      <path class="cls-8" d="M-210.7,55.4c12.8,6.4,26.1,11.7,39.9,15.7,13.5,3.8,28.1,5,41.6,1.1,8.3-2.4,15.9-6.6,24-9.6s17-4.8,25.2-2.2c7.6,2.4,13.8,8.4,21.7,9.8,9.4,1.7,18.5-3.7,28-5.1,28-4,52.1,26.3,80.2,23,8.6-.6,16.4,2.7,22.6,8.6,3.9,3.7,6.7,8.3,10.7,11.8,6.9,6,16.5,8,25.6,7.2,0,0,27.8-2.4,40.5,9.2M-205.5,84.5c5.5,1.9,12.2,8.9,16.3,11.7,7,4.8,15.4,6.8,23.7,8.6,0,0,20.2,3.3,74.9-.8s61.9,12.2,76.7,12.1c14.8,0,43.1,8.9,55.8,8.9M516.7,92.3c1.6,4.2,3.8,8.2,6.6,11.7,2.6,2.9,6.2,4.6,10,4.9,0,0,8.3,2.8,28-4s31-11.5,59.1-1.8,57.7,14.5,117.1-5.4c59.4-19.8,123.1-10.5,152.3,1.3s66,25.8,85.2,25.8M371.8,82.2c12.8,2,26.1,4.4,36.3,12.4,4.1,3.3,7.5,7.4,12,10.2,11,7.2,25.6,5.2,38,9.9,0,0,28.8,8,80.6,10.2M-612.3,82c-17.8-4-38.6-.3-56.5,2.9s-42.7,6.8-60.2,1.7M-611.3,49.6c17.8-3.1,45.4-19.6,67.2-24.6,14.5-3.3,29.6,1,44.5.4,27-1.1,51.8-18.4,78.8-17.8,22.8.6,43.7,13.8,66.5,14.6,14.2.5,28.2-3.8,42.2-6,20.4-3.1,41.2-1.7,60.9,4.2,9.6,2.9,18.9,6.9,28.9,8,24.2,2.7,48.5-11.6,72.3-6.4,62.8,16.2,78.5,12.8,115.3,7.8s38-2,55.1,4c5.7,2,12.2,4.1,18.5,5.9M-198.9,88.5c-13.3-8.1-24.4-14.3-36.9-22.4M-80.4,39.5c-7.8-4.6-24.3.7-32.8,3.7M-219.3,39.6c7.5,8.1,17.1,7.1,28.6,3.5s23.4-9.3,35.1-6.2c8.6,2.3,15.7,9.1,24.4,10.4,8.7,1.3,12.1-2.7,26.5-6.9M776.4,21.6c-6.5,5-19.6,4.9-27.7,3.5s-16-4.2-24.1-4.4c-13.5-.3-26.3,6.4-39.7,8.3-21.9,3.1-43.4-6.6-65.4-8.4-11.7-1-23.4.3-34.6,3.7-14.2,4.3-27.6,12.1-42.4,12.8-13.7.6-26.9-5-40.2-8.4s-29.7-3.4-40.3,5.4M1039.5,27.4c23.4-11.5,47-22.6,72.8-19.3,16.2,2,31.2,10,47.3,13,2.8.6,5.7.8,8.6.6,6.7-.7,12.4-5,18.9-6.8,6.4-1.7,13.3-.9,19.2,2.3,0,0,2.5,2.8,10.9,2.3M938,19.7c6.5,4.7,11.8,9.5,19.8,10,9.4.7,18-4.5,27-7.6,10.8-3.8,22.5-4.5,33.7-2,14.3,3.2,27.4,11.5,42.1,12.5,18.7,1.2,36.4-9.8,55.1-9.4,27.8.7,51.7,26.5,79.2,22.5,6.2-1.1,12.2-3.1,17.8-6,1.3-.8,2.9-1.1,4.5-.9M933.7,44c10.7,7.3,26.5,16.2,40.6,14.4,11.5-1.4,22.4-7.3,34.1-7.3s16.4,2.8,24.4,1.2c3.8-1,7.4-2.3,11-4,6.9-3.2,14.4-4.7,22-4.5,18.9,1.4,33.4,18.6,52,21.5,9.1,1.4,18.4-.7,27.3-3.3,8.9-2.6,17.8-5.6,27-6s19.1,2.2,25.2,9.2c0,0,.6,2.8,19.9.8M943.1,23.3c-11.4-9.4-26.9-12.1-40.8-7.2-8.3,3-15.5,8.7-24.2,10.8-24.2,6-47-17.1-72-16.1-19.8.7-35.2,16-53,24.1-20.9,9.5-45.2,9.2-68,5.5-14.6-2.4-29.1-6-44-6-23,0-44.8,9.1-66.9,15.1-6.4,2-13.1,3-19.8,2.7-6-.8-11.8-2.2-17.5-4.3-12.2-3.5-24.7-6-37.2-7.7M939,47.4c-17-11.6-38.2-15.4-58.2-10.4-17.5,4.5-32.7,15.5-50.3,20-43.5,11-90.2-20.1-133.3-7.4-12.2,3.6-23.1,10.6-34.9,15.3-39.9,16-85.8,5.4-125.8-10.3-20.7-8.1-41.2-17.7-63.5-20-27.3-2.9-54.5,5.4-80.6,13.5M-232.7,68c-7.4-4.5-15.4-9.1-24-8.9-10.4.2-19.1,7.3-28.4,12-23.8,11.9-52.5,8.3-77.6-.4-9.4-3.2-18.9-7.1-28.8-6.7-9.5.4-18.3,4.9-27.6,6.8-9.7,2-19.7,1.3-29-2-10.6-3.8-20.1-11-31.4-12.5-14.6-2-28.5,6.2-42,12.3-30.6,13.9-64.7,18.2-97.8,12.3M-217.3,41.4c-9.8-10.3-26.4-10-40.1-6.3-13.7,3.7-27.4,9.8-41.5,8.6-16.5-1.4-31.1-12.8-47.7-13.1-17.1-.3-32.5,11.2-49.5,12-15.6.8-30-7.5-45.1-11.6-12.5-3.4-25.6-4.1-38.4-2-18.6,3.1-35.7,12-54.1,16.4-33.6,8-69.4.3-103.2,7.5-28.1,6-63.3,22.9-92,24.6M-209.5,56.1c-18-10.4-39.2-16.2-59.5-12.4-11.7,2.2-22.6,7.3-34,10.6-59.8,16.9-122.2-20.8-184.2-16-26.8,2.1-52.2,12-78.1,19.3-41.3,11.6-87.1,15.6-130,13.1M162.6,34.4c14-.2,28.8,1.9,45.1,7.9,9.4,4,20.1-.4,29.1-5.3,9-4.9,18.4-10.7,28.6-9.7,12.4,1.2,21.7,12.2,33.7,15.6,15.2,4.3,30.7-4.2,46.2-7.3,13.3-2.6,27.1-1.2,39.7,4,9.5,4,18.3,10.3,28.5,12,4.6.8,9.3.6,13.8,1.6,10,2.3,18.5,10.6,28.6,9.8,6.1-.5,11.4-4.3,16.9-7,21.1-10.6,71.7,3.1,92.3,31.5,0,0,5.3,7.8,27.5,10M125.3,58.4c4.5,7.1,18.9,11.4,27.1,10.2,8.3-1.2,16.1-4.8,24.4-5.9,20.3-2.6,40,10,60.4,8.9,14.9-.8,28.7-8.7,43.6-8.9,10.2,0,20,3.5,29.8,6.4,20.4,5.7,41.1,10.1,62,13.2M158.3,30.2c16.3,19.3,46.8,29.9,71.4,24.1,12.9-3,25.5-9.8,38.7-8.7,16,1.4,29,14.2,44.7,17.5,27,5.7,53-17.3,80.5-15,18.2,1.5,33.6,13.9,51.4,18.3,11,2.7,22.5,2.3,33.8,3.6s30.2,5.5,39.1,24.2M161.9,33.9c-4.4-5.5-11-8.9-18-9.3-2.5-.2-4.9.1-7.3.9-3.4,1.5-6.6,3.4-9.6,5.7-10.3,6.6-22.6,9.2-34.6,7.3-6.3-1-19.6-2.5-26-2.1M131,63.1c-21.6-19.7-52-30-80.8-25.8-8.8,1.6-17.6,3.6-26.1,6.2-17.3,4.7-35,8.5-52.9,8.7-17.9.2-36.2-3.5-51.5-12.8"/>
    </g>
  </g>
</svg>