<svg id="Ebene_1" data-name="Ebene 1" xmlns="http://www.w3.org/2000/svg" xmlns:xlink="http://www.w3.org/1999/xlink" viewBox="0 0 340.16 85.04"><defs><style>.cls-1{fill:none;}.cls-2{clip-path:url(#clip-path);}.cls-3{fill:#fff;}.cls-4{fill:#e8523d;}</style><clipPath id="clip-path"><rect class="cls-1" x="1.42" y="1.08" width="337.32" height="82.88"/></clipPath></defs><title>Zeichenfläche 1</title><g class="cls-2"><path class="cls-3" d="M157.24,83.2h34.69a1.14,1.14,0,0,0,1.14-1.15V70.77a1.12,1.12,0,0,0-.33-.81,1.13,1.13,0,0,0-.81-.33h-19.5a.42.42,0,0,1-.48-.48V17.45a1.1,1.1,0,0,0-.33-.81,1.13,1.13,0,0,0-.81-.34H157.24a1.15,1.15,0,0,0-.82.34,1.1,1.1,0,0,0-.33.81v64.6a1.14,1.14,0,0,0,1.15,1.15m-5.75-54.47V17.45a1.14,1.14,0,0,0-1.14-1.15H116a1.15,1.15,0,0,0-.82.34,1.1,1.1,0,0,0-.33.81v64.6A1.14,1.14,0,0,0,116,83.2h34.4a1.07,1.07,0,0,0,.81-.34,1.1,1.1,0,0,0,.33-.81V70.77a1.12,1.12,0,0,0-.33-.81,1.1,1.1,0,0,0-.81-.33H131.14a.42.42,0,0,1-.48-.48V57a.42.42,0,0,1,.48-.48h10.51a1.1,1.1,0,0,0,.81-.33,1.07,1.07,0,0,0,.34-.81V44a1.14,1.14,0,0,0-1.15-1.15H131.14a.42.42,0,0,1-.48-.48v-12a.42.42,0,0,1,.48-.48h19.21a1.13,1.13,0,0,0,1.14-1.14M90.76,84Q99.55,84,105,78.9t5.4-13.67a17.51,17.51,0,0,0-1.72-8,21.4,21.4,0,0,0-4.78-6.16q-3.06-2.78-9.08-7.26a42.53,42.53,0,0,1-6.59-5.55A6.42,6.42,0,0,1,86.55,34a5.56,5.56,0,0,1,1-3.53,3.34,3.34,0,0,1,2.77-1.34,3.59,3.59,0,0,1,2.87,1.34,5.12,5.12,0,0,1,1.15,3.44v2.67a1.1,1.1,0,0,0,.33.81,1.07,1.07,0,0,0,.81.34h13.29a1.09,1.09,0,0,0,.81-.34,1.1,1.1,0,0,0,.33-.81V34.27a19.41,19.41,0,0,0-2.43-9.8,16.81,16.81,0,0,0-6.88-6.59,23.74,23.74,0,0,0-20.45-.05,16.48,16.48,0,0,0-6.88,6.5A18.83,18.83,0,0,0,70.88,34a19.38,19.38,0,0,0,2.2,9.41,24.64,24.64,0,0,0,5.25,6.79,96.48,96.48,0,0,0,7.84,6.16,60.54,60.54,0,0,1,6.88,5.5,5.54,5.54,0,0,1,1.72,4,4.92,4.92,0,0,1-1.1,3.3,3.53,3.53,0,0,1-2.82,1.29A3.46,3.46,0,0,1,88,69.05a5.56,5.56,0,0,1-1.1-3.63v-2.2a1.13,1.13,0,0,0-1.14-1.14H72.41a1.14,1.14,0,0,0-1.15,1.14v3a17.53,17.53,0,0,0,2.44,9.22,16.46,16.46,0,0,0,6.83,6.3A22.16,22.16,0,0,0,90.76,84M50.61,17.45l.1,33.16c0,.26-.08.38-.24.38s-.27-.09-.34-.28L40.58,17.26a1.26,1.26,0,0,0-1.34-1h-15a1.15,1.15,0,0,0-.82.34,1.1,1.1,0,0,0-.33.81v64.6a1.14,1.14,0,0,0,1.15,1.15H37.61a1.14,1.14,0,0,0,1.15-1.15L38.57,49q0-.37.24-.33a.43.43,0,0,1,.33.33L48.6,82.24a1.27,1.27,0,0,0,1.34,1h15.2a1.14,1.14,0,0,0,1.14-1.15V17.45a1.1,1.1,0,0,0-.33-.81,1.14,1.14,0,0,0-.81-.34H51.76a1.11,1.11,0,0,0-.81.34,1.07,1.07,0,0,0-.34.81M2.56,83.2H16.13a1.14,1.14,0,0,0,1.15-1.15V17.45a1.1,1.1,0,0,0-.33-.81,1.15,1.15,0,0,0-.82-.34H2.56a1.11,1.11,0,0,0-.81.34,1.1,1.1,0,0,0-.33.81v64.6a1.1,1.1,0,0,0,.33.81,1.07,1.07,0,0,0,.81.34"/><rect class="cls-4" x="197.51" y="69.61" width="13.59" height="13.59" rx="1.1"/><path class="cls-3" d="M283.69,14.47a1.55,1.55,0,0,0-1.55-1.55h-6.46a1.55,1.55,0,1,0,0,3.09h6.46a1.55,1.55,0,0,0,1.55-1.54M284,53.91h-7.35a6.91,6.91,0,0,1-6.9-6.9V2.62a1.54,1.54,0,0,1,3.08,0V47a3.82,3.82,0,0,0,3.82,3.81H284a1.55,1.55,0,1,1,0,3.09m30-31.58a1.54,1.54,0,0,1,1.55,1.55V52.37a1.55,1.55,0,0,1-3.09,0V50.83l-9.39,2.69a9.87,9.87,0,0,1-2.68.39,7.55,7.55,0,0,1-4.63-1.5,8.16,8.16,0,0,1-3.08-6.72V26.78A10.48,10.48,0,0,1,303,16.34l10.79-.18a1.55,1.55,0,1,1,.05,3.09l-10.78.18a7.39,7.39,0,0,0-7.24,7.35V45.69a4.71,4.71,0,0,0,6.45,4.86l10.24-2.93V23.88a1.54,1.54,0,0,1,1.54-1.55m-65.23.8v26.6l-9.76,1.71a5.56,5.56,0,0,1-6.81-5.72V26.47a7.09,7.09,0,0,1,6.91-7l11.11-.23a1.54,1.54,0,0,0,0-3.08h0l-11.11.22a10.2,10.2,0,0,0-9.94,10.14V45.72a8.84,8.84,0,0,0,3.08,6.93,8.61,8.61,0,0,0,5.59,2,10.78,10.78,0,0,0,1.77-.16l9.22-1.62v3.71c0,3.91-1.94,7.21-4.23,7.21h-5.77a1.55,1.55,0,0,0,0,3.09h5.77c4.1,0,7.32-4.53,7.32-10.3V23.13a1.55,1.55,0,1,0-3.09,0m-51.32-3.71a7.4,7.4,0,0,0-7.23,7.37v19a5.33,5.33,0,0,0,6.5,5.5L208,49.38a.33.33,0,0,1,.1,0V19.23Zm12.15,34.49a1.53,1.53,0,0,1-1.52-1.42L197.3,54.32a9.27,9.27,0,0,1-1.65.14,8.38,8.38,0,0,1-5.47-2,8.63,8.63,0,0,1-3-6.73v-19a10.52,10.52,0,0,1,10.27-10.46l10.65-.19V2.62a1.55,1.55,0,0,1,3.09,0V52.37a1.54,1.54,0,0,1-1.54,1.54m127.53,0h-7.5a6.92,6.92,0,0,1-6.91-6.9V2.76a1.55,1.55,0,0,1,3.09,0V47a3.82,3.82,0,0,0,3.82,3.81h7.5a1.55,1.55,0,0,1,0,3.09M262.4,8.6v-6a1.55,1.55,0,0,0-3.09,0v6a1.55,1.55,0,0,0,3.09,0m-1.55,45.31a1.54,1.54,0,0,1-1.54-1.54V20.13a1.55,1.55,0,0,1,3.09,0V52.37a1.55,1.55,0,0,1-1.55,1.54M221.68,8.6v-6a1.55,1.55,0,0,0-3.09,0v6a1.55,1.55,0,0,0,3.09,0m-1.54,45.31a1.54,1.54,0,0,1-1.55-1.54V20.13a1.55,1.55,0,0,1,3.09,0V52.37a1.54,1.54,0,0,1-1.54,1.54"/></g></svg>