<?xml version="1.0" encoding="UTF-8" standalone="no"?>
<svg
   xmlns:dc="http://purl.org/dc/elements/1.1/"
   xmlns:cc="http://creativecommons.org/ns#"
   xmlns:rdf="http://www.w3.org/1999/02/22-rdf-syntax-ns#"
   xmlns:svg="http://www.w3.org/2000/svg"
   xmlns="http://www.w3.org/2000/svg"
   xmlns:sodipodi="http://sodipodi.sourceforge.net/DTD/sodipodi-0.dtd"
   xmlns:inkscape="http://www.inkscape.org/namespaces/inkscape"
   id="Ebene_1"
   data-name="Ebene 1"
   version="1.1"
   viewBox="0 0 451.08215 220.755"
   sodipodi:docname="240514_gotocoder_rechnungspapier_laptop-cropped.svg"
   width="451.08215"
   height="220.755"
   inkscape:version="0.92.5 (2060ec1f9f, 2020-04-08)">
  <metadata
     id="metadata2201">
    <rdf:RDF>
      <cc:Work
         rdf:about="">
        <dc:format>image/svg+xml</dc:format>
        <dc:type
           rdf:resource="http://purl.org/dc/dcmitype/StillImage" />
        <dc:title></dc:title>
      </cc:Work>
    </rdf:RDF>
  </metadata>
  <sodipodi:namedview
     pagecolor="#ffffff"
     bordercolor="#666666"
     borderopacity="1"
     objecttolerance="10"
     gridtolerance="10"
     guidetolerance="10"
     inkscape:pageopacity="0"
     inkscape:pageshadow="2"
     inkscape:window-width="2808"
     inkscape:window-height="1556"
     id="namedview2199"
     showgrid="false"
     inkscape:zoom="0.95753817"
     inkscape:cx="403.54422"
     inkscape:cy="-22.366755"
     inkscape:window-x="72"
     inkscape:window-y="27"
     inkscape:window-maximized="1"
     inkscape:current-layer="Ebene_1"
     fit-margin-top="0"
     fit-margin-left="0"
     fit-margin-right="0"
     fit-margin-bottom="0" />
  <defs
     id="defs1850">
    <style
       id="style1809">
      .cls-1 {
        clip-path: url(#clippath-11);
      }

      .cls-2 {
        stroke-width: 1.69px;
      }

      .cls-2, .cls-3, .cls-4, .cls-5, .cls-6 {
        fill: none;
      }

      .cls-2, .cls-3, .cls-5, .cls-6 {
        stroke: #283843;
        stroke-linecap: round;
        stroke-linejoin: round;
      }

      .cls-3 {
        stroke-width: .42px;
      }

      .cls-7 {
        fill: #283843;
      }

      .cls-7, .cls-8, .cls-9, .cls-10, .cls-4, .cls-11, .cls-12, .cls-13, .cls-14, .cls-15 {
        stroke-width: 0px;
      }

      .cls-8 {
        fill: #a87686;
      }

      .cls-9 {
        fill: #356170;
      }

      .cls-16 {
        clip-path: url(#clippath-2);
      }

      .cls-10 {
        fill: #bf6a6f;
      }

      .cls-17 {
        clip-path: url(#clippath-6);
      }

      .cls-11 {
        fill: #5d95ac;
      }

      .cls-18 {
        clip-path: url(#clippath-7);
      }

      .cls-19 {
        clip-path: url(#clippath-1);
      }

      .cls-5 {
        stroke-width: .85px;
      }

      .cls-20 {
        clip-path: url(#clippath-4);
      }

      .cls-12 {
        fill: #3b6370;
      }

      .cls-21 {
        clip-path: url(#clippath-12);
      }

      .cls-13 {
        fill: #bce2ef;
      }

      .cls-22 {
        clip-path: url(#clippath-9);
      }

      .cls-23 {
        clip-path: url(#clippath);
      }

      .cls-24 {
        clip-path: url(#clippath-3);
      }

      .cls-14 {
        fill: #87c4d8;
      }

      .cls-25 {
        clip-path: url(#clippath-8);
      }

      .cls-15 {
        fill: #f3b9c9;
      }

      .cls-26 {
        clip-path: url(#clippath-5);
      }

      .cls-27 {
        clip-path: url(#clippath-10);
      }

      .cls-6 {
        stroke-width: .79px;
      }
    </style>
    <clipPath
       id="clippath">
      <polygon
         class="cls-4"
         points="0,247 468.96,247 468.96,61.08 463.72,1.24 0,1.24 "
         id="polygon1811"
         style="fill:none;stroke-width:0px" />
    </clipPath>
    <clipPath
       id="clippath-1">
      <polygon
         class="cls-4"
         points="0,247 468.96,247 468.96,61.08 463.72,1.24 0,1.24 "
         id="polygon1814"
         style="fill:none;stroke-width:0px" />
    </clipPath>
    <clipPath
       id="clippath-2">
      <polygon
         class="cls-4"
         points="0,247 468.96,247 468.96,61.08 463.72,1.24 0,1.24 "
         id="polygon1817"
         style="fill:none;stroke-width:0px" />
    </clipPath>
    <clipPath
       id="clippath-3">
      <path
         class="cls-4"
         d="M 45.64,1.24 0,33.43 v 167.8 l 1.23,3.62 209.11,-40.49 64.16,-7.4 c 35.33,-4.07 68.66,-18.5 95.83,-41.45 L 466.61,34.13 463.73,1.23 H 45.64 Z"
         id="path1820"
         inkscape:connector-curvature="0"
         style="fill:none;stroke-width:0px" />
    </clipPath>
    <clipPath
       id="clippath-4">
      <path
         class="cls-4"
         d="M 419.51,1.24 C 413,3.05 405.61,6.57 397.46,12.54 382.78,23.3 363,39.81 344.57,28.06 341.03,25.74 338.16,22.28 335.05,17.98 331.35,12.73 326.25,5.81 320.32,1.24 H 231.05 C 221.92,6.06 213.28,12.14 204.99,19.08 187.77,33.35 130.94,81.06 118.18,90.72 87.69,113.79 33.23,121.13 0,120.13 v 55.67 c 18.38,1.74 42.29,-0.06 74.3,-8.39 22.58,-5.87 53.67,-27.89 69.9,-43.73 12,-11.7 56.02,-61.94 67.06,-74 10.36,-11.24 21.33,-22.21 34.39,-30.01 12.85,-7.79 26.83,-10.86 41.8,-10.81 36.03,-0.24 30.94,27.04 59.6,34.31 15.72,3.85 30.72,-4.22 42.5,-13.69 6.62,-5.17 12.47,-10.74 19,-15.74 3.12,-2.31 6.1,-4.46 9.72,-5.59 3.09,-1.09 6.7,1.24 10.93,3.51 5.64,3.03 12.39,5.96 20.55,0.58 2.75,-1.82 -0.79,-8.03 -9.28,-11 z"
         id="path1823"
         inkscape:connector-curvature="0"
         style="fill:none;stroke-width:0px" />
    </clipPath>
    <clipPath
       id="clippath-5">
      <path
         class="cls-4"
         d="M 389.3,26.65 C 377.45,35.32 362.4,42.74 346.72,39.39 318.14,33.06 323.45,8.28 287.44,8.8 c -3.01,0.03 -5.98,0.17 -8.91,0.43 -11.63,1.02 -22.65,3.88 -32.99,9.26 -13.15,6.76 -24.26,16.16 -34.76,25.78 -11.2,10.32 -55.85,53.28 -68,63.31 -16.43,13.58 -47.79,32.57 -70.42,37.83 -30.97,7.2 -54.31,9.18 -72.37,8.21 v 22.18 c 18.38,1.74 42.29,-0.06 74.3,-8.39 22.58,-5.87 53.67,-27.89 69.9,-43.73 12,-11.7 56.02,-61.94 67.06,-74 10.36,-11.24 21.33,-22.21 34.39,-30.01 12.85,-7.79 26.83,-10.86 41.8,-10.81 36.03,-0.24 30.94,27.04 59.6,34.31 15.72,3.85 30.72,-4.22 42.5,-13.69 6.62,-5.17 12.47,-10.74 19,-15.74 3.12,-2.31 6.1,-4.46 9.72,-5.59 -8.94,2.68 -22.31,13.77 -28.97,18.5"
         id="path1826"
         inkscape:connector-curvature="0"
         style="fill:none;stroke-width:0px" />
    </clipPath>
    <clipPath
       id="clippath-6">
      <path
         class="cls-4"
         d="M 419.51,1.24 C 413,3.05 405.61,6.57 397.46,12.54 382.78,23.3 363,39.81 344.57,28.06 341.03,25.74 338.16,22.28 335.05,17.98 331.35,12.73 326.25,5.81 320.32,1.24 H 231.05 C 221.92,6.06 213.28,12.14 204.99,19.08 187.77,33.35 130.94,81.06 118.18,90.72 87.69,113.79 33.23,121.13 0,120.13 v 55.67 c 18.38,1.74 42.29,-0.06 74.3,-8.39 22.58,-5.87 53.67,-27.89 69.9,-43.73 12,-11.7 56.02,-61.94 67.06,-74 10.36,-11.24 21.33,-22.21 34.39,-30.01 12.85,-7.79 26.83,-10.86 41.8,-10.81 36.03,-0.24 30.94,27.04 59.6,34.31 15.72,3.85 30.72,-4.22 42.5,-13.69 6.62,-5.17 12.47,-10.74 19,-15.74 3.12,-2.31 6.1,-4.46 9.72,-5.59 3.09,-1.09 6.7,1.24 10.93,3.51 5.64,3.03 12.39,5.96 20.55,0.58 2.75,-1.82 -0.79,-8.03 -9.28,-11 z"
         id="path1829"
         inkscape:connector-curvature="0"
         style="fill:none;stroke-width:0px" />
    </clipPath>
    <clipPath
       id="clippath-7">
      <path
         class="cls-4"
         d="M 45.64,1.24 0,33.43 v 167.8 l 1.23,3.62 209.11,-40.49 64.16,-7.4 c 35.33,-4.07 68.66,-18.5 95.83,-41.45 L 466.61,34.13 463.73,1.23 H 45.64 Z"
         id="path1832"
         inkscape:connector-curvature="0"
         style="fill:none;stroke-width:0px" />
    </clipPath>
    <clipPath
       id="clippath-8">
      <path
         class="cls-4"
         d="m 97.48,1.24 c -2.27,6.14 -4.38,12.33 -6.47,18.5 -12.04,35.57 -21.69,95.12 -64.49,106.19 -8.83,2.28 -17.9,2.1 -26.53,-0.04 v 67.12 c 44.55,-1.18 84.38,-25.99 102.96,-66.6 18,-39.62 20.1,-83.8 32.24,-125.17 H 97.47 Z m 126.38,0 c 0.78,13.58 -0.36,27.18 -1.42,36.79 -2.85,25.8 -10.93,51.62 -10.29,77.61 0.25,10.12 1.61,22.87 9.84,29.63 12.7,10.44 29.96,2.14 42.9,-5.79 9.92,-6.08 17.3,-11.94 18.11,-8.94 4.93,18.12 16.2,12.89 17.13,10.62 0.94,-2.27 -2.57,-14.19 -7.24,-16.89 -8.03,-4.63 -18.74,1.62 -29.51,7.88 -14.05,8.16 -28.19,16.34 -36.62,0.36 -5.43,-10.29 -3.38,-25.83 -0.13,-36.51 8.46,-27.84 16.15,-57.36 17.28,-86.55 0.1,-2.71 0.15,-5.46 0.13,-8.23 h -20.18 z"
         id="path1835"
         inkscape:connector-curvature="0"
         style="fill:none;stroke-width:0px" />
    </clipPath>
    <clipPath
       id="clippath-9">
      <path
         class="cls-4"
         d="M 121.55,1.24 C 107.16,38.6 103.1,87.42 77.4,119.06 52.64,149.54 25.87,160.56 0,160.28 V 193 c 44.55,-1.18 84.38,-25.99 102.96,-66.6 18,-39.62 20.1,-83.8 32.24,-125.17 h -13.66 z"
         id="path1838"
         inkscape:connector-curvature="0"
         style="fill:none;stroke-width:0px" />
    </clipPath>
    <clipPath
       id="clippath-10">
      <path
         class="cls-4"
         d="m 97.48,1.24 c -2.27,6.14 -4.38,12.33 -6.47,18.5 -12.04,35.57 -21.69,95.12 -64.49,106.19 -8.83,2.28 -17.9,2.1 -26.53,-0.04 v 67.12 c 44.55,-1.18 84.38,-25.99 102.96,-66.6 18,-39.62 20.1,-83.8 32.24,-125.17 H 97.47 Z m 126.38,0 c 0.78,13.58 -0.36,27.18 -1.42,36.79 -2.85,25.8 -10.93,51.62 -10.29,77.61 0.25,10.12 1.61,22.87 9.84,29.63 12.7,10.44 29.96,2.14 42.9,-5.79 9.92,-6.08 17.3,-11.94 18.11,-8.94 4.93,18.12 16.2,12.89 17.13,10.62 0.94,-2.27 -2.57,-14.19 -7.24,-16.89 -8.03,-4.63 -18.74,1.62 -29.51,7.88 -14.05,8.16 -28.19,16.34 -36.62,0.36 -5.43,-10.29 -3.38,-25.83 -0.13,-36.51 8.46,-27.84 16.15,-57.36 17.28,-86.55 0.1,-2.71 0.15,-5.46 0.13,-8.23 h -20.18 z"
         id="path1841"
         inkscape:connector-curvature="0"
         style="fill:none;stroke-width:0px" />
    </clipPath>
    <clipPath
       id="clippath-11">
      <path
         class="cls-4"
         d="M 45.64,1.24 0,33.43 v 167.8 l 1.23,3.62 209.11,-40.49 64.16,-7.4 c 35.33,-4.07 68.66,-18.5 95.83,-41.45 L 466.61,34.13 463.73,1.23 H 45.64 Z"
         id="path1844"
         inkscape:connector-curvature="0"
         style="fill:none;stroke-width:0px" />
    </clipPath>
    <clipPath
       id="clippath-12">
      <polygon
         class="cls-4"
         points="0,247 468.96,247 468.96,61.08 463.72,1.24 0,1.24 "
         id="polygon1847"
         style="fill:none;stroke-width:0px" />
    </clipPath>
  </defs>
  <g
     class="cls-23"
     clip-path="url(#clippath)"
     id="g1856"
     transform="translate(0,-1.23)">
    <path
       class="cls-2"
       d="m 3.87,217.29 c 0,0 -5.05,-0.61 -7.03,-6.8 -1.97,-6.19 -47.73,-141.52 -48.96,-145.45 -1.22,-3.93 0.64,-6.38 4.08,-6.9 3.44,-0.52 200.47,-29.34 204.26,-29.92 3.78,-0.58 6.32,1.27 7.88,5.15 1.56,3.87 51.2,134.11 51.77,135.86 0.57,1.75 0.13,5.27 0.13,5.27 z"
       id="path1852"
       inkscape:connector-curvature="0"
       style="fill:none;stroke:#283843;stroke-width:1.69000006px;stroke-linecap:round;stroke-linejoin:round" />
    <path
       class="cls-2"
       d="m 4.47,216.21 c 0,0 -5.05,-0.61 -7.03,-6.8 -1.97,-6.19 -47.73,-141.52 -48.96,-145.45 -1.22,-3.93 0.64,-6.38 4.08,-6.9 3.44,-0.52 200.47,-29.34 204.26,-29.92 3.78,-0.58 6.32,1.27 7.88,5.15 1.57,3.87 51.2,134.11 51.77,135.86 0.57,1.75 0.13,5.27 0.13,5.27 z"
       id="path1854"
       inkscape:connector-curvature="0"
       style="fill:none;stroke:#283843;stroke-width:1.69000006px;stroke-linecap:round;stroke-linejoin:round" />
  </g>
  <polygon
     class="cls-2"
     points="313.6,165.51 313.09,161.01 86.59,206.54 87.94,214.19 306.6,169.76 "
     id="polygon1858"
     style="fill:none;stroke:#283843;stroke-width:1.69000006px;stroke-linecap:round;stroke-linejoin:round"
     transform="translate(0,-1.23)" />
  <g
     class="cls-19"
     clip-path="url(#clippath-1)"
     id="g1866"
     transform="translate(0,-1.23)">
    <polygon
       class="cls-2"
       points="11.13,221.14 87.94,214.19 86.59,206.54 2.34,215.23 3.15,219.82 "
       id="polygon1860"
       style="fill:none;stroke:#283843;stroke-width:1.69000006px;stroke-linecap:round;stroke-linejoin:round" />
    <polygon
       class="cls-2"
       points="2.34,215.23 86.59,206.54 313.09,161.01 217.9,171.91 "
       id="polygon1862"
       style="fill:none;stroke:#283843;stroke-width:1.69000006px;stroke-linecap:round;stroke-linejoin:round" />
    <polygon
       class="cls-2"
       points="210.34,164.37 161.3,35 -46.05,65.91 1.23,204.86 "
       id="polygon1864"
       style="fill:none;stroke:#283843;stroke-width:1.69000006px;stroke-linecap:round;stroke-linejoin:round" />
  </g>
  <polygon
     class="cls-2"
     points="251.1,170.28 207.34,175.61 37.32,209.65 74.25,205.37 "
     id="polygon1868"
     style="fill:none;stroke:#283843;stroke-width:1.69000006px;stroke-linecap:round;stroke-linejoin:round"
     transform="translate(0,-1.23)" />
  <g
     class="cls-16"
     clip-path="url(#clippath-2)"
     id="g1894"
     transform="translate(0,-1.23)">
    <path
       class="cls-7"
       d="m 3.87,217.29 c 0,0 -5.05,-0.61 -7.03,-6.8 -1.97,-6.19 -47.73,-141.52 -48.96,-145.45 -1.22,-3.93 0.64,-6.38 4.08,-6.9 3.44,-0.52 200.47,-29.34 204.26,-29.92 3.78,-0.58 6.32,1.27 7.88,5.15 1.56,3.87 51.2,134.11 51.77,135.86 0.57,1.75 0.13,5.27 0.13,5.27 z"
       id="path1870"
       inkscape:connector-curvature="0"
       style="fill:#283843;stroke-width:0px" />
    <path
       class="cls-12"
       d="m 4.47,216.21 c 0,0 -5.05,-0.61 -7.03,-6.8 -1.97,-6.19 -47.73,-141.52 -48.96,-145.45 -1.22,-3.93 0.64,-6.38 4.08,-6.9 3.44,-0.52 200.47,-29.34 204.26,-29.92 3.78,-0.58 6.32,1.27 7.88,5.15 1.57,3.87 51.2,134.11 51.77,135.86 0.57,1.75 0.13,5.27 0.13,5.27 z"
       id="path1872"
       inkscape:connector-curvature="0"
       style="fill:#3b6370;stroke-width:0px" />
    <path
       class="cls-3"
       d="m 4.47,216.21 c 0,0 -5.05,-0.61 -7.03,-6.8 -1.97,-6.19 -47.73,-141.52 -48.96,-145.45 -1.22,-3.93 0.64,-6.38 4.08,-6.9 3.44,-0.52 200.47,-29.34 204.26,-29.92 3.78,-0.58 6.32,1.27 7.88,5.15 1.57,3.87 51.2,134.11 51.77,135.86 0.57,1.75 0.13,5.27 0.13,5.27 z"
       id="path1874"
       inkscape:connector-curvature="0"
       style="fill:none;stroke:#283843;stroke-width:0.41999999px;stroke-linecap:round;stroke-linejoin:round" />
    <polygon
       class="cls-14"
       points="313.6,165.51 313.09,161.01 86.59,206.54 87.94,214.19 306.6,169.76 "
       id="polygon1876"
       style="fill:#87c4d8;stroke-width:0px" />
    <polygon
       class="cls-3"
       points="313.6,165.51 313.09,161.01 86.59,206.54 87.94,214.19 306.6,169.76 "
       id="polygon1878"
       style="fill:none;stroke:#283843;stroke-width:0.41999999px;stroke-linecap:round;stroke-linejoin:round" />
    <polygon
       class="cls-11"
       points="11.13,221.14 87.94,214.19 86.59,206.54 2.34,215.23 3.15,219.82 "
       id="polygon1880"
       style="fill:#5d95ac;stroke-width:0px" />
    <polygon
       class="cls-3"
       points="11.13,221.14 87.94,214.19 86.59,206.54 2.34,215.23 3.15,219.82 "
       id="polygon1882"
       style="fill:none;stroke:#283843;stroke-width:0.41999999px;stroke-linecap:round;stroke-linejoin:round" />
    <polygon
       class="cls-13"
       points="2.34,215.23 86.59,206.54 313.09,161.01 217.9,171.91 "
       id="polygon1884"
       style="fill:#bce2ef;stroke-width:0px" />
    <polygon
       class="cls-3"
       points="2.34,215.23 86.59,206.54 313.09,161.01 217.9,171.91 "
       id="polygon1886"
       style="fill:none;stroke:#283843;stroke-width:0.41999999px;stroke-linecap:round;stroke-linejoin:round" />
    <polygon
       class="cls-7"
       points="210.34,164.37 161.3,35 -46.05,65.91 1.23,204.86 "
       id="polygon1888"
       style="fill:#283843;stroke-width:0px" />
    <polygon
       class="cls-14"
       points="251.1,170.28 207.34,175.61 37.32,209.65 74.25,205.37 "
       id="polygon1890"
       style="fill:#87c4d8;stroke-width:0px" />
    <polygon
       class="cls-3"
       points="251.1,170.28 207.34,175.61 37.32,209.65 74.25,205.37 "
       id="polygon1892"
       style="fill:none;stroke:#283843;stroke-width:0.41999999px;stroke-linecap:round;stroke-linejoin:round" />
  </g>
  <g
     class="cls-24"
     clip-path="url(#clippath-3)"
     id="g1898"
     transform="translate(0,-1.23)">
    <path
       class="cls-11"
       d="m -63.17,87.85 -0.07,-0.06 0.07,0.1 0.15,0.21 0.42,0.55 c 0.46,0.62 1.5,1.8 1.99,2.4 10.26,11.61 23.38,21.82 38.23,26.33 22.22,6.69 101.27,3.07 140.55,-26.65 12.76,-9.66 69.59,-57.37 86.81,-71.64 21.6,-18.1 45.62,-30.36 74.47,-29.58 14.15,0.17 29,2.63 40.5,11.47 6.09,4.57 11.32,11.65 15.09,17.01 3.11,4.31 5.98,7.76 9.52,10.08 18.43,11.76 38.21,-4.76 52.89,-15.52 36.6,-26.83 58.01,-4.08 52.29,-0.31 -14.28,9.42 -24.26,-6.64 -31.48,-4.09 -3.62,1.13 -6.6,3.28 -9.72,5.59 -6.53,5.01 -12.39,10.57 -19,15.74 -11.78,9.48 -26.77,17.55 -42.49,13.69 -28.66,-7.27 -23.57,-34.55 -59.6,-34.31 -14.96,-0.05 -28.95,3.03 -41.8,10.82 -13.07,7.81 -24.03,18.77 -34.39,30.01 -11.05,12.06 -55.07,62.3 -67.06,74 -16.23,15.84 -47.33,37.86 -69.91,43.73 -98.57,25.63 -120.32,-10.54 -140.19,-21.8 -11.97,-6.78 -22.9,-15.41 -32.42,-25.33 -10.35,-9.89 -9.81,-27.03 1.47,-36 10.28,-8.31 25.36,-6.71 33.67,3.57"
       id="path1896"
       inkscape:connector-curvature="0"
       style="fill:#5d95ac;stroke-width:0px" />
  </g>
  <g
     class="cls-20"
     clip-path="url(#clippath-4)"
     id="g1904"
     transform="translate(0,-1.23)">
    <path
       class="cls-9"
       d="m -51.44,116.18 c 12.79,12.18 95.13,36.85 152.41,26.46 24.08,-4.36 56.63,-46.87 56.63,-46.87 0,0 -40.09,20.07 -37.1,0.3 1.54,-10.18 5.34,-8.21 4.94,-20.67 C 124.92,59.28 -4.79,59.33 -4.79,59.33 c 0,0 -70.26,34.36 -46.65,56.84"
       id="path1900"
       inkscape:connector-curvature="0"
       style="fill:#356170;stroke-width:0px" />
    <path
       class="cls-15"
       d="m -99.38,108.03 c 9.37,8.24 20.17,15.36 32.03,20.92 19.69,9.22 40.93,39.43 139.73,16.46 22.63,-5.26 53.99,-24.26 70.42,-37.83 12.14,-10.03 56.8,-52.99 68,-63.32 10.5,-9.62 21.61,-19.02 34.76,-25.78 12.95,-6.74 26.95,-9.53 41.9,-9.69 36.01,-0.52 30.7,24.26 59.27,30.59 15.68,3.35 30.73,-4.07 42.58,-12.74 6.66,-4.73 20.03,-15.82 28.97,-18.5 l 0.7,7.99 c -8.9,3.07 -22.1,16.19 -28.68,21.77 -11.71,10.23 -26.65,18.9 -42.42,14.58 -28.73,-8.14 -23.86,-37.89 -59.92,-37.92 -14.97,-0.07 -28.95,3.03 -41.79,10.93 -13.05,7.91 -24.01,19.03 -34.35,30.43 -11.03,12.24 -54.99,63.19 -66.97,75.06 -16.21,16.06 -47.28,38.38 -69.85,44.31 -98.54,25.9 -120.35,-10.86 -140.24,-22.33 -11.98,-6.91 -22.93,-15.68 -32.46,-25.77 z"
       id="path1902"
       inkscape:connector-curvature="0"
       style="fill:#f3b9c9;stroke-width:0px" />
  </g>
  <g
     class="cls-26"
     clip-path="url(#clippath-5)"
     id="g1908"
     transform="translate(0,-1.23)">
    <path
       class="cls-8"
       d="m 80.49,136.33 c 0,0 41.58,-24.1 58.37,-30.42 16.79,-6.32 71.9,-46.17 71.9,-46.17 0,0 -98.79,107.47 -128.27,115.25 -29.49,7.78 -33.46,-1.93 -33.46,-1.93 z"
       id="path1906"
       inkscape:connector-curvature="0"
       style="fill:#a87686;stroke-width:0px" />
  </g>
  <g
     class="cls-17"
     clip-path="url(#clippath-6)"
     id="g1914"
     transform="translate(0,-1.23)">
    <path
       class="cls-5"
       d="m -99.38,108.03 c 9.37,8.24 20.17,15.36 32.03,20.92 19.69,9.22 40.93,39.43 139.73,16.46 22.63,-5.26 53.99,-24.26 70.42,-37.83 12.14,-10.03 56.8,-52.99 68,-63.32 10.5,-9.62 21.61,-19.02 34.76,-25.78 12.95,-6.74 26.95,-9.53 41.9,-9.69 36.01,-0.52 30.7,24.26 59.27,30.59 15.68,3.35 30.73,-4.07 42.58,-12.74 6.66,-4.73 20.03,-15.82 28.97,-18.5 l 0.7,7.99 c -8.9,3.07 -22.1,16.19 -28.68,21.77 -11.71,10.23 -26.65,18.9 -42.42,14.58 -28.73,-8.14 -23.86,-37.89 -59.92,-37.92 -14.97,-0.07 -28.95,3.03 -41.79,10.93 -13.05,7.91 -24.01,19.03 -34.35,30.43 -11.03,12.24 -54.99,63.19 -66.97,75.06 -16.21,16.06 -47.28,38.38 -69.85,44.31 -98.54,25.9 -120.35,-10.86 -140.24,-22.33 -11.98,-6.91 -22.93,-15.68 -32.46,-25.77 z"
       id="path1910"
       inkscape:connector-curvature="0"
       style="fill:none;stroke:#283843;stroke-width:0.85000002px;stroke-linecap:round;stroke-linejoin:round" />
    <path
       class="cls-14"
       d="m 115.62,90.35 c 6.27,0.52 45.89,-30.79 65.18,-45.91 19.66,-15.4 52.17,-41.7 84.52,-45.69 32.35,-4 50.22,0.04 58.59,10.29 8.37,10.25 15.69,23.98 27.73,26.39 13.2,2.65 31.29,-7.94 55.65,-26.44 C 420.14,-0.78 432.44,0 432.44,0 l -14.56,-6.2 -162.06,-12.91 -89.9,40.33 -58.96,73.6 z"
       id="path1912"
       inkscape:connector-curvature="0"
       style="fill:#87c4d8;stroke-width:0px" />
  </g>
  <g
     class="cls-18"
     clip-path="url(#clippath-7)"
     id="g2024"
     transform="translate(0,-1.23)">
    <path
       class="cls-5"
       d="m -63.17,87.85 -0.07,-0.06 0.07,0.1 0.15,0.21 0.42,0.55 c 0.46,0.62 1.5,1.8 1.99,2.4 10.26,11.61 23.38,21.82 38.23,26.33 22.22,6.69 101.27,3.07 140.55,-26.65 12.76,-9.66 69.59,-57.37 86.81,-71.64 21.6,-18.1 45.62,-30.36 74.47,-29.58 14.15,0.17 29,2.63 40.5,11.47 6.09,4.57 11.32,11.65 15.09,17.01 3.11,4.31 5.98,7.76 9.52,10.08 18.43,11.76 38.21,-4.76 52.89,-15.52 36.6,-26.83 58.01,-4.08 52.29,-0.31 -14.28,9.42 -24.26,-6.64 -31.48,-4.09 -3.62,1.13 -6.6,3.28 -9.72,5.59 -6.53,5.01 -12.39,10.57 -19,15.74 -11.78,9.48 -26.77,17.55 -42.49,13.69 -28.66,-7.27 -23.57,-34.55 -59.6,-34.31 -14.96,-0.05 -28.95,3.03 -41.8,10.82 -13.07,7.81 -24.03,18.77 -34.39,30.01 -11.05,12.06 -55.07,62.3 -67.06,74 -16.23,15.84 -47.33,37.86 -69.91,43.73 -98.57,25.63 -120.32,-10.54 -140.19,-21.8 -11.97,-6.78 -22.9,-15.41 -32.42,-25.33 -10.35,-9.89 -9.81,-27.03 1.47,-36 10.28,-8.31 25.36,-6.71 33.67,3.57 z"
       id="path1916"
       inkscape:connector-curvature="0"
       style="fill:none;stroke:#283843;stroke-width:0.85000002px;stroke-linecap:round;stroke-linejoin:round" />
    <path
       class="cls-10"
       d="m 103.28,141.66 c 1.16,2.53 -1.46,6.18 -5.94,7.91 -1.12,0.42 -2.23,0.7 -3.28,0.82 -1.06,0.1 -2.06,0.06 -2.94,-0.12 -1.76,-0.35 -3.05,-1.24 -3.48,-2.57 -0.43,-1.31 0.06,-2.81 1.17,-4.15 0.55,-0.67 1.26,-1.31 2.1,-1.86 0.82,-0.59 1.77,-1.1 2.82,-1.5 4.17,-1.6 8.4,-1.04 9.55,1.47"
       id="path1918"
       inkscape:connector-curvature="0"
       style="fill:#bf6a6f;stroke-width:0px" />
    <path
       class="cls-5"
       d="m 103.28,141.66 c 1.16,2.53 -1.46,6.18 -5.94,7.91 -1.12,0.42 -2.23,0.7 -3.28,0.82 -1.06,0.1 -2.06,0.06 -2.94,-0.12 -1.76,-0.35 -3.05,-1.24 -3.48,-2.57 -0.43,-1.31 0.06,-2.81 1.17,-4.15 0.55,-0.67 1.26,-1.31 2.1,-1.86 0.82,-0.59 1.77,-1.1 2.82,-1.5 4.17,-1.6 8.4,-1.04 9.55,1.47 z"
       id="path1920"
       inkscape:connector-curvature="0"
       style="fill:none;stroke:#283843;stroke-width:0.85000002px;stroke-linecap:round;stroke-linejoin:round" />
    <path
       class="cls-10"
       d="m 122.72,131.21 c 0.67,1.12 0.52,2.59 -0.28,4.08 -0.8,1.49 -2.33,2.92 -4.27,4.02 -1.97,1.06 -4.02,1.52 -5.69,1.44 -1.69,-0.12 -3.01,-0.8 -3.58,-1.97 -0.57,-1.17 -0.3,-2.62 0.57,-3.99 0.85,-1.42 2.31,-2.76 4.17,-3.76 1.84,-1.05 3.78,-1.5 5.42,-1.5 1.63,0 2.99,0.56 3.66,1.68"
       id="path1922"
       inkscape:connector-curvature="0"
       style="fill:#bf6a6f;stroke-width:0px" />
    <path
       class="cls-5"
       d="m 122.72,131.21 c 0.67,1.12 0.52,2.59 -0.28,4.08 -0.8,1.49 -2.33,2.92 -4.27,4.02 -1.97,1.06 -4.02,1.52 -5.69,1.44 -1.69,-0.12 -3.01,-0.8 -3.58,-1.97 -0.57,-1.17 -0.3,-2.62 0.57,-3.99 0.85,-1.42 2.31,-2.76 4.17,-3.76 1.84,-1.05 3.78,-1.5 5.42,-1.5 1.63,0 2.99,0.56 3.66,1.68 z"
       id="path1924"
       inkscape:connector-curvature="0"
       style="fill:none;stroke:#283843;stroke-width:0.85000002px;stroke-linecap:round;stroke-linejoin:round" />
    <path
       class="cls-10"
       d="m 140.05,118.47 c 1.43,1.95 -0.07,5.62 -3.56,7.89 -1.72,1.16 -3.56,1.79 -5.12,1.87 -1.55,0.1 -2.87,-0.45 -3.52,-1.47 -0.66,-1.04 -0.52,-2.36 0.13,-3.78 0.66,-1.41 1.89,-2.82 3.55,-3.94 3.35,-2.17 7.07,-2.55 8.52,-0.57"
       id="path1926"
       inkscape:connector-curvature="0"
       style="fill:#bf6a6f;stroke-width:0px" />
    <path
       class="cls-5"
       d="m 140.05,118.47 c 1.43,1.95 -0.07,5.62 -3.56,7.89 -1.72,1.16 -3.56,1.79 -5.12,1.87 -1.55,0.1 -2.87,-0.45 -3.52,-1.47 -0.66,-1.04 -0.52,-2.36 0.13,-3.78 0.66,-1.41 1.89,-2.82 3.55,-3.94 3.35,-2.17 7.07,-2.55 8.52,-0.57 z"
       id="path1928"
       inkscape:connector-curvature="0"
       style="fill:none;stroke:#283843;stroke-width:0.85000002px;stroke-linecap:round;stroke-linejoin:round" />
    <path
       class="cls-10"
       d="m 156.11,105.86 c 0.74,0.86 0.82,2.14 0.35,3.53 -0.48,1.38 -1.49,2.89 -3.02,4.07 -3.03,2.41 -6.6,2.89 -7.97,1.08 -1.37,-1.81 -0.13,-5.16 2.78,-7.47 1.48,-1.14 3.04,-1.9 4.45,-2.13 1.41,-0.23 2.67,0.05 3.41,0.91"
       id="path1930"
       inkscape:connector-curvature="0"
       style="fill:#bf6a6f;stroke-width:0px" />
    <path
       class="cls-5"
       d="m 156.11,105.86 c 0.74,0.86 0.82,2.14 0.35,3.53 -0.48,1.38 -1.49,2.89 -3.02,4.07 -3.03,2.41 -6.6,2.89 -7.97,1.08 -1.37,-1.81 -0.13,-5.16 2.78,-7.47 1.48,-1.14 3.04,-1.9 4.45,-2.13 1.41,-0.23 2.67,0.05 3.41,0.91 z"
       id="path1932"
       inkscape:connector-curvature="0"
       style="fill:none;stroke:#283843;stroke-width:0.85000002px;stroke-linecap:round;stroke-linejoin:round" />
    <path
       class="cls-10"
       d="m 168.49,93.39 c 1.47,1.51 0.59,4.73 -1.98,7.19 -2.63,2.41 -5.91,3.08 -7.31,1.51 -1.4,-1.57 -0.47,-4.74 2.09,-7.07 2.51,-2.4 5.73,-3.14 7.2,-1.63"
       id="path1934"
       inkscape:connector-curvature="0"
       style="fill:#bf6a6f;stroke-width:0px" />
    <path
       class="cls-5"
       d="m 168.49,93.39 c 1.47,1.51 0.59,4.73 -1.98,7.19 -2.63,2.41 -5.91,3.08 -7.31,1.51 -1.4,-1.57 -0.47,-4.74 2.09,-7.07 2.51,-2.4 5.73,-3.14 7.2,-1.63 z"
       id="path1936"
       inkscape:connector-curvature="0"
       style="fill:none;stroke:#283843;stroke-width:0.85000002px;stroke-linecap:round;stroke-linejoin:round" />
    <path
       class="cls-10"
       d="m 180.87,81.15 c 1.39,1.35 0.68,4.33 -1.59,6.66 -2.29,2.31 -5.28,3.06 -6.64,1.69 -1.37,-1.38 -0.63,-4.32 1.63,-6.61 2.25,-2.31 5.2,-3.08 6.59,-1.73"
       id="path1938"
       inkscape:connector-curvature="0"
       style="fill:#bf6a6f;stroke-width:0px" />
    <path
       class="cls-5"
       d="m 180.87,81.15 c 1.39,1.35 0.68,4.33 -1.59,6.66 -2.29,2.31 -5.28,3.06 -6.64,1.69 -1.37,-1.38 -0.63,-4.32 1.63,-6.61 2.25,-2.31 5.2,-3.08 6.59,-1.73 z"
       id="path1940"
       inkscape:connector-curvature="0"
       style="fill:none;stroke:#283843;stroke-width:0.85000002px;stroke-linecap:round;stroke-linejoin:round" />
    <path
       class="cls-10"
       d="m 191.3,69.99 c 1.46,0.76 1.1,3.1 -0.81,5.22 -1.91,2.12 -4.65,3.24 -6.12,2.48 -1.47,-0.76 -1.11,-3.1 0.8,-5.22 1.92,-2.13 4.66,-3.24 6.13,-2.47"
       id="path1942"
       inkscape:connector-curvature="0"
       style="fill:#bf6a6f;stroke-width:0px" />
    <path
       class="cls-6"
       d="m 191.3,69.99 c 1.46,0.76 1.1,3.1 -0.81,5.22 -1.91,2.12 -4.65,3.24 -6.12,2.48 -1.47,-0.76 -1.11,-3.1 0.8,-5.22 1.92,-2.13 4.66,-3.24 6.13,-2.47 z"
       id="path1944"
       inkscape:connector-curvature="0"
       style="fill:none;stroke:#283843;stroke-width:0.79000002px;stroke-linecap:round;stroke-linejoin:round" />
    <path
       class="cls-10"
       d="m 200.93,60.01 c 1.28,0.46 0.99,2.28 -0.58,4.09 -1.58,1.8 -3.9,2.9 -5.19,2.46 -1.29,-0.45 -1.04,-2.28 0.56,-4.1 1.58,-1.82 3.95,-2.91 5.21,-2.45"
       id="path1946"
       inkscape:connector-curvature="0"
       style="fill:#bf6a6f;stroke-width:0px" />
    <path
       class="cls-5"
       d="m 200.93,60.01 c 1.28,0.46 0.99,2.28 -0.58,4.09 -1.58,1.8 -3.9,2.9 -5.19,2.46 -1.29,-0.45 -1.04,-2.28 0.56,-4.1 1.58,-1.82 3.95,-2.91 5.21,-2.45 z"
       id="path1948"
       inkscape:connector-curvature="0"
       style="fill:none;stroke:#283843;stroke-width:0.85000002px;stroke-linecap:round;stroke-linejoin:round" />
    <path
       class="cls-10"
       d="m 210.13,50.06 c 1.24,0.24 1.11,1.95 -0.31,3.8 -1.42,1.85 -3.56,3.19 -4.81,2.96 -1.26,-0.22 -1.16,-1.93 0.28,-3.81 1.43,-1.88 3.59,-3.2 4.84,-2.96"
       id="path1950"
       inkscape:connector-curvature="0"
       style="fill:#bf6a6f;stroke-width:0px" />
    <path
       class="cls-5"
       d="m 210.13,50.06 c 1.24,0.24 1.11,1.95 -0.31,3.8 -1.42,1.85 -3.56,3.19 -4.81,2.96 -1.26,-0.22 -1.16,-1.93 0.28,-3.81 1.43,-1.88 3.59,-3.2 4.84,-2.96 z"
       id="path1952"
       inkscape:connector-curvature="0"
       style="fill:none;stroke:#283843;stroke-width:0.85000002px;stroke-linecap:round;stroke-linejoin:round" />
    <path
       class="cls-10"
       d="m 218.93,41.12 c 1.04,0.08 0.82,1.41 -0.48,2.98 -1.3,1.57 -3.2,2.79 -4.25,2.73 -1.05,-0.06 -0.84,-1.39 0.48,-2.98 1.31,-1.59 3.22,-2.81 4.25,-2.73"
       id="path1954"
       inkscape:connector-curvature="0"
       style="fill:#bf6a6f;stroke-width:0px" />
    <path
       class="cls-5"
       d="m 218.93,41.12 c 1.04,0.08 0.82,1.41 -0.48,2.98 -1.3,1.57 -3.2,2.79 -4.25,2.73 -1.05,-0.06 -0.84,-1.39 0.48,-2.98 1.31,-1.59 3.22,-2.81 4.25,-2.73 z"
       id="path1956"
       inkscape:connector-curvature="0"
       style="fill:none;stroke:#283843;stroke-width:0.85000002px;stroke-linecap:round;stroke-linejoin:round" />
    <path
       class="cls-10"
       d="m 363.26,42.66 c 0.8,0.67 -0.16,1.62 -2.12,2.14 -1.97,0.52 -4.23,0.4 -5.05,-0.26 -0.82,-0.66 0.13,-1.62 2.13,-2.14 1.99,-0.52 4.25,-0.4 5.05,0.26"
       id="path1958"
       inkscape:connector-curvature="0"
       style="fill:#bf6a6f;stroke-width:0px" />
    <path
       class="cls-5"
       d="m 363.26,42.66 c 0.8,0.67 -0.16,1.62 -2.12,2.14 -1.97,0.52 -4.23,0.4 -5.05,-0.26 -0.82,-0.66 0.13,-1.62 2.13,-2.14 1.99,-0.52 4.25,-0.4 5.05,0.26 z"
       id="path1960"
       inkscape:connector-curvature="0"
       style="fill:none;stroke:#283843;stroke-width:0.85000002px;stroke-linecap:round;stroke-linejoin:round" />
    <path
       class="cls-10"
       d="m 372.36,39.55 c 0.76,0.33 0.24,1.28 -1.15,2.11 -1.39,0.83 -3.14,1.25 -3.91,0.92 -0.77,-0.32 -0.26,-1.27 1.15,-2.11 1.4,-0.84 3.15,-1.25 3.91,-0.92"
       id="path1962"
       inkscape:connector-curvature="0"
       style="fill:#bf6a6f;stroke-width:0px" />
    <path
       class="cls-5"
       d="m 372.36,39.55 c 0.76,0.33 0.24,1.28 -1.15,2.11 -1.39,0.83 -3.14,1.25 -3.91,0.92 -0.77,-0.32 -0.26,-1.27 1.15,-2.11 1.4,-0.84 3.15,-1.25 3.91,-0.92 z"
       id="path1964"
       inkscape:connector-curvature="0"
       style="fill:none;stroke:#283843;stroke-width:0.85000002px;stroke-linecap:round;stroke-linejoin:round" />
    <path
       class="cls-10"
       d="m 379.77,35.74 c 0.67,0.19 0.35,1.04 -0.72,1.89 -1.06,0.85 -2.48,1.4 -3.16,1.22 -0.68,-0.18 -0.36,-1.03 0.72,-1.89 1.08,-0.86 2.49,-1.41 3.16,-1.22"
       id="path1966"
       inkscape:connector-curvature="0"
       style="fill:#bf6a6f;stroke-width:0px" />
    <path
       class="cls-5"
       d="m 379.77,35.74 c 0.67,0.19 0.35,1.04 -0.72,1.89 -1.06,0.85 -2.48,1.4 -3.16,1.22 -0.68,-0.18 -0.36,-1.03 0.72,-1.89 1.08,-0.86 2.49,-1.41 3.16,-1.22 z"
       id="path1968"
       inkscape:connector-curvature="0"
       style="fill:none;stroke:#283843;stroke-width:0.85000002px;stroke-linecap:round;stroke-linejoin:round" />
    <path
       class="cls-10"
       d="m 386.73,31.27 c 0.62,0.11 0.41,0.9 -0.47,1.77 -0.88,0.87 -2.11,1.5 -2.74,1.4 -0.63,-0.1 -0.42,-0.89 0.47,-1.77 0.89,-0.88 2.12,-1.51 2.74,-1.4"
       id="path1970"
       inkscape:connector-curvature="0"
       style="fill:#bf6a6f;stroke-width:0px" />
    <path
       class="cls-5"
       d="m 386.73,31.27 c 0.62,0.11 0.41,0.9 -0.47,1.77 -0.88,0.87 -2.11,1.5 -2.74,1.4 -0.63,-0.1 -0.42,-0.89 0.47,-1.77 0.89,-0.88 2.12,-1.51 2.74,-1.4 z"
       id="path1972"
       inkscape:connector-curvature="0"
       style="fill:none;stroke:#283843;stroke-width:0.85000002px;stroke-linecap:round;stroke-linejoin:round" />
    <path
       class="cls-10"
       d="m 346.23,42.38 c -0.69,0.46 -0.02,1.3 1.5,1.88 1.51,0.58 3.31,0.68 4.01,0.23 0.7,-0.45 0.03,-1.29 -1.5,-1.88 -1.53,-0.58 -3.32,-0.69 -4.01,-0.23"
       id="path1974"
       inkscape:connector-curvature="0"
       style="fill:#bf6a6f;stroke-width:0px" />
    <path
       class="cls-5"
       d="m 346.23,42.38 c -0.69,0.46 -0.02,1.3 1.5,1.88 1.51,0.58 3.31,0.68 4.01,0.23 0.7,-0.45 0.03,-1.29 -1.5,-1.88 -1.53,-0.58 -3.32,-0.69 -4.01,-0.23 z"
       id="path1976"
       inkscape:connector-curvature="0"
       style="fill:none;stroke:#283843;stroke-width:0.85000002px;stroke-linecap:round;stroke-linejoin:round" />
    <path
       class="cls-10"
       d="m 338.27,39.91 c -0.63,0.3 -0.16,1.08 1.03,1.74 1.2,0.66 2.69,0.95 3.32,0.65 0.64,-0.3 0.18,-1.07 -1.03,-1.74 -1.21,-0.66 -2.7,-0.96 -3.32,-0.65"
       id="path1978"
       inkscape:connector-curvature="0"
       style="fill:#bf6a6f;stroke-width:0px" />
    <path
       class="cls-5"
       d="m 338.27,39.91 c -0.63,0.3 -0.16,1.08 1.03,1.74 1.2,0.66 2.69,0.95 3.32,0.65 0.64,-0.3 0.18,-1.07 -1.03,-1.74 -1.21,-0.66 -2.7,-0.96 -3.32,-0.65 z"
       id="path1980"
       inkscape:connector-curvature="0"
       style="fill:none;stroke:#283843;stroke-width:0.85000002px;stroke-linecap:round;stroke-linejoin:round" />
    <path
       class="cls-10"
       d="m 331.58,35.84 c -0.6,0.18 -0.3,0.94 0.67,1.71 0.98,0.76 2.27,1.24 2.88,1.07 0.62,-0.17 0.31,-0.94 -0.67,-1.71 -0.99,-0.77 -2.28,-1.25 -2.88,-1.07"
       id="path1982"
       inkscape:connector-curvature="0"
       style="fill:#bf6a6f;stroke-width:0px" />
    <path
       class="cls-5"
       d="m 331.58,35.84 c -0.6,0.18 -0.3,0.94 0.67,1.71 0.98,0.76 2.27,1.24 2.88,1.07 0.62,-0.17 0.31,-0.94 -0.67,-1.71 -0.99,-0.77 -2.28,-1.25 -2.88,-1.07 z"
       id="path1984"
       inkscape:connector-curvature="0"
       style="fill:none;stroke:#283843;stroke-width:0.85000002px;stroke-linecap:round;stroke-linejoin:round" />
    <path
       class="cls-10"
       d="m 5.22,167 c -0.57,1.63 -2.19,2.68 -4.47,3.03 -1.14,0.18 -2.4,0.1 -3.76,-0.13 -1.36,-0.23 -2.75,-0.76 -4.16,-1.42 -1.37,-0.74 -2.61,-1.57 -3.61,-2.53 -0.99,-0.97 -1.79,-1.96 -2.32,-2.98 -1.06,-2.06 -1.15,-4 -0.16,-5.4 0.99,-1.41 2.84,-2.06 4.91,-2.03 1.05,0.01 2.19,0.13 3.33,0.46 1.15,0.31 2.35,0.72 3.51,1.36 1.2,0.56 2.23,1.3 3.17,2.04 0.94,0.73 1.71,1.59 2.33,2.43 1.25,1.67 1.8,3.55 1.24,5.17"
       id="path1986"
       inkscape:connector-curvature="0"
       style="fill:#bf6a6f;stroke-width:0px" />
    <path
       class="cls-5"
       d="m 5.22,167 c -0.57,1.63 -2.19,2.68 -4.47,3.03 -1.14,0.18 -2.4,0.1 -3.76,-0.13 -1.36,-0.23 -2.75,-0.76 -4.16,-1.42 -1.37,-0.74 -2.61,-1.57 -3.61,-2.53 -0.99,-0.97 -1.79,-1.96 -2.32,-2.98 -1.06,-2.06 -1.15,-4 -0.16,-5.4 0.99,-1.41 2.84,-2.06 4.91,-2.03 1.05,0.01 2.19,0.13 3.33,0.46 1.15,0.31 2.35,0.72 3.51,1.36 1.2,0.56 2.23,1.3 3.17,2.04 0.94,0.73 1.71,1.59 2.33,2.43 1.25,1.67 1.8,3.55 1.24,5.17 z"
       id="path1988"
       inkscape:connector-curvature="0"
       style="fill:none;stroke:#283843;stroke-width:0.85000002px;stroke-linecap:round;stroke-linejoin:round" />
    <path
       class="cls-10"
       d="m 30.6,171.77 c -0.07,1.65 -1.26,3.06 -3.21,4 -0.97,0.48 -2.13,0.81 -3.41,0.96 -0.64,0.08 -1.31,0.13 -2,0.13 -0.69,-0.02 -1.4,-0.08 -2.12,-0.19 -1.44,-0.19 -2.78,-0.62 -3.96,-1.15 -1.18,-0.52 -2.19,-1.19 -2.98,-1.94 -1.6,-1.46 -2.29,-3.2 -1.86,-4.79 0.43,-1.58 1.86,-2.71 3.76,-3.39 0.95,-0.32 2.02,-0.52 3.17,-0.62 1.15,-0.08 2.37,-0.02 3.63,0.15 0.63,0.09 1.24,0.23 1.83,0.4 0.59,0.14 1.16,0.32 1.7,0.53 1.08,0.43 2.04,0.96 2.86,1.54 1.63,1.19 2.65,2.74 2.58,4.37"
       id="path1990"
       inkscape:connector-curvature="0"
       style="fill:#bf6a6f;stroke-width:0px" />
    <path
       class="cls-5"
       d="m 30.6,171.77 c -0.07,1.65 -1.26,3.06 -3.21,4 -0.97,0.48 -2.13,0.81 -3.41,0.96 -0.64,0.08 -1.31,0.13 -2,0.13 -0.69,-0.02 -1.4,-0.08 -2.12,-0.19 -1.44,-0.19 -2.78,-0.62 -3.96,-1.15 -1.18,-0.52 -2.19,-1.19 -2.98,-1.94 -1.6,-1.46 -2.29,-3.2 -1.86,-4.79 0.43,-1.58 1.86,-2.71 3.76,-3.39 0.95,-0.32 2.02,-0.52 3.17,-0.62 1.15,-0.08 2.37,-0.02 3.63,0.15 0.63,0.09 1.24,0.23 1.83,0.4 0.59,0.14 1.16,0.32 1.7,0.53 1.08,0.43 2.04,0.96 2.86,1.54 1.63,1.19 2.65,2.74 2.58,4.37 z"
       id="path1992"
       inkscape:connector-curvature="0"
       style="fill:none;stroke:#283843;stroke-width:0.85000002px;stroke-linecap:round;stroke-linejoin:round" />
    <path
       class="cls-10"
       d="m 55.4,170.06 c 0.27,1.52 -0.53,3.14 -2.11,4.38 -0.79,0.63 -1.77,1.2 -2.9,1.64 -1.13,0.41 -2.4,0.72 -3.75,0.87 -1.35,0.12 -2.66,0.06 -3.85,-0.14 -1.19,-0.19 -2.27,-0.59 -3.17,-1.05 -1.8,-0.92 -2.89,-2.36 -2.9,-3.9 -0.02,-1.56 1,-2.95 2.6,-4.05 0.8,-0.55 1.75,-0.98 2.8,-1.34 1.05,-0.37 2.21,-0.61 3.44,-0.72 1.23,-0.14 2.41,-0.11 3.52,0.05 1.1,0.14 2.12,0.4 3.02,0.78 1.78,0.79 3.04,1.95 3.32,3.49"
       id="path1994"
       inkscape:connector-curvature="0"
       style="fill:#bf6a6f;stroke-width:0px" />
    <path
       class="cls-5"
       d="m 55.4,170.06 c 0.27,1.52 -0.53,3.14 -2.11,4.38 -0.79,0.63 -1.77,1.2 -2.9,1.64 -1.13,0.41 -2.4,0.72 -3.75,0.87 -1.35,0.12 -2.66,0.06 -3.85,-0.14 -1.19,-0.19 -2.27,-0.59 -3.17,-1.05 -1.8,-0.92 -2.89,-2.36 -2.9,-3.9 -0.02,-1.56 1,-2.95 2.6,-4.05 0.8,-0.55 1.75,-0.98 2.8,-1.34 1.05,-0.37 2.21,-0.61 3.44,-0.72 1.23,-0.14 2.41,-0.11 3.52,0.05 1.1,0.14 2.12,0.4 3.02,0.78 1.78,0.79 3.04,1.95 3.32,3.49 z"
       id="path1996"
       inkscape:connector-curvature="0"
       style="fill:none;stroke:#283843;stroke-width:0.85000002px;stroke-linecap:round;stroke-linejoin:round" />
    <path
       class="cls-10"
       d="m 151.31,119.18 c 1.7,0.73 1.11,3.26 -1.26,5.67 -0.59,0.6 -1.24,1.13 -1.9,1.58 -0.67,0.44 -1.38,0.79 -2.04,1.04 -1.33,0.51 -2.55,0.61 -3.34,0.21 -0.79,-0.4 -1.02,-1.24 -0.76,-2.24 0.13,-0.5 0.39,-1.05 0.75,-1.62 0.35,-0.58 0.81,-1.17 1.39,-1.75 2.28,-2.32 5.51,-3.6 7.16,-2.89"
       id="path1998"
       inkscape:connector-curvature="0"
       style="fill:#bf6a6f;stroke-width:0px" />
    <path
       class="cls-5"
       d="m 151.31,119.18 c 1.7,0.73 1.11,3.26 -1.26,5.67 -0.59,0.6 -1.24,1.13 -1.9,1.58 -0.67,0.44 -1.38,0.79 -2.04,1.04 -1.33,0.51 -2.55,0.61 -3.34,0.21 -0.79,-0.4 -1.02,-1.24 -0.76,-2.24 0.13,-0.5 0.39,-1.05 0.75,-1.62 0.35,-0.58 0.81,-1.17 1.39,-1.75 2.28,-2.32 5.51,-3.6 7.16,-2.89 z"
       id="path2000"
       inkscape:connector-curvature="0"
       style="fill:none;stroke:#283843;stroke-width:0.85000002px;stroke-linecap:round;stroke-linejoin:round" />
    <path
       class="cls-10"
       d="m 164.18,104.3 c 1.4,-0.27 1.2,1.42 -0.42,3.78 -0.4,0.59 -0.86,1.16 -1.33,1.69 -0.48,0.53 -1,1.02 -1.49,1.44 -0.99,0.84 -1.94,1.4 -2.6,1.49 -0.66,0.09 -0.92,-0.3 -0.82,-0.98 0.05,-0.34 0.2,-0.76 0.43,-1.24 0.22,-0.47 0.52,-1.01 0.91,-1.57 1.55,-2.27 3.95,-4.33 5.32,-4.59"
       id="path2002"
       inkscape:connector-curvature="0"
       style="fill:#bf6a6f;stroke-width:0px" />
    <path
       class="cls-5"
       d="m 164.18,104.3 c 1.4,-0.27 1.2,1.42 -0.42,3.78 -0.4,0.59 -0.86,1.16 -1.33,1.69 -0.48,0.53 -1,1.02 -1.49,1.44 -0.99,0.84 -1.94,1.4 -2.6,1.49 -0.66,0.09 -0.92,-0.3 -0.82,-0.98 0.05,-0.34 0.2,-0.76 0.43,-1.24 0.22,-0.47 0.52,-1.01 0.91,-1.57 1.55,-2.27 3.95,-4.33 5.32,-4.59 z"
       id="path2004"
       inkscape:connector-curvature="0"
       style="fill:none;stroke:#283843;stroke-width:0.85000002px;stroke-linecap:round;stroke-linejoin:round" />
    <path
       class="cls-10"
       d="m 175.23,92.61 c 1.07,-0.21 0.92,1.09 -0.32,2.89 -0.31,0.45 -0.66,0.89 -1.02,1.29 -0.37,0.4 -0.77,0.78 -1.14,1.1 -0.76,0.64 -1.48,1.07 -1.99,1.14 -0.51,0.07 -0.71,-0.23 -0.63,-0.75 0.04,-0.26 0.16,-0.58 0.33,-0.95 0.17,-0.36 0.4,-0.77 0.7,-1.21 1.19,-1.73 3.03,-3.31 4.07,-3.51"
       id="path2006"
       inkscape:connector-curvature="0"
       style="fill:#bf6a6f;stroke-width:0px" />
    <path
       class="cls-5"
       d="m 175.23,92.61 c 1.07,-0.21 0.92,1.09 -0.32,2.89 -0.31,0.45 -0.66,0.89 -1.02,1.29 -0.37,0.4 -0.77,0.78 -1.14,1.1 -0.76,0.64 -1.48,1.07 -1.99,1.14 -0.51,0.07 -0.71,-0.23 -0.63,-0.75 0.04,-0.26 0.16,-0.58 0.33,-0.95 0.17,-0.36 0.4,-0.77 0.7,-1.21 1.19,-1.73 3.03,-3.31 4.07,-3.51 z"
       id="path2008"
       inkscape:connector-curvature="0"
       style="fill:none;stroke:#283843;stroke-width:0.85000002px;stroke-linecap:round;stroke-linejoin:round" />
    <path
       class="cls-10"
       d="m 135.52,131.65 c 1.92,1.02 0.99,3.94 -2.03,6.54 -0.75,0.65 -1.57,1.21 -2.39,1.67 -0.83,0.45 -1.69,0.79 -2.5,1.03 -1.62,0.46 -3.05,0.47 -3.94,-0.08 -0.89,-0.55 -1.08,-1.55 -0.67,-2.71 0.2,-0.58 0.56,-1.19 1.04,-1.83 0.47,-0.64 1.07,-1.29 1.8,-1.92 2.91,-2.5 6.82,-3.69 8.69,-2.7"
       id="path2010"
       inkscape:connector-curvature="0"
       style="fill:#bf6a6f;stroke-width:0px" />
    <path
       class="cls-5"
       d="m 135.52,131.65 c 1.92,1.02 0.99,3.94 -2.03,6.54 -0.75,0.65 -1.57,1.21 -2.39,1.67 -0.83,0.45 -1.69,0.79 -2.5,1.03 -1.62,0.46 -3.05,0.47 -3.94,-0.08 -0.89,-0.55 -1.08,-1.55 -0.67,-2.71 0.2,-0.58 0.56,-1.19 1.04,-1.83 0.47,-0.64 1.07,-1.29 1.8,-1.92 2.91,-2.5 6.82,-3.69 8.69,-2.7 z"
       id="path2012"
       inkscape:connector-curvature="0"
       style="fill:none;stroke:#283843;stroke-width:0.85000002px;stroke-linecap:round;stroke-linejoin:round" />
    <path
       class="cls-10"
       d="m 116.91,144.69 c 1.92,1.36 0.53,4.36 -3.06,6.74 -0.9,0.59 -1.84,1.09 -2.78,1.47 -0.96,0.38 -1.93,0.63 -2.82,0.77 -1.8,0.28 -3.34,0.09 -4.22,-0.62 -0.88,-0.71 -0.95,-1.81 -0.35,-3 0.3,-0.6 0.77,-1.21 1.36,-1.82 0.59,-0.63 1.32,-1.24 2.19,-1.82 3.45,-2.29 7.82,-3.05 9.69,-1.72"
       id="path2014"
       inkscape:connector-curvature="0"
       style="fill:#bf6a6f;stroke-width:0px" />
    <path
       class="cls-5"
       d="m 116.91,144.69 c 1.92,1.36 0.53,4.36 -3.06,6.74 -0.9,0.59 -1.84,1.09 -2.78,1.47 -0.96,0.38 -1.93,0.63 -2.82,0.77 -1.8,0.28 -3.34,0.09 -4.22,-0.62 -0.88,-0.71 -0.95,-1.81 -0.35,-3 0.3,-0.6 0.77,-1.21 1.36,-1.82 0.59,-0.63 1.32,-1.24 2.19,-1.82 3.45,-2.29 7.82,-3.05 9.69,-1.72 z"
       id="path2016"
       inkscape:connector-curvature="0"
       style="fill:none;stroke:#283843;stroke-width:0.85000002px;stroke-linecap:round;stroke-linejoin:round" />
    <path
       class="cls-10"
       d="m 95.59,155.06 c 2.05,1.72 0.19,5 -4.1,7.36 -1.07,0.59 -2.19,1.06 -3.3,1.41 -1.12,0.34 -2.24,0.53 -3.27,0.61 -2.06,0.15 -3.8,-0.21 -4.73,-1.1 -0.94,-0.89 -0.9,-2.14 -0.12,-3.43 0.39,-0.65 0.98,-1.29 1.72,-1.94 0.72,-0.65 1.62,-1.29 2.65,-1.86 4.13,-2.28 9.15,-2.73 11.15,-1.05"
       id="path2018"
       inkscape:connector-curvature="0"
       style="fill:#bf6a6f;stroke-width:0px" />
    <path
       class="cls-5"
       d="m 95.59,155.06 c 2.05,1.72 0.19,5 -4.1,7.36 -1.07,0.59 -2.19,1.06 -3.3,1.41 -1.12,0.34 -2.24,0.53 -3.27,0.61 -2.06,0.15 -3.8,-0.21 -4.73,-1.1 -0.94,-0.89 -0.9,-2.14 -0.12,-3.43 0.39,-0.65 0.98,-1.29 1.72,-1.94 0.72,-0.65 1.62,-1.29 2.65,-1.86 4.13,-2.28 9.15,-2.73 11.15,-1.05 z"
       id="path2020"
       inkscape:connector-curvature="0"
       style="fill:none;stroke:#283843;stroke-width:0.85000002px;stroke-linecap:round;stroke-linejoin:round" />
    <path
       class="cls-11"
       d="m -50.04,77.7 c 4.17,6.91 7.76,14.38 12.05,21.01 13.44,20.76 39.9,33.58 64.51,27.21 42.8,-11.07 52.45,-70.62 64.49,-106.19 6.55,-19.34 13.36,-38.98 24.33,-56.34 21.14,-33.43 75.4,-55.32 107.62,-23.55 18.19,17.94 21.88,45.23 20.94,69.62 -1.13,29.19 -8.82,58.71 -17.28,86.55 -3.25,10.68 -5.3,26.22 0.13,36.51 14.88,28.21 47.62,-18.92 66.13,-8.25 4.67,2.7 8.18,14.61 7.24,16.89 -0.94,2.27 -12.2,7.5 -17.13,-10.62 -1.88,-6.91 -38.56,33.17 -61.01,14.72 -8.23,-6.77 -9.59,-19.51 -9.84,-29.63 -0.64,-25.99 7.44,-51.81 10.29,-77.61 3.05,-27.56 6.72,-87.95 -35.99,-86.62 -27.73,0.86 -42.34,21.24 -49.93,45.5 -13.33,42.6 -14.93,88.5 -33.55,129.5 -19.11,41.76 -60.69,66.82 -106.77,66.64 -39.93,-0.16 -78.53,-18.72 -107.23,-46.47 -9.12,-8.82 -17.56,-18.92 -21.32,-31.04 -10.38,-33.47 21.37,-69.59 56.56,-60.12 12.42,3.34 19.7,12.21 25.77,22.28"
       id="path2022"
       inkscape:connector-curvature="0"
       style="fill:#5d95ac;stroke-width:0px" />
  </g>
  <g
     class="cls-25"
     clip-path="url(#clippath-8)"
     id="g2030"
     transform="translate(0,-1.23)">
    <path
       class="cls-9"
       d="m -55.76,129.46 c 0,0 23.74,18.87 72,4.95 49.2,-14.19 74.28,-89.78 42.01,-69.11 -9.85,6.31 -82.2,51.7 -100.59,23.78 -23.33,-35.42 -13.41,40.38 -13.41,40.38"
       id="path2026"
       inkscape:connector-curvature="0"
       style="fill:#356170;stroke-width:0px" />
    <path
       class="cls-15"
       d="m -126.62,81.49 c 24.94,33.35 124.8,135.1 204.02,37.57 27.61,-33.99 30.25,-87.79 47.54,-125.92 9.84,-21.72 28.03,-40.19 61.51,-41.74 l 7.5,18.35 c 0,0 -33.4,-0.11 -42.03,28.47 -8.63,28.58 -20.24,115.6 -56.41,164.81 -36.17,49.2 -114.67,54.05 -134.87,48.73 -20.2,-5.32 -110.64,-44.46 -114.63,-78.51 -3.99,-34.06 15.07,-59 15.07,-59 l 12.3,7.23 z"
       id="path2028"
       inkscape:connector-curvature="0"
       style="fill:#f3b9c9;stroke-width:0px" />
  </g>
  <g
     class="cls-22"
     clip-path="url(#clippath-9)"
     id="g2034"
     transform="translate(0,-1.23)">
    <path
       class="cls-8"
       d="m -35.7,155.86 c 0,0 19.87,7.62 50.75,3.88 30.88,-3.74 59.88,-29.93 71.33,-41.68 11.46,-11.75 40.75,-71.73 40.75,-71.73 0,0 9.89,101.37 -71.34,140.71 -32.43,15.7 -70.09,19.31 -70.09,19.31 l -21.41,-50.49 z"
       id="path2032"
       inkscape:connector-curvature="0"
       style="fill:#a87686;stroke-width:0px" />
  </g>
  <g
     class="cls-27"
     clip-path="url(#clippath-10)"
     id="g2042"
     transform="translate(0,-1.23)">
    <path
       class="cls-5"
       d="m -126.62,81.49 c 24.94,33.35 124.8,135.1 204.02,37.57 27.61,-33.99 30.25,-87.79 47.54,-125.92 9.84,-21.72 28.03,-40.19 61.51,-41.74 l 7.5,18.35 c 0,0 -33.4,-0.11 -42.03,28.47 -8.63,28.58 -20.24,115.6 -56.41,164.81 -36.17,49.2 -114.67,54.05 -134.87,48.73 -20.2,-5.32 -110.64,-44.46 -114.63,-78.51 -3.99,-34.06 15.07,-59 15.07,-59 l 12.3,7.23 z"
       id="path2036"
       inkscape:connector-curvature="0"
       style="fill:none;stroke:#283843;stroke-width:0.85000002px;stroke-linecap:round;stroke-linejoin:round" />
    <path
       class="cls-14"
       d="m 84.87,39.99 c 0,0 25.36,-86.54 70.92,-102.44 45.56,-15.9 66.27,1.91 73.59,10.85 7.32,8.94 16.66,14.19 16.66,14.19 0,0 -22.01,-56.7 -54.81,-52.43 -32.79,4.27 -66.57,13.3 -88.28,40.19 -21.71,26.89 -18.08,89.64 -18.08,89.64"
       id="path2038"
       inkscape:connector-curvature="0"
       style="fill:#87c4d8;stroke-width:0px" />
    <path
       class="cls-9"
       d="m 210.8,158.78 73.08,-7.5 c 0,0 2.88,-16.11 -0.56,-22 -5.9,-10.11 -47.62,36.17 -66.01,8.25 -23.33,-35.42 -6.51,21.25 -6.51,21.25"
       id="path2040"
       inkscape:connector-curvature="0"
       style="fill:#356170;stroke-width:0px" />
  </g>
  <g
     class="cls-1"
     clip-path="url(#clippath-11)"
     id="g2162"
     transform="translate(0,-1.23)">
    <path
       class="cls-5"
       d="m -50.04,77.7 c 4.17,6.91 7.76,14.38 12.05,21.01 13.44,20.76 39.9,33.58 64.51,27.21 42.8,-11.07 52.45,-70.62 64.49,-106.19 6.55,-19.34 13.36,-38.98 24.33,-56.34 21.14,-33.43 75.4,-55.32 107.62,-23.55 18.19,17.94 21.88,45.23 20.94,69.62 -1.13,29.19 -8.82,58.71 -17.28,86.55 -3.25,10.68 -5.3,26.22 0.13,36.51 14.88,28.21 47.62,-18.92 66.13,-8.25 4.67,2.7 8.18,14.61 7.24,16.89 -0.94,2.27 -12.2,7.5 -17.13,-10.62 -1.88,-6.91 -38.56,33.17 -61.01,14.72 -8.23,-6.77 -9.59,-19.51 -9.84,-29.63 -0.64,-25.99 7.44,-51.81 10.29,-77.61 3.05,-27.56 6.72,-87.95 -35.99,-86.62 -27.73,0.86 -42.34,21.24 -49.93,45.5 -13.33,42.6 -14.93,88.5 -33.55,129.5 -19.11,41.76 -60.69,66.82 -106.77,66.64 -39.93,-0.16 -78.53,-18.72 -107.23,-46.47 -9.12,-8.82 -17.56,-18.92 -21.32,-31.04 -10.38,-33.47 21.37,-69.59 56.56,-60.12 12.42,3.34 19.7,12.21 25.77,22.28 z"
       id="path2044"
       inkscape:connector-curvature="0"
       style="fill:none;stroke:#283843;stroke-width:0.85000002px;stroke-linecap:round;stroke-linejoin:round" />
    <path
       class="cls-10"
       d="m -3.28,169.91 c -0.1,3.54 -4.95,5 -7.81,5.29 -3,0.3 -6.4,-0.14 -9.18,-1.32 -1.37,-0.58 -2.56,-1.29 -3.51,-2.05 -1.89,-1.58 -2.8,-3.39 -2.39,-5.07 0.41,-1.67 2.02,-2.9 4.22,-3.56 1.11,-0.36 2.36,-0.57 3.71,-0.63 3.22,-0.16 6.56,0.37 9.56,1.61 2.28,0.94 5.48,2.9 5.4,5.73"
       id="path2046"
       inkscape:connector-curvature="0"
       style="fill:#bf6a6f;stroke-width:0px" />
    <path
       class="cls-5"
       d="m -3.28,169.91 c -0.1,3.54 -4.95,5 -7.81,5.29 -3,0.3 -6.4,-0.14 -9.18,-1.32 -1.37,-0.58 -2.56,-1.29 -3.51,-2.05 -1.89,-1.58 -2.8,-3.39 -2.39,-5.07 0.41,-1.67 2.02,-2.9 4.22,-3.56 1.11,-0.36 2.36,-0.57 3.71,-0.63 3.22,-0.16 6.56,0.37 9.56,1.61 2.28,0.94 5.48,2.9 5.4,5.73 z"
       id="path2048"
       inkscape:connector-curvature="0"
       style="fill:none;stroke:#283843;stroke-width:0.85000002px;stroke-linecap:round;stroke-linejoin:round" />
    <path
       class="cls-10"
       d="m 24.96,166.84 c 0.43,1.57 -0.38,3.35 -2.17,4.88 -0.89,0.74 -2.02,1.46 -3.33,2.02 -2.66,1.14 -5.7,1.62 -8.58,1.38 -2.77,-0.23 -7.53,-1.52 -7.65,-5 -0.06,-1.64 1.11,-3.13 2.93,-4.36 2.47,-1.65 5.38,-2.35 8.3,-2.65 1.63,-0.17 3.33,-0.15 4.95,0.12 2.1,0.36 4.93,1.31 5.56,3.62"
       id="path2050"
       inkscape:connector-curvature="0"
       style="fill:#bf6a6f;stroke-width:0px" />
    <path
       class="cls-5"
       d="m 24.96,166.84 c 0.43,1.57 -0.38,3.35 -2.17,4.88 -0.89,0.74 -2.02,1.46 -3.33,2.02 -2.66,1.14 -5.7,1.62 -8.58,1.38 -2.77,-0.23 -7.53,-1.52 -7.65,-5 -0.06,-1.64 1.11,-3.13 2.93,-4.36 2.47,-1.65 5.38,-2.35 8.3,-2.65 1.63,-0.17 3.33,-0.15 4.95,0.12 2.1,0.36 4.93,1.31 5.56,3.62 z"
       id="path2052"
       inkscape:connector-curvature="0"
       style="fill:none;stroke:#283843;stroke-width:0.85000002px;stroke-linecap:round;stroke-linejoin:round" />
    <path
       class="cls-10"
       d="m 49.89,156.2 c 0.77,1.38 0.48,3.27 -0.59,4.97 -2.85,4.49 -9.73,7.61 -14.94,6.35 -1.35,-0.33 -2.72,-1.08 -3.22,-2.38 -0.65,-1.68 0.35,-3.59 1.42,-4.86 1.33,-1.59 3.35,-3.12 5.81,-4.28 2.65,-1.24 5.78,-2.18 8.71,-1.61 1.41,0.27 2.32,0.93 2.81,1.8"
       id="path2054"
       inkscape:connector-curvature="0"
       style="fill:#bf6a6f;stroke-width:0px" />
    <path
       class="cls-5"
       d="m 49.89,156.2 c 0.77,1.38 0.48,3.27 -0.59,4.97 -2.85,4.49 -9.73,7.61 -14.94,6.35 -1.35,-0.33 -2.72,-1.08 -3.22,-2.38 -0.65,-1.68 0.35,-3.59 1.42,-4.86 1.33,-1.59 3.35,-3.12 5.81,-4.28 2.65,-1.24 5.78,-2.18 8.71,-1.61 1.41,0.27 2.32,0.93 2.81,1.8 z"
       id="path2056"
       inkscape:connector-curvature="0"
       style="fill:none;stroke:#283843;stroke-width:0.85000002px;stroke-linecap:round;stroke-linejoin:round" />
    <path
       class="cls-10"
       d="m 71.41,140.71 c 1.98,2.05 0.32,5.62 -1.04,7.53 -2.23,3.12 -5.79,5.76 -9.64,6.38 -2.06,0.31 -3.76,-0.17 -4.59,-1.38 -1.74,-2.53 0.8,-6.11 2.43,-8.05 2.1,-2.5 5.01,-4.44 8.18,-5.28 1.92,-0.48 3.64,-0.27 4.66,0.79"
       id="path2058"
       inkscape:connector-curvature="0"
       style="fill:#bf6a6f;stroke-width:0px" />
    <path
       class="cls-5"
       d="m 71.41,140.71 c 1.98,2.05 0.32,5.62 -1.04,7.53 -2.23,3.12 -5.79,5.76 -9.64,6.38 -2.06,0.31 -3.76,-0.17 -4.59,-1.38 -1.74,-2.53 0.8,-6.11 2.43,-8.05 2.1,-2.5 5.01,-4.44 8.18,-5.28 1.92,-0.48 3.64,-0.27 4.66,0.79 z"
       id="path2060"
       inkscape:connector-curvature="0"
       style="fill:none;stroke:#283843;stroke-width:0.85000002px;stroke-linecap:round;stroke-linejoin:round" />
    <path
       class="cls-10"
       d="m 87.63,121.49 c 3.31,2.25 0.16,8.23 -1.64,10.47 -1.86,2.3 -7.29,6.69 -10.26,3.87 -1.03,-0.98 -1.1,-2.51 -0.87,-3.83 0.76,-4.3 4.35,-8.67 8.33,-10.4 1.68,-0.73 3.28,-0.89 4.44,-0.11"
       id="path2062"
       inkscape:connector-curvature="0"
       style="fill:#bf6a6f;stroke-width:0px" />
    <path
       class="cls-5"
       d="m 87.63,121.49 c 3.31,2.25 0.16,8.23 -1.64,10.47 -1.86,2.3 -7.29,6.69 -10.26,3.87 -1.03,-0.98 -1.1,-2.51 -0.87,-3.83 0.76,-4.3 4.35,-8.67 8.33,-10.4 1.68,-0.73 3.28,-0.89 4.44,-0.11 z"
       id="path2064"
       inkscape:connector-curvature="0"
       style="fill:none;stroke:#283843;stroke-width:0.85000002px;stroke-linecap:round;stroke-linejoin:round" />
    <path
       class="cls-10"
       d="m 98.3,100.5 c 2.43,0.92 2.99,5.46 0.88,10.05 -0.53,1.14 -1.17,2.16 -1.86,3.04 -0.71,0.87 -1.46,1.58 -2.22,2.11 -1.54,1.04 -3.05,1.33 -4.19,0.69 -1.13,-0.64 -1.69,-2.07 -1.71,-3.81 -0.03,-0.88 0.08,-1.85 0.32,-2.85 0.22,-1.02 0.59,-2.07 1.08,-3.12 1.94,-4.21 5.25,-7.03 7.7,-6.1"
       id="path2066"
       inkscape:connector-curvature="0"
       style="fill:#bf6a6f;stroke-width:0px" />
    <path
       class="cls-5"
       d="m 98.3,100.5 c 2.43,0.92 2.99,5.46 0.88,10.05 -0.53,1.14 -1.17,2.16 -1.86,3.04 -0.71,0.87 -1.46,1.58 -2.22,2.11 -1.54,1.04 -3.05,1.33 -4.19,0.69 -1.13,-0.64 -1.69,-2.07 -1.71,-3.81 -0.03,-0.88 0.08,-1.85 0.32,-2.85 0.22,-1.02 0.59,-2.07 1.08,-3.12 1.94,-4.21 5.25,-7.03 7.7,-6.1 z"
       id="path2068"
       inkscape:connector-curvature="0"
       style="fill:none;stroke:#283843;stroke-width:0.85000002px;stroke-linecap:round;stroke-linejoin:round" />
    <path
       class="cls-10"
       d="m 105.99,78.24 c 2.34,0.66 3.25,4.78 1.88,9.18 -1.37,4.41 -4.49,7.29 -6.78,6.48 -2.31,-0.82 -2.98,-4.86 -1.66,-9.11 1.33,-4.25 4.21,-7.21 6.56,-6.54"
       id="path2070"
       inkscape:connector-curvature="0"
       style="fill:#bf6a6f;stroke-width:0px" />
    <path
       class="cls-5"
       d="m 105.99,78.24 c 2.34,0.66 3.25,4.78 1.88,9.18 -1.37,4.41 -4.49,7.29 -6.78,6.48 -2.31,-0.82 -2.98,-4.86 -1.66,-9.11 1.33,-4.25 4.21,-7.21 6.56,-6.54 z"
       id="path2072"
       inkscape:connector-curvature="0"
       style="fill:none;stroke:#283843;stroke-width:0.85000002px;stroke-linecap:round;stroke-linejoin:round" />
    <path
       class="cls-10"
       d="m 112.22,57.21 c 2.21,0.55 3.16,4.32 2.11,8.43 -1.06,4.11 -3.73,6.96 -5.93,6.36 -2.19,-0.6 -3.09,-4.35 -2.04,-8.41 1.04,-4.07 3.66,-6.93 5.86,-6.38"
       id="path2074"
       inkscape:connector-curvature="0"
       style="fill:#bf6a6f;stroke-width:0px" />
    <path
       class="cls-5"
       d="m 112.22,57.21 c 2.21,0.55 3.16,4.32 2.11,8.43 -1.06,4.11 -3.73,6.96 -5.93,6.36 -2.19,-0.6 -3.09,-4.35 -2.04,-8.41 1.04,-4.07 3.66,-6.93 5.86,-6.38 z"
       id="path2076"
       inkscape:connector-curvature="0"
       style="fill:none;stroke:#283843;stroke-width:0.85000002px;stroke-linecap:round;stroke-linejoin:round" />
    <path
       class="cls-10"
       d="m 117.38,37.34 c 2.04,0.53 2.9,4.01 1.95,7.79 -0.95,3.78 -3.37,6.44 -5.42,5.93 -2.04,-0.51 -2.93,-4 -1.98,-7.8 0.96,-3.8 3.41,-6.46 5.45,-5.93"
       id="path2078"
       inkscape:connector-curvature="0"
       style="fill:#bf6a6f;stroke-width:0px" />
    <path
       class="cls-5"
       d="m 117.38,37.34 c 2.04,0.53 2.9,4.01 1.95,7.79 -0.95,3.78 -3.37,6.44 -5.42,5.93 -2.04,-0.51 -2.93,-4 -1.98,-7.8 0.96,-3.8 3.41,-6.46 5.45,-5.93 z"
       id="path2080"
       inkscape:connector-curvature="0"
       style="fill:none;stroke:#283843;stroke-width:0.85000002px;stroke-linecap:round;stroke-linejoin:round" />
    <path
       class="cls-10"
       d="m 122.07,18.38 c 1.85,0.57 2.51,3.79 1.53,7.21 -0.98,3.43 -3.24,5.82 -5.12,5.31 -1.87,-0.5 -2.63,-3.75 -1.63,-7.24 1,-3.49 3.37,-5.86 5.22,-5.28"
       id="path2082"
       inkscape:connector-curvature="0"
       style="fill:#bf6a6f;stroke-width:0px" />
    <path
       class="cls-5"
       d="m 122.07,18.38 c 1.85,0.57 2.51,3.79 1.53,7.21 -0.98,3.43 -3.24,5.82 -5.12,5.31 -1.87,-0.5 -2.63,-3.75 -1.63,-7.24 1,-3.49 3.37,-5.86 5.22,-5.28 z"
       id="path2084"
       inkscape:connector-curvature="0"
       style="fill:none;stroke:#283843;stroke-width:0.85000002px;stroke-linecap:round;stroke-linejoin:round" />
    <path
       class="cls-10"
       d="m 127.9,1.12 c 1.63,0.67 1.98,3.63 0.88,6.66 -1.11,3.03 -3.29,5.07 -4.98,4.52 -1.68,-0.55 -2.2,-3.57 -1.05,-6.72 1.14,-3.15 3.51,-5.13 5.15,-4.45"
       id="path2086"
       inkscape:connector-curvature="0"
       style="fill:#bf6a6f;stroke-width:0px" />
    <path
       class="cls-5"
       d="m 127.9,1.12 c 1.63,0.67 1.98,3.63 0.88,6.66 -1.11,3.03 -3.29,5.07 -4.98,4.52 -1.68,-0.55 -2.2,-3.57 -1.05,-6.72 1.14,-3.15 3.51,-5.13 5.15,-4.45 z"
       id="path2088"
       inkscape:connector-curvature="0"
       style="fill:none;stroke:#283843;stroke-width:0.85000002px;stroke-linecap:round;stroke-linejoin:round" />
    <path
       class="cls-10"
       d="m 134.78,-13.75 c 1.36,0.84 1.26,3.5 -0.07,6.05 -1.34,2.55 -3.49,4.15 -4.95,3.48 -1.46,-0.66 -1.62,-3.46 -0.19,-6.18 1.42,-2.73 3.84,-4.19 5.21,-3.35"
       id="path2090"
       inkscape:connector-curvature="0"
       style="fill:#bf6a6f;stroke-width:0px" />
    <path
       class="cls-5"
       d="m 134.78,-13.75 c 1.36,0.84 1.26,3.5 -0.07,6.05 -1.34,2.55 -3.49,4.15 -4.95,3.48 -1.46,-0.66 -1.62,-3.46 -0.19,-6.18 1.42,-2.73 3.84,-4.19 5.21,-3.35 z"
       id="path2092"
       inkscape:connector-curvature="0"
       style="fill:none;stroke:#283843;stroke-width:0.85000002px;stroke-linecap:round;stroke-linejoin:round" />
    <path
       class="cls-10"
       d="m 143.1,-24.94 c 0.49,0.52 0.55,1.36 0.29,2.27 -0.23,0.96 -0.84,1.94 -1.65,2.92 -0.41,0.48 -0.87,0.89 -1.32,1.24 -0.44,0.36 -0.9,0.63 -1.35,0.82 -0.9,0.37 -1.74,0.42 -2.31,0 -0.58,-0.43 -0.79,-1.25 -0.6,-2.25 0.09,-0.5 0.27,-1.04 0.54,-1.6 0.28,-0.55 0.66,-1.1 1.11,-1.63 0.89,-1.07 2.03,-1.76 2.97,-2.1 0.99,-0.3 1.83,-0.2 2.33,0.32"
       id="path2094"
       inkscape:connector-curvature="0"
       style="fill:#bf6a6f;stroke-width:0px" />
    <path
       class="cls-5"
       d="m 143.1,-24.94 c 0.49,0.52 0.55,1.36 0.29,2.27 -0.23,0.96 -0.84,1.94 -1.65,2.92 -0.41,0.48 -0.87,0.89 -1.32,1.24 -0.44,0.36 -0.9,0.63 -1.35,0.82 -0.9,0.37 -1.74,0.42 -2.31,0 -0.58,-0.43 -0.79,-1.25 -0.6,-2.25 0.09,-0.5 0.27,-1.04 0.54,-1.6 0.28,-0.55 0.66,-1.1 1.11,-1.63 0.89,-1.07 2.03,-1.76 2.97,-2.1 0.99,-0.3 1.83,-0.2 2.33,0.32 z"
       id="path2096"
       inkscape:connector-curvature="0"
       style="fill:none;stroke:#283843;stroke-width:0.85000002px;stroke-linecap:round;stroke-linejoin:round" />
    <path
       class="cls-10"
       d="m 150.84,-33.62 c 0.35,0.3 0.31,0.84 0,1.47 -0.31,0.63 -0.85,1.38 -1.63,2.07 -1.5,1.41 -3.31,2.32 -4.22,1.93 -0.9,-0.39 -0.4,-2.11 1.33,-3.74 0.88,-0.79 1.83,-1.4 2.67,-1.7 0.84,-0.3 1.52,-0.32 1.86,-0.03"
       id="path2098"
       inkscape:connector-curvature="0"
       style="fill:#bf6a6f;stroke-width:0px" />
    <path
       class="cls-5"
       d="m 150.84,-33.62 c 0.35,0.3 0.31,0.84 0,1.47 -0.31,0.63 -0.85,1.38 -1.63,2.07 -1.5,1.41 -3.31,2.32 -4.22,1.93 -0.9,-0.39 -0.4,-2.11 1.33,-3.74 0.88,-0.79 1.83,-1.4 2.67,-1.7 0.84,-0.3 1.52,-0.32 1.86,-0.03 z"
       id="path2100"
       inkscape:connector-curvature="0"
       style="fill:none;stroke:#283843;stroke-width:0.85000002px;stroke-linecap:round;stroke-linejoin:round" />
    <path
       class="cls-10"
       d="m 160.68,-39.99 c 0.15,0.37 -0.09,0.89 -0.58,1.42 -0.49,0.54 -1.25,1.05 -2.12,1.55 -1.76,0.92 -3.5,1.29 -4,0.64 -0.49,-0.62 0.62,-2.12 2.59,-3.16 0.96,-0.55 1.94,-0.81 2.68,-0.89 0.75,-0.07 1.27,0.07 1.42,0.44"
       id="path2102"
       inkscape:connector-curvature="0"
       style="fill:#bf6a6f;stroke-width:0px" />
    <path
       class="cls-5"
       d="m 160.68,-39.99 c 0.15,0.37 -0.09,0.89 -0.58,1.42 -0.49,0.54 -1.25,1.05 -2.12,1.55 -1.76,0.92 -3.5,1.29 -4,0.64 -0.49,-0.62 0.62,-2.12 2.59,-3.16 0.96,-0.55 1.94,-0.81 2.68,-0.89 0.75,-0.07 1.27,0.07 1.42,0.44 z"
       id="path2104"
       inkscape:connector-curvature="0"
       style="fill:none;stroke:#283843;stroke-width:0.85000002px;stroke-linecap:round;stroke-linejoin:round" />
    <path
       class="cls-10"
       d="m -14.96,185.28 c -0.04,1.7 -1.48,3.28 -3.85,4.27 -2.37,1 -5.67,1.49 -9.25,1.04 -1.79,-0.19 -3.46,-0.66 -4.95,-1.2 -1.49,-0.56 -2.78,-1.29 -3.82,-2.06 -2.07,-1.61 -3.07,-3.44 -2.66,-5.11 0.41,-1.67 2.11,-2.89 4.42,-3.54 1.17,-0.36 2.49,-0.56 3.93,-0.64 1.44,-0.11 2.98,-0.01 4.59,0.15 3.21,0.41 6.09,1.29 8.19,2.54 2.1,1.26 3.44,2.8 3.4,4.54"
       id="path2106"
       inkscape:connector-curvature="0"
       style="fill:#bf6a6f;stroke-width:0px" />
    <path
       class="cls-5"
       d="m -14.96,185.28 c -0.04,1.7 -1.48,3.28 -3.85,4.27 -2.37,1 -5.67,1.49 -9.25,1.04 -1.79,-0.19 -3.46,-0.66 -4.95,-1.2 -1.49,-0.56 -2.78,-1.29 -3.82,-2.06 -2.07,-1.61 -3.07,-3.44 -2.66,-5.11 0.41,-1.67 2.11,-2.89 4.42,-3.54 1.17,-0.36 2.49,-0.56 3.93,-0.64 1.44,-0.11 2.98,-0.01 4.59,0.15 3.21,0.41 6.09,1.29 8.19,2.54 2.1,1.26 3.44,2.8 3.4,4.54 z"
       id="path2108"
       inkscape:connector-curvature="0"
       style="fill:none;stroke:#283843;stroke-width:0.85000002px;stroke-linecap:round;stroke-linejoin:round" />
    <path
       class="cls-10"
       d="m 12.47,182.02 c 0.62,3.5 -3.92,5.78 -6.58,6.67 -3.13,1.04 -6.53,1.44 -9.79,0.89 -2.56,-0.43 -6.91,-1.71 -7,-4.96 -0.04,-1.65 1.22,-3.14 3.22,-4.33 4.89,-2.89 12.15,-3.66 17.4,-1.26 1.24,0.57 2.49,1.58 2.74,3"
       id="path2110"
       inkscape:connector-curvature="0"
       style="fill:#bf6a6f;stroke-width:0px" />
    <path
       class="cls-5"
       d="m 12.47,182.02 c 0.62,3.5 -3.92,5.78 -6.58,6.67 -3.13,1.04 -6.53,1.44 -9.79,0.89 -2.56,-0.43 -6.91,-1.71 -7,-4.96 -0.04,-1.65 1.22,-3.14 3.22,-4.33 4.89,-2.89 12.15,-3.66 17.4,-1.26 1.24,0.57 2.49,1.58 2.74,3 z"
       id="path2112"
       inkscape:connector-curvature="0"
       style="fill:none;stroke:#283843;stroke-width:0.85000002px;stroke-linecap:round;stroke-linejoin:round" />
    <path
       class="cls-10"
       d="m 41.13,175.68 c 0.53,1.55 -0.19,3.5 -1.51,4.92 -2.87,3.11 -7.3,4.84 -11.46,5.26 -2.56,0.26 -7.41,0 -8.18,-3.16 -0.37,-1.52 0.5,-3.16 2.13,-4.65 2.73,-2.5 6.31,-4 9.94,-4.58 2.19,-0.35 4.77,-0.69 6.92,0.14 1.19,0.46 1.87,1.21 2.16,2.07"
       id="path2114"
       inkscape:connector-curvature="0"
       style="fill:#bf6a6f;stroke-width:0px" />
    <path
       class="cls-5"
       d="m 41.13,175.68 c 0.53,1.55 -0.19,3.5 -1.51,4.92 -2.87,3.11 -7.3,4.84 -11.46,5.26 -2.56,0.26 -7.41,0 -8.18,-3.16 -0.37,-1.52 0.5,-3.16 2.13,-4.65 2.73,-2.5 6.31,-4 9.94,-4.58 2.19,-0.35 4.77,-0.69 6.92,0.14 1.19,0.46 1.87,1.21 2.16,2.07 z"
       id="path2116"
       inkscape:connector-curvature="0"
       style="fill:none;stroke:#283843;stroke-width:0.85000002px;stroke-linecap:round;stroke-linejoin:round" />
    <path
       class="cls-10"
       d="m 68.76,159.74 c 1.84,2.27 -1.16,6.16 -2.95,7.94 -2.79,2.77 -6.74,4.71 -10.7,4.84 -3.28,0.12 -5.86,-1.96 -4.24,-5.35 1.29,-2.72 3.81,-4.65 6.31,-6.2 1.96,-1.21 4.08,-2 6.34,-2.47 1.22,-0.25 2.52,-0.31 3.67,0.16 0.72,0.29 1.23,0.66 1.57,1.08"
       id="path2118"
       inkscape:connector-curvature="0"
       style="fill:#bf6a6f;stroke-width:0px" />
    <path
       class="cls-5"
       d="m 68.76,159.74 c 1.84,2.27 -1.16,6.16 -2.95,7.94 -2.79,2.77 -6.74,4.71 -10.7,4.84 -3.28,0.12 -5.86,-1.96 -4.24,-5.35 1.29,-2.72 3.81,-4.65 6.31,-6.2 1.96,-1.21 4.08,-2 6.34,-2.47 1.22,-0.25 2.52,-0.31 3.67,0.16 0.72,0.29 1.23,0.66 1.57,1.08 z"
       id="path2120"
       inkscape:connector-curvature="0"
       style="fill:none;stroke:#283843;stroke-width:0.85000002px;stroke-linecap:round;stroke-linejoin:round" />
    <path
       class="cls-10"
       d="m 88.4,140.24 c 0.9,0.79 1.1,2.27 0.58,4 -0.55,1.69 -1.72,3.73 -3.55,5.43 -1.78,1.76 -3.85,2.86 -5.57,3.33 -1.74,0.46 -3.22,0.2 -3.97,-0.73 -0.77,-0.95 -0.68,-2.37 -0.05,-3.97 0.63,-1.62 1.89,-3.31 3.52,-4.93 1.69,-1.56 3.42,-2.77 5.07,-3.32 1.62,-0.58 3.05,-0.6 3.96,0.2"
       id="path2122"
       inkscape:connector-curvature="0"
       style="fill:#bf6a6f;stroke-width:0px" />
    <path
       class="cls-5"
       d="m 88.4,140.24 c 0.9,0.79 1.1,2.27 0.58,4 -0.55,1.69 -1.72,3.73 -3.55,5.43 -1.78,1.76 -3.85,2.86 -5.57,3.33 -1.74,0.46 -3.22,0.2 -3.97,-0.73 -0.77,-0.95 -0.68,-2.37 -0.05,-3.97 0.63,-1.62 1.89,-3.31 3.52,-4.93 1.69,-1.56 3.42,-2.77 5.07,-3.32 1.62,-0.58 3.05,-0.6 3.96,0.2 z"
       id="path2124"
       inkscape:connector-curvature="0"
       style="fill:none;stroke:#283843;stroke-width:0.85000002px;stroke-linecap:round;stroke-linejoin:round" />
    <path
       class="cls-10"
       d="m 101.95,117.83 c 1.07,0.47 1.66,1.74 1.64,3.43 0,0.85 -0.14,1.8 -0.45,2.8 -0.3,1 -0.75,2.05 -1.38,3.07 -1.22,2.07 -2.87,3.65 -4.41,4.5 -1.53,0.87 -3.01,0.99 -3.94,0.33 -0.96,-0.68 -1.22,-1.98 -1.05,-3.58 0.2,-1.59 0.89,-3.44 1.99,-5.3 0.57,-0.92 1.18,-1.77 1.82,-2.51 0.66,-0.72 1.32,-1.36 2,-1.84 1.37,-0.96 2.71,-1.37 3.79,-0.9"
       id="path2126"
       inkscape:connector-curvature="0"
       style="fill:#bf6a6f;stroke-width:0px" />
    <path
       class="cls-5"
       d="m 101.95,117.83 c 1.07,0.47 1.66,1.74 1.64,3.43 0,0.85 -0.14,1.8 -0.45,2.8 -0.3,1 -0.75,2.05 -1.38,3.07 -1.22,2.07 -2.87,3.65 -4.41,4.5 -1.53,0.87 -3.01,0.99 -3.94,0.33 -0.96,-0.68 -1.22,-1.98 -1.05,-3.58 0.2,-1.59 0.89,-3.44 1.99,-5.3 0.57,-0.92 1.18,-1.77 1.82,-2.51 0.66,-0.72 1.32,-1.36 2,-1.84 1.37,-0.96 2.71,-1.37 3.79,-0.9 z"
       id="path2128"
       inkscape:connector-curvature="0"
       style="fill:none;stroke:#283843;stroke-width:0.85000002px;stroke-linecap:round;stroke-linejoin:round" />
    <path
       class="cls-10"
       d="m 111.02,94.38 c 2.05,0.58 2.77,4.43 1.38,8.55 -1.38,4.13 -4.31,6.79 -6.29,5.98 -1.97,-0.8 -2.34,-4.53 -1.04,-8.44 1.31,-3.91 3.88,-6.68 5.94,-6.1"
       id="path2130"
       inkscape:connector-curvature="0"
       style="fill:#bf6a6f;stroke-width:0px" />
    <path
       class="cls-5"
       d="m 111.02,94.38 c 2.05,0.58 2.77,4.43 1.38,8.55 -1.38,4.13 -4.31,6.79 -6.29,5.98 -1.97,-0.8 -2.34,-4.53 -1.04,-8.44 1.31,-3.91 3.88,-6.68 5.94,-6.1 z"
       id="path2132"
       inkscape:connector-curvature="0"
       style="fill:none;stroke:#283843;stroke-width:0.85000002px;stroke-linecap:round;stroke-linejoin:round" />
    <path
       class="cls-10"
       d="m 116.83,71.93 c 1.69,0.54 2.39,4.28 1.5,8.35 -0.89,4.07 -3.03,6.85 -4.7,6.21 -1.66,-0.63 -2.25,-4.33 -1.38,-8.3 0.86,-3.98 2.89,-6.79 4.58,-6.25"
       id="path2134"
       inkscape:connector-curvature="0"
       style="fill:#bf6a6f;stroke-width:0px" />
    <path
       class="cls-5"
       d="m 116.83,71.93 c 1.69,0.54 2.39,4.28 1.5,8.35 -0.89,4.07 -3.03,6.85 -4.7,6.21 -1.66,-0.63 -2.25,-4.33 -1.38,-8.3 0.86,-3.98 2.89,-6.79 4.58,-6.25 z"
       id="path2136"
       inkscape:connector-curvature="0"
       style="fill:none;stroke:#283843;stroke-width:0.85000002px;stroke-linecap:round;stroke-linejoin:round" />
    <path
       class="cls-10"
       d="m 123.08,50.26 c 1.47,0.58 1.93,4.1 0.98,7.87 -0.96,3.76 -2.97,6.26 -4.41,5.6 -1.45,-0.67 -1.81,-4.15 -0.88,-7.82 0.93,-3.68 2.84,-6.22 4.31,-5.64"
       id="path2138"
       inkscape:connector-curvature="0"
       style="fill:#bf6a6f;stroke-width:0px" />
    <path
       class="cls-5"
       d="m 123.08,50.26 c 1.47,0.58 1.93,4.1 0.98,7.87 -0.96,3.76 -2.97,6.26 -4.41,5.6 -1.45,-0.67 -1.81,-4.15 -0.88,-7.82 0.93,-3.68 2.84,-6.22 4.31,-5.64 z"
       id="path2140"
       inkscape:connector-curvature="0"
       style="fill:none;stroke:#283843;stroke-width:0.85000002px;stroke-linecap:round;stroke-linejoin:round" />
    <path
       class="cls-10"
       d="m 126.87,30.5 c 1.31,0.44 1.87,3.51 1.21,6.85 -0.67,3.34 -2.32,5.62 -3.62,5.1 -1.3,-0.52 -1.77,-3.55 -1.11,-6.81 0.65,-3.26 2.21,-5.57 3.52,-5.13"
       id="path2142"
       inkscape:connector-curvature="0"
       style="fill:#bf6a6f;stroke-width:0px" />
    <path
       class="cls-5"
       d="m 126.87,30.5 c 1.31,0.44 1.87,3.51 1.21,6.85 -0.67,3.34 -2.32,5.62 -3.62,5.1 -1.3,-0.52 -1.77,-3.55 -1.11,-6.81 0.65,-3.26 2.21,-5.57 3.52,-5.13 z"
       id="path2144"
       inkscape:connector-curvature="0"
       style="fill:none;stroke:#283843;stroke-width:0.85000002px;stroke-linecap:round;stroke-linejoin:round" />
    <path
       class="cls-10"
       d="m 131.25,12.55 c 1.17,0.46 1.53,3.26 0.77,6.24 -0.76,2.99 -2.36,4.97 -3.51,4.44 -1.15,-0.53 -1.43,-3.29 -0.69,-6.21 0.74,-2.92 2.26,-4.93 3.42,-4.47"
       id="path2146"
       inkscape:connector-curvature="0"
       style="fill:#bf6a6f;stroke-width:0px" />
    <path
       class="cls-5"
       d="m 131.25,12.55 c 1.17,0.46 1.53,3.26 0.77,6.24 -0.76,2.99 -2.36,4.97 -3.51,4.44 -1.15,-0.53 -1.43,-3.29 -0.69,-6.21 0.74,-2.92 2.26,-4.93 3.42,-4.47 z"
       id="path2148"
       inkscape:connector-curvature="0"
       style="fill:none;stroke:#283843;stroke-width:0.85000002px;stroke-linecap:round;stroke-linejoin:round" />
    <path
       class="cls-10"
       d="m 136.79,-3.5 c 0.97,0.52 0.99,2.99 0.03,5.51 -0.97,2.52 -2.56,4.08 -3.51,3.5 -0.94,-0.58 -0.9,-3.01 0.04,-5.47 0.95,-2.46 2.47,-4.06 3.44,-3.54"
       id="path2150"
       inkscape:connector-curvature="0"
       style="fill:#bf6a6f;stroke-width:0px" />
    <path
       class="cls-5"
       d="m 136.79,-3.5 c 0.97,0.52 0.99,2.99 0.03,5.51 -0.97,2.52 -2.56,4.08 -3.51,3.5 -0.94,-0.58 -0.9,-3.01 0.04,-5.47 0.95,-2.46 2.47,-4.06 3.44,-3.54 z"
       id="path2152"
       inkscape:connector-curvature="0"
       style="fill:none;stroke:#283843;stroke-width:0.85000002px;stroke-linecap:round;stroke-linejoin:round" />
    <path
       class="cls-10"
       d="m 142.41,-16.15 c 0.7,0.52 0.45,2.46 -0.59,4.34 -1.04,1.87 -2.47,2.92 -3.15,2.36 -0.68,-0.56 -0.38,-2.47 0.64,-4.3 1.02,-1.83 2.39,-2.92 3.1,-2.4"
       id="path2154"
       inkscape:connector-curvature="0"
       style="fill:#bf6a6f;stroke-width:0px" />
    <path
       class="cls-5"
       d="m 142.41,-16.15 c 0.7,0.52 0.45,2.46 -0.59,4.34 -1.04,1.87 -2.47,2.92 -3.15,2.36 -0.68,-0.56 -0.38,-2.47 0.64,-4.3 1.02,-1.83 2.39,-2.92 3.1,-2.4 z"
       id="path2156"
       inkscape:connector-curvature="0"
       style="fill:none;stroke:#283843;stroke-width:0.85000002px;stroke-linecap:round;stroke-linejoin:round" />
    <path
       class="cls-10"
       d="m 148.72,-26.79 c 0.48,0.44 0.14,1.85 -0.78,3.15 -0.92,1.3 -2.05,1.96 -2.51,1.49 -0.45,-0.47 -0.08,-1.85 0.81,-3.12 0.89,-1.27 1.99,-1.96 2.47,-1.53"
       id="path2158"
       inkscape:connector-curvature="0"
       style="fill:#bf6a6f;stroke-width:0px" />
    <path
       class="cls-5"
       d="m 148.72,-26.79 c 0.48,0.44 0.14,1.85 -0.78,3.15 -0.92,1.3 -2.05,1.96 -2.51,1.49 -0.45,-0.47 -0.08,-1.85 0.81,-3.12 0.89,-1.27 1.99,-1.96 2.47,-1.53 z"
       id="path2160"
       inkscape:connector-curvature="0"
       style="fill:none;stroke:#283843;stroke-width:0.85000002px;stroke-linecap:round;stroke-linejoin:round" />
  </g>
  <g
     class="cls-21"
     clip-path="url(#clippath-12)"
     id="g2196"
     transform="translate(0,-1.23)">
    <path
       class="cls-7"
       d="m 185.05,-72.11 c 0.08,0.93 -1.56,1.83 -3.66,2.02 -2.11,0.18 -3.88,-0.42 -3.96,-1.35 -0.08,-0.93 1.56,-1.84 3.66,-2.02 2.1,-0.18 3.88,0.42 3.96,1.35"
       id="path2164"
       inkscape:connector-curvature="0"
       style="fill:#283843;stroke-width:0px" />
    <path
       class="cls-7"
       d="m 177.05,-69.18 c 0.06,0.67 -1.11,1.32 -2.6,1.45 -1.5,0.13 -2.76,-0.31 -2.82,-0.98 -0.06,-0.67 1.11,-1.32 2.6,-1.45 1.5,-0.13 2.76,0.31 2.82,0.98"
       id="path2166"
       inkscape:connector-curvature="0"
       style="fill:#283843;stroke-width:0px" />
    <path
       class="cls-7"
       d="m 196.98,-67.99 c -0.07,1.69 -3.02,2.93 -6.58,2.79 -3.56,-0.15 -6.39,-1.64 -6.32,-3.33 0.07,-1.69 3.01,-2.93 6.58,-2.79 3.56,0.15 6.39,1.64 6.32,3.32"
       id="path2168"
       inkscape:connector-curvature="0"
       style="fill:#283843;stroke-width:0px" />
    <path
       class="cls-7"
       d="m 207.88,21.4 c 0.66,0.8 -0.42,2.79 -2.42,4.46 -2,1.67 -4.16,2.37 -4.82,1.57 -0.66,-0.8 0.42,-2.79 2.42,-4.46 2,-1.67 4.16,-2.37 4.82,-1.57"
       id="path2170"
       inkscape:connector-curvature="0"
       style="fill:#283843;stroke-width:0px" />
    <path
       class="cls-7"
       d="m 82.19,70.85 c 1.24,0.65 0.9,3.73 -0.76,6.89 -1.66,3.15 -4,5.18 -5.24,4.53 -1.24,-0.65 -0.89,-3.73 0.76,-6.89 1.66,-3.15 4,-5.18 5.24,-4.53"
       id="path2172"
       inkscape:connector-curvature="0"
       style="fill:#283843;stroke-width:0px" />
    <path
       class="cls-7"
       d="m 320.45,7.72 c -0.66,0.97 -2.7,0.72 -4.54,-0.54 -1.85,-1.27 -2.81,-3.07 -2.15,-4.04 0.66,-0.96 2.7,-0.72 4.54,0.54 1.85,1.26 2.81,3.07 2.15,4.04"
       id="path2174"
       inkscape:connector-curvature="0"
       style="fill:#283843;stroke-width:0px" />
    <path
       class="cls-7"
       d="m 320.46,13.06 c -0.4,0.58 -1.59,0.46 -2.66,-0.27 -1.07,-0.73 -1.61,-1.8 -1.21,-2.38 0.4,-0.58 1.59,-0.46 2.66,0.27 1.07,0.73 1.61,1.8 1.21,2.38"
       id="path2176"
       inkscape:connector-curvature="0"
       style="fill:#283843;stroke-width:0px" />
    <path
       class="cls-7"
       d="m 89.04,63.45 c 0.97,0.38 1.14,2.28 0.38,4.26 -0.77,1.97 -2.18,3.26 -3.15,2.88 -0.97,-0.38 -1.14,-2.28 -0.38,-4.26 0.77,-1.97 2.18,-3.26 3.15,-2.88"
       id="path2178"
       inkscape:connector-curvature="0"
       style="fill:#283843;stroke-width:0px" />
    <path
       class="cls-7"
       d="m 101.02,4.05 c 0.97,0.38 1.14,2.28 0.38,4.26 -0.77,1.97 -2.18,3.26 -3.15,2.88 -0.97,-0.38 -1.14,-2.28 -0.38,-4.26 0.77,-1.97 2.18,-3.26 3.15,-2.88"
       id="path2180"
       inkscape:connector-curvature="0"
       style="fill:#283843;stroke-width:0px" />
    <path
       class="cls-7"
       d="m 72.1,101.32 c 1.61,1.2 0.96,4.81 -1.46,8.07 -2.42,3.26 -5.69,4.94 -7.3,3.74 -1.61,-1.2 -0.96,-4.81 1.46,-8.07 2.42,-3.26 5.69,-4.94 7.3,-3.74"
       id="path2182"
       inkscape:connector-curvature="0"
       style="fill:#283843;stroke-width:0px" />
    <path
       class="cls-7"
       d="m 147.1,73.62 c 0.66,0.8 -0.42,2.79 -2.42,4.46 -2,1.67 -4.16,2.37 -4.82,1.57 -0.66,-0.8 0.42,-2.79 2.42,-4.46 2,-1.67 4.16,-2.37 4.82,-1.57"
       id="path2184"
       inkscape:connector-curvature="0"
       style="fill:#283843;stroke-width:0px" />
    <path
       class="cls-7"
       d="m 202.83,29.31 c 0.45,0.54 -0.13,1.75 -1.28,2.71 -1.16,0.96 -2.46,1.31 -2.9,0.77 -0.45,-0.54 0.13,-1.75 1.28,-2.72 1.16,-0.96 2.46,-1.31 2.9,-0.77"
       id="path2186"
       inkscape:connector-curvature="0"
       style="fill:#283843;stroke-width:0px" />
    <path
       class="cls-7"
       d="m 163.48,62.96 c 0.45,0.54 -0.13,1.75 -1.28,2.71 -1.16,0.96 -2.46,1.31 -2.9,0.77 -0.45,-0.54 0.13,-1.75 1.28,-2.72 1.16,-0.96 2.46,-1.31 2.9,-0.77"
       id="path2188"
       inkscape:connector-curvature="0"
       style="fill:#283843;stroke-width:0px" />
    <path
       class="cls-7"
       d="m 212.99,18.88 c 0.35,0.42 -0.01,1.3 -0.81,1.97 -0.8,0.66 -1.73,0.86 -2.08,0.44 -0.35,-0.42 0.01,-1.3 0.81,-1.97 0.8,-0.66 1.73,-0.86 2.08,-0.44"
       id="path2190"
       inkscape:connector-curvature="0"
       style="fill:#283843;stroke-width:0px" />
    <path
       class="cls-14"
       d="m 297.45,138.25 c -2.09,0.96 -5.02,-0.93 -6.54,-4.23 -1.52,-3.3 -1.06,-6.75 1.03,-7.72 2.09,-0.96 7.6,10.98 5.51,11.94"
       id="path2192"
       inkscape:connector-curvature="0"
       style="fill:#87c4d8;stroke-width:0px" />
    <path
       class="cls-14"
       d="m 443.44,5.87 c -2.69,2.76 -8.4,1.56 -12.76,-2.68 -4.36,-4.24 15.45,-0.08 12.76,2.68"
       id="path2194"
       inkscape:connector-curvature="0"
       style="fill:#87c4d8;stroke-width:0px" />
  </g>
  <rect
     style="opacity:1;fill:none;fill-opacity:1;stroke:none;stroke-width:2.89133859;stroke-linecap:round;stroke-linejoin:round;stroke-miterlimit:4;stroke-dasharray:none;stroke-opacity:1"
     id="rect2203"
     width="453.24564"
     height="224.01196"
     x="15.926258"
     y="18.886095"
     ry="0.332275" />
  <rect
     style="opacity:1;fill:none;fill-opacity:1;stroke:none;stroke-width:2.89133859;stroke-linecap:round;stroke-linejoin:round;stroke-miterlimit:4;stroke-dasharray:none;stroke-opacity:1"
     id="rect6473"
     width="328.9686"
     height="195.81465"
     x="0.52217239"
     y="-1.2175435"
     ry="0.332275" />
</svg>
