<svg width="254" height="225" viewBox="0 0 254 225" fill="none" xmlns="http://www.w3.org/2000/svg">
<path d="M0.672852 164.827L205.801 0.292754L253.914 60.118L48.7853 224.652L0.672852 164.827Z" fill="white"/>
<path d="M29.3965 169.455L54.464 149.235L87.0464 189.522L61.9789 209.742L29.3965 169.455Z" fill="url(#paint0_linear_63_1002)"/>
<path d="M53.0144 149.689L78.0465 129.56L110.481 169.79L85.4493 189.919L53.0144 149.689Z" fill="url(#paint1_linear_63_1002)"/>
<path d="M77.9583 129.761L102.99 109.633L135.425 149.863L110.393 169.991L77.9583 129.761Z" fill="url(#paint2_linear_63_1002)"/>
<path d="M102.886 109.847L127.918 89.718L160.353 129.948L135.321 150.077L102.886 109.847Z" fill="url(#paint3_linear_63_1002)"/>
<path d="M129.006 89.3895L154.073 69.1693L186.656 109.456L161.588 129.677L129.006 89.3895Z" fill="#505F98"/>
<path d="M154.086 68.9903L179.154 48.7701L211.736 89.0572L186.668 109.277L154.086 68.9903Z" fill="#505F98"/>
<path d="M177.693 50.0512L202.726 29.9226L235.161 70.1529L210.128 90.2815L177.693 50.0512Z" fill="#505F98"/>
<path d="M207.712 93.2181L186.613 110L154.675 69.782L175.774 53L207.712 93.2181Z" fill="url(#paint4_linear_63_1002)"/>
<path d="M174.736 52.6476L199.768 32.519L232.203 72.7492L207.171 92.8778L174.736 52.6476Z" fill="url(#paint5_linear_63_1002)"/>
<defs>
<linearGradient id="paint0_linear_63_1002" x1="113.737" y1="283.052" x2="227.168" y2="193.635" gradientUnits="userSpaceOnUse">
<stop stop-color="#010101" stop-opacity="0.01"/>
<stop offset="0.95" stop-color="#010101"/>
</linearGradient>
<linearGradient id="paint1_linear_63_1002" x1="163.575" y1="302.988" x2="324.852" y2="177.867" gradientUnits="userSpaceOnUse">
<stop stop-color="#010101" stop-opacity="0.01"/>
<stop offset="0.95" stop-color="#010101"/>
</linearGradient>
<linearGradient id="paint2_linear_63_1002" x1="268.519" y1="361.751" x2="524.684" y2="139.028" gradientUnits="userSpaceOnUse">
<stop stop-color="#010101" stop-opacity="0.01"/>
<stop offset="0.95" stop-color="#010101"/>
</linearGradient>
<linearGradient id="paint3_linear_63_1002" x1="377.279" y1="430.865" x2="752.962" y2="112.45" gradientUnits="userSpaceOnUse">
<stop stop-color="#010101" stop-opacity="0.01"/>
<stop offset="0.36" stop-color="#010101" stop-opacity="0.36"/>
<stop offset="0.95" stop-color="#010101"/>
</linearGradient>
<linearGradient id="paint4_linear_63_1002" x1="225.537" y1="193.751" x2="408.477" y2="62.3221" gradientUnits="userSpaceOnUse">
<stop stop-color="white" stop-opacity="0.01"/>
<stop offset="0.07" stop-color="white" stop-opacity="0.22"/>
<stop offset="0.16" stop-color="white" stop-opacity="0.45"/>
<stop offset="0.25" stop-color="white" stop-opacity="0.65"/>
<stop offset="0.33" stop-color="white" stop-opacity="0.8"/>
<stop offset="0.4" stop-color="white" stop-opacity="0.91"/>
<stop offset="0.46" stop-color="white" stop-opacity="0.98"/>
<stop offset="0.51" stop-color="white"/>
</linearGradient>
<linearGradient id="paint5_linear_63_1002" x1="239.151" y1="191.517" x2="355.009" y2="95.6582" gradientUnits="userSpaceOnUse">
<stop stop-color="white" stop-opacity="0.01"/>
<stop offset="0.07" stop-color="white" stop-opacity="0.22"/>
<stop offset="0.16" stop-color="white" stop-opacity="0.45"/>
<stop offset="0.25" stop-color="white" stop-opacity="0.65"/>
<stop offset="0.33" stop-color="white" stop-opacity="0.8"/>
<stop offset="0.4" stop-color="white" stop-opacity="0.91"/>
<stop offset="0.46" stop-color="white" stop-opacity="0.98"/>
<stop offset="0.51" stop-color="white"/>
</linearGradient>
</defs>
</svg>
