<svg width="186" height="271" viewBox="0 0 186 271" fill="none" xmlns="http://www.w3.org/2000/svg">
<path d="M0.368814 236.326L116.198 0.408341L185.185 34.1897L69.3551 270.108L0.368814 236.326Z" fill="white"/>
<path d="M27.2139 229.055L41.3273 200.22L87.7915 222.903L73.678 251.738L27.2139 229.055Z" fill="#505F98"/>
<path d="M27.2139 229.055L41.3273 200.22L87.7915 222.903L73.678 251.738L27.2139 229.055Z" fill="url(#paint0_linear_65_1008)"/>
<path d="M41.3295 200.445L55.4429 171.61L101.907 194.293L87.7936 223.128L41.3295 200.445Z" fill="#505F98"/>
<path d="M41.3295 200.445L55.4429 171.61L101.907 194.293L87.7936 223.128L41.3295 200.445Z" fill="url(#paint1_linear_65_1008)"/>
<path d="M55.4261 171.826L69.5396 142.991L116.004 165.674L101.89 194.509L55.4261 171.826Z" fill="#505F98"/>
<path d="M55.4261 171.826L69.5396 142.991L116.004 165.674L101.89 194.509L55.4261 171.826Z" fill="url(#paint2_linear_65_1008)"/>
<path d="M69.5625 143.237L83.676 114.402L130.14 137.085L116.027 165.92L69.5625 143.237Z" fill="#505F98"/>
<path d="M69.5625 143.237L83.676 114.402L130.14 137.085L116.027 165.92L69.5625 143.237Z" fill="url(#paint3_linear_65_1008)"/>
<path d="M83.6685 114.599L97.7819 85.7644L144.246 108.447L130.133 137.282L83.6685 114.599Z" fill="#505F98"/>
<path d="M97.7839 86.0103L111.897 57.1754L158.362 79.8578L144.248 108.693L97.7839 86.0103Z" fill="#505F98"/>
<path d="M111.881 57.3912L125.994 28.5563L172.458 51.2387L158.345 80.0736L111.881 57.3912Z" fill="#505F98"/>
<path d="M96.1959 89.5983L110.309 60.7633L156.774 83.4457L142.66 112.281L96.1959 89.5983Z" fill="url(#paint4_linear_65_1008)"/>
<path d="M110.321 60.9695L124.434 32.1346L170.898 54.817L156.785 83.6519L110.321 60.9695Z" fill="url(#paint5_linear_65_1008)"/>
<defs>
<linearGradient id="paint0_linear_65_1008" x1="151.402" y1="296.166" x2="216.156" y2="167.6" gradientUnits="userSpaceOnUse">
<stop stop-color="#010101" stop-opacity="0.01"/>
<stop offset="0.95" stop-color="#010101"/>
</linearGradient>
<linearGradient id="paint1_linear_65_1008" x1="206.563" y1="292.365" x2="299.417" y2="110.775" gradientUnits="userSpaceOnUse">
<stop stop-color="#010101" stop-opacity="0.01"/>
<stop offset="0.95" stop-color="#010101"/>
</linearGradient>
<linearGradient id="paint2_linear_65_1008" x1="326.545" y1="301.092" x2="463.899" y2="-9.05183" gradientUnits="userSpaceOnUse">
<stop stop-color="#010101" stop-opacity="0.01"/>
<stop offset="0.95" stop-color="#010101"/>
</linearGradient>
<linearGradient id="paint3_linear_65_1008" x1="454.379" y1="317.583" x2="659.309" y2="-129.821" gradientUnits="userSpaceOnUse">
<stop stop-color="#010101" stop-opacity="0.01"/>
<stop offset="0.36" stop-color="#010101" stop-opacity="0.36"/>
<stop offset="0.95" stop-color="#010101"/>
</linearGradient>
<linearGradient id="paint4_linear_65_1008" x1="305.726" y1="212.564" x2="422.886" y2="-29.0312" gradientUnits="userSpaceOnUse">
<stop stop-color="white" stop-opacity="0.01"/>
<stop offset="0.07" stop-color="white" stop-opacity="0.22"/>
<stop offset="0.16" stop-color="white" stop-opacity="0.45"/>
<stop offset="0.25" stop-color="white" stop-opacity="0.65"/>
<stop offset="0.33" stop-color="white" stop-opacity="0.8"/>
<stop offset="0.4" stop-color="white" stop-opacity="0.91"/>
<stop offset="0.46" stop-color="white" stop-opacity="0.98"/>
<stop offset="0.51" stop-color="white"/>
</linearGradient>
<linearGradient id="paint5_linear_65_1008" x1="227.65" y1="159.444" x2="291.846" y2="23.5549" gradientUnits="userSpaceOnUse">
<stop stop-color="white" stop-opacity="0.01"/>
<stop offset="0.07" stop-color="white" stop-opacity="0.22"/>
<stop offset="0.16" stop-color="white" stop-opacity="0.45"/>
<stop offset="0.25" stop-color="white" stop-opacity="0.65"/>
<stop offset="0.33" stop-color="white" stop-opacity="0.8"/>
<stop offset="0.4" stop-color="white" stop-opacity="0.91"/>
<stop offset="0.46" stop-color="white" stop-opacity="0.98"/>
<stop offset="0.51" stop-color="white"/>
</linearGradient>
</defs>
</svg>
