<svg width="210" height="408" viewBox="0 0 210 408" fill="none" xmlns="http://www.w3.org/2000/svg">
<path d="M14.4276 114C13.7544 110.436 13.3292 105.39 14.6225 105.043C17.3508 104.275 14.4276 114 14.4276 114Z" fill="#28353D"/>
<path d="M157.687 309.507C157.201 322.102 147.439 368.388 147.122 381.004C147.122 385.202 148.242 391.647 146.889 395.698C144.1 404.284 134.211 403.108 132.922 398.049L132.436 395.53C127.85 371.012 135.225 343.198 132.436 311.186C130.766 291.643 122.99 253.963 117.898 253.711C115.214 253.711 53.9566 382.851 48.6317 390.807C46.0115 394.817 38.6369 394.187 35.0658 397.42C31.4947 400.652 64.8177 299.515 78.7851 246.07C82.0426 235.039 84.1666 223.709 85.1243 212.252C85.5046 205.64 83.3704 203.415 89.4772 201.463C93.7033 200.119 99.5565 200.497 104.078 200.182C109.002 199.804 154.792 199.72 154.792 202.953C154.348 220.502 158.87 280.412 157.687 309.507Z" fill="#606161"/>
<path d="M157.687 309.507C157.201 322.102 147.439 368.388 147.122 381.004C147.122 385.202 148.242 391.647 146.889 395.698C144.1 404.284 134.211 403.108 132.922 398.049L132.436 395.53C127.85 371.012 135.225 343.198 132.436 311.186C130.766 291.643 122.99 253.963 117.898 253.711C115.214 253.711 53.9566 382.851 48.6317 390.807C46.0115 394.817 38.6369 394.187 35.0658 397.42C31.4947 400.652 64.8177 299.515 78.7851 246.07C82.0426 235.039 84.1666 223.709 85.1243 212.252C85.5046 205.64 83.3704 203.415 89.4772 201.463C93.7033 200.119 99.5565 200.497 104.078 200.182C109.002 199.804 154.792 199.72 154.792 202.953C154.348 220.502 158.87 280.412 157.687 309.507Z" fill="url(#paint0_linear_58_1007)"/>
<path d="M103.614 41.1484C103.229 37.1625 101.346 35 99.5063 35C97.6665 35 96.5327 37.1201 96.9177 41.1484C97.0051 44.122 99.2492 46.597 102.223 47C104.085 47 104.02 45.1343 103.614 41.1484Z" fill="#FFCD9C"/>
<path d="M136.008 41.1593C136.258 37.1664 138.095 35 139.994 35C141.893 35 143.124 37.1239 142.832 41.1593C142.805 44.1733 140.56 46.6868 137.615 47C135.736 47 135.715 45.1522 136.008 41.1593Z" fill="#FFCD9C"/>
<path d="M139.732 58.6717C139.473 60.7773 130.558 70 120.413 70C110.267 70 101.892 61.5775 100.122 58.2084C98.352 54.8394 105.475 11.5055 109.598 7.88379C113.721 4.26209 130.429 6.64146 131.832 8.55759C135.199 13.0847 140.833 50.2702 139.732 58.6717Z" fill="#F4AD7D"/>
<path d="M135.538 25.977C134.159 26.6389 128.743 12.8416 127.607 10.5248C126.472 8.20801 126.654 5.82917 128.033 5.16723C129.413 4.50529 131.441 5.87054 132.577 8.16664C133.713 10.4627 136.897 25.3357 135.538 25.977Z" fill="#FFCD9C"/>
<path d="M105.168 24.9872C103.737 24.5006 107.525 10.1786 108.351 7.70349C109.177 5.22834 111.031 3.5994 112.381 4.08597C113.731 4.57254 114.295 6.98421 113.469 9.48051C112.643 11.9768 106.518 25.4737 105.168 24.9872Z" fill="#FFCD9C"/>
<path d="M110.845 57H132.608L135.87 77.6222C124.014 84.0048 117.101 83.3005 107.85 76.2137L110.845 57Z" fill="#F4AD7D"/>
<path d="M119.859 61.13C119.859 60.75 120.764 60.43 121.86 60.43C122.956 60.43 123.861 60.75 123.861 61.13C123.861 61.51 122.98 61.57 121.86 61.57C120.74 61.57 119.859 61.53 119.859 61.13Z" fill="#F4AD7D"/>
<path d="M140.892 51.8077C141.716 46.8941 143.06 11.7083 139.764 7.05101C136.469 2.39375 116.741 -0.618518 113.749 0.107843C107.05 1.73148 108.221 6.51692 108.221 6.51692C106.23 6.54669 104.28 7.08397 102.563 8.07646C100.265 9.61464 95.43 31.79 99.2889 48.5604C101.023 56.1018 107.852 62.6604 119.646 62.9809C134.171 63.3654 139.895 57.8963 140.892 51.8077Z" fill="#606161"/>
<path d="M113.831 1.76199C115.39 0.448356 117.41 -0.172334 119.43 0.0413429C125.563 0.00828945 131.647 1.13965 137.365 3.37642C140.535 4.48751 143.414 6.31064 145.785 8.7083C148.172 11.173 149.271 14.6273 148.753 18.0338C147.7 23.047 142.438 26.1484 140.712 30.9705C139.322 34.8366 140.312 38.5753 140.354 42.4627C140.382 45.6057 140.156 48.7457 139.68 51.8519C138.712 57.906 133.176 63.3441 118.967 62.983C107.516 62.6643 100.885 56.1429 99.2009 48.6443C96.9211 36.1984 97.519 23.3894 100.948 11.2149C107.12 12.6485 113.434 13.3612 119.767 13.3392C126.482 13.3954 133.178 12.6105 139.701 11.0025C140.817 17.5027 140.796 30.5244 140.438 40.2535" fill="#606161"/>
<path d="M78.7021 73.9538C75.268 74.2412 71.9597 75.3844 69.0768 77.28C64.1392 81.1711 63.7642 88.4302 63.8475 94.7479C63.6783 103.501 64.2849 112.252 65.6601 120.897C67.1393 128.826 69.8268 136.441 72.0352 144.202C75.5162 156.831 77.3441 169.862 77.4729 182.966C77.4729 190.162 77.3479 198.07 81.8271 203.697C86.7231 209.806 95.39 210.998 103.182 211.438C114.245 212.086 125.349 212.17 136.412 211.709C143.829 211.375 151.725 210.643 157.6 206.082C162.288 202.442 173.267 79.2883 164.746 76.1713C156.225 73.0543 147.058 72.2593 138.016 71.5062C117.745 69.7908 98.6609 68.431 78.7021 73.9538Z" fill="#505F98"/>
<path d="M142.521 329.291C141.435 343.255 138.843 394 138.843 394L132.238 393.77C127.702 369.39 134.997 341.732 132.238 309.899C130.586 290.465 122.895 252.996 117.857 252.746C119.362 240.221 127.827 242.1 127.827 242.1C133.984 251.294 139.294 261.026 143.692 271.178C148.729 284.37 143.629 315.263 142.521 329.291Z" fill="url(#paint1_linear_58_1007)"/>
<path d="M18.1645 395.024C17.133 395.786 16.3502 396.83 15.9125 398.025C15.6778 399.009 15.773 400.04 16.1836 400.965C17.35 403.326 19.5604 405.019 22.168 405.55C24.7444 406.04 27.3827 406.131 29.9873 405.818L38.328 405.262C40.4502 405.212 42.5553 404.873 44.5834 404.255C46.6136 403.627 48.2894 402.198 49.2125 400.308C49.7037 398.916 49.8954 397.438 49.7755 395.969C49.7755 389.164 47.3567 383.634 39.8084 385.299C31.9017 386.765 24.4743 390.102 18.1645 395.024Z" fill="#505F98"/>
<path d="M156.703 398.063C157.65 398.759 158.369 399.709 158.77 400.797C158.984 401.682 158.9 402.611 158.53 403.446C157.468 405.584 155.438 407.114 153.047 407.579C150.69 408.035 148.273 408.121 145.888 407.834L138.316 407.325C136.39 407.284 134.478 406.985 132.636 406.435C130.779 405.864 129.25 404.566 128.415 402.853C127.967 401.595 127.789 400.26 127.893 398.932C127.893 392.785 130.069 387.72 137.01 389.288C144.206 390.619 150.964 393.63 156.703 398.063Z" fill="#505F98"/>
<path d="M165.891 76C165.891 76 198.606 95.1635 208.432 119.389C218.257 143.614 176.252 202 176.252 202L167.263 192.814C167.263 192.814 189.188 148.759 185.799 137.74C182.409 126.721 169.13 116.452 169.13 116.452L165.891 76Z" fill="#505F98"/>
<path d="M72.826 113.859C72.826 113.859 27.3375 134.24 8.85257 124.238C-9.63238 114.237 9.3981 64 9.3981 64L21.7773 68.2022C21.7773 68.2022 11.4333 93.8146 23.2671 97.6175C35.1008 101.421 70.56 76.4385 70.56 76.4385L72.826 113.859Z" fill="#505F98"/>
<path d="M158.466 200.976C157.158 201.826 156.097 202.968 155.381 204.297C154.952 205.425 154.797 206.629 154.928 207.819C154.849 210.709 156.163 213.479 158.51 215.367C160.158 216.25 162.005 216.76 163.903 216.857C165.066 217.048 166.256 217.048 167.419 216.857C168.606 216.646 169.597 215.888 170.051 214.844C170.206 214.183 170.271 213.507 170.245 212.831C170.396 209.51 172.899 206.793 174.97 204.076C175.47 203.551 175.793 202.9 175.897 202.204C175.885 201.434 175.597 200.69 175.078 200.091C173.675 198.199 170.202 194.717 167.419 195.018C164.636 195.32 160.624 199.326 158.466 200.976Z" fill="#F4AD7D"/>
<defs>
<linearGradient id="paint0_linear_58_1007" x1="159.015" y1="286.512" x2="62.9217" y2="121.732" gradientUnits="userSpaceOnUse">
<stop stop-color="#010101" stop-opacity="0.01"/>
<stop offset="0.95" stop-color="#010101"/>
</linearGradient>
<linearGradient id="paint1_linear_58_1007" x1="160.037" y1="-175.108" x2="-12.8486" y2="-170.239" gradientUnits="userSpaceOnUse">
<stop stop-color="#010101" stop-opacity="0.01"/>
<stop offset="0.95" stop-color="#010101"/>
</linearGradient>
</defs>
</svg>
