<svg width="26" height="32" viewBox="0 0 26 32" fill="none" xmlns="http://www.w3.org/2000/svg">
<path d="M24.5853 21.4347C25.1779 20.6114 25.5821 19.6789 25.7717 18.6976C25.9228 17.6826 25.3862 16.687 24.4315 16.2111C22.9154 15.647 21.1138 17.1305 19.6197 16.5036C19.1142 16.2346 18.6904 15.846 18.3893 15.3753C16.6252 12.9449 15.6128 10.0929 15.4671 7.14293C15.5531 5.57092 15.4052 3.99523 15.0277 2.46257C14.5834 0.885618 13.0001 -0.150646 11.2925 0.0179226C9.88635 0.331339 9.09538 1.68948 8.21652 2.77599C7.33766 3.8625 5.57994 5.15796 4.43742 6.51609C2.48675 9.30719 1.37037 12.5499 1.20762 15.8977C0.592415 20.0766 0.196929 24.8614 3.27294 27.8702C5.64585 30.1895 12.8745 32.9267 16.1922 31.6939C19.8614 30.3149 22.7397 24.4435 24.5853 21.4347Z" fill="#F4AD7D"/>
</svg>
