<svg width="1491" height="1161" viewBox="0 0 1491 1161" fill="none" xmlns="http://www.w3.org/2000/svg">
<path opacity="0.5" d="M318.635 86.6942C198.697 187.217 180.111 377.298 98.8812 517.527C70.6044 566.322 34.0669 609.992 15.0039 664.123C-28.7616 788.026 31.4722 928.572 112.093 1026.98C150.537 1073.93 195.441 1116.94 249.77 1136.72C291.55 1151.94 336.348 1152.57 380.325 1152.97L1150.79 1160.9C1236.81 1161.77 1332.39 1158.62 1394.24 1092.21C1436.87 1046.48 1454.18 979.692 1468.88 915.944C1486.93 837.613 1503.3 752.546 1475.2 677.94C1443.12 592.582 1361.96 544.21 1311.55 470.555C1229.74 351.223 1231.62 170.731 1127.44 75.4664C1078.8 31.0041 1014.62 13.5679 952.084 4.84978C834.184 -11.6089 722.507 19.4592 606.725 15.1266C507.756 11.428 400.739 17.8741 318.635 86.6942Z" fill="#E7ECFF"/>
</svg>
