<svg width="58" height="49" viewBox="0 0 58 49" fill="none" xmlns="http://www.w3.org/2000/svg">
<g filter="url(#filter0_d_0_3438)">
<path fill-rule="evenodd" clip-rule="evenodd" d="M24.5 1C22.0147 1 20 3.01472 20 5.5V7H9.5C7.01472 7 5 9.01472 5 11.5V15.652L27.842 21.742C28.6008 21.9441 29.3992 21.9441 30.158 21.742L53 15.652V11.5C53 9.01472 50.9853 7 48.5 7H38V5.5C38 3.01472 35.9853 1 33.5 1H24.5ZM24.5 4H33.5C34.3284 4 35 4.67157 35 5.5V7H23V5.5C23 4.67157 23.6716 4 24.5 4ZM9.5 40C7.01472 40 5 37.9853 5 35.5V18.55L28.613 24.841C28.8666 24.9087 29.1334 24.9087 29.387 24.841L53 18.55V35.5C53 37.9853 50.9853 40 48.5 40H9.5Z" fill="white"/>
<path d="M20 7V7.5H20.5V7H20ZM5 15.652H4.5V16.0362L4.87119 16.1351L5 15.652ZM27.842 21.742L27.7132 22.2251L27.7133 22.2252L27.842 21.742ZM30.158 21.742L30.2867 22.2252L30.2868 22.2251L30.158 21.742ZM53 15.652L53.1288 16.1351L53.5 16.0362V15.652H53ZM38 7H37.5V7.5H38V7ZM35 7V7.5H35.5V7H35ZM23 7H22.5V7.5H23V7ZM5 18.55L5.12872 18.0669L4.5 17.8993V18.55H5ZM28.613 24.841L28.742 24.3579L28.7417 24.3579L28.613 24.841ZM29.387 24.841L29.2583 24.3579L29.258 24.3579L29.387 24.841ZM53 18.55H53.5V17.8993L52.8713 18.0669L53 18.55ZM20.5 5.5C20.5 3.29086 22.2909 1.5 24.5 1.5V0.5C21.7386 0.5 19.5 2.73858 19.5 5.5H20.5ZM20.5 7V5.5H19.5V7H20.5ZM9.5 7.5H20V6.5H9.5V7.5ZM5.5 11.5C5.5 9.29086 7.29086 7.5 9.5 7.5V6.5C6.73858 6.5 4.5 8.73858 4.5 11.5H5.5ZM5.5 15.652V11.5H4.5V15.652H5.5ZM27.9708 21.2589L5.12881 15.1689L4.87119 16.1351L27.7132 22.2251L27.9708 21.2589ZM30.0293 21.2588C29.3549 21.4385 28.6451 21.4385 27.9707 21.2588L27.7133 22.2252C28.5564 22.4497 29.4436 22.4497 30.2867 22.2252L30.0293 21.2588ZM52.8712 15.1689L30.0292 21.2589L30.2868 22.2251L53.1288 16.1351L52.8712 15.1689ZM52.5 11.5V15.652H53.5V11.5H52.5ZM48.5 7.5C50.7091 7.5 52.5 9.29086 52.5 11.5H53.5C53.5 8.73858 51.2614 6.5 48.5 6.5V7.5ZM38 7.5H48.5V6.5H38V7.5ZM37.5 5.5V7H38.5V5.5H37.5ZM33.5 1.5C35.7091 1.5 37.5 3.29086 37.5 5.5H38.5C38.5 2.73858 36.2614 0.5 33.5 0.5V1.5ZM24.5 1.5H33.5V0.5H24.5V1.5ZM33.5 3.5H24.5V4.5H33.5V3.5ZM35.5 5.5C35.5 4.39543 34.6046 3.5 33.5 3.5V4.5C34.0523 4.5 34.5 4.94772 34.5 5.5H35.5ZM35.5 7V5.5H34.5V7H35.5ZM23 7.5H35V6.5H23V7.5ZM22.5 5.5V7H23.5V5.5H22.5ZM24.5 3.5C23.3954 3.5 22.5 4.39543 22.5 5.5H23.5C23.5 4.94772 23.9477 4.5 24.5 4.5V3.5ZM4.5 35.5C4.5 38.2614 6.73858 40.5 9.5 40.5V39.5C7.29086 39.5 5.5 37.7091 5.5 35.5H4.5ZM4.5 18.55V35.5H5.5V18.55H4.5ZM28.7417 24.3579L5.12872 18.0669L4.87128 19.0331L28.4843 25.3241L28.7417 24.3579ZM29.258 24.3579C29.089 24.4031 28.911 24.4031 28.742 24.3579L28.484 25.3241C28.8221 25.4144 29.1779 25.4144 29.516 25.3241L29.258 24.3579ZM52.8713 18.0669L29.2583 24.3579L29.5157 25.3241L53.1287 19.0331L52.8713 18.0669ZM53.5 35.5V18.55H52.5V35.5H53.5ZM48.5 40.5C51.2614 40.5 53.5 38.2614 53.5 35.5H52.5C52.5 37.7091 50.7091 39.5 48.5 39.5V40.5ZM9.5 40.5H48.5V39.5H9.5V40.5Z" fill="black"/>
</g>
<defs>
<filter id="filter0_d_0_3438" x="0.5" y="0.5" width="57" height="48" filterUnits="userSpaceOnUse" color-interpolation-filters="sRGB">
<feFlood flood-opacity="0" result="BackgroundImageFix"/>
<feColorMatrix in="SourceAlpha" type="matrix" values="0 0 0 0 0 0 0 0 0 0 0 0 0 0 0 0 0 0 127 0" result="hardAlpha"/>
<feOffset dy="4"/>
<feGaussianBlur stdDeviation="2"/>
<feComposite in2="hardAlpha" operator="out"/>
<feColorMatrix type="matrix" values="0 0 0 0 0 0 0 0 0 0 0 0 0 0 0 0 0 0 0.25 0"/>
<feBlend mode="normal" in2="BackgroundImageFix" result="effect1_dropShadow_0_3438"/>
<feBlend mode="normal" in="SourceGraphic" in2="effect1_dropShadow_0_3438" result="shape"/>
</filter>
</defs>
</svg>
